<ttFont>
          <CharString index="0">
            -31 172 -46 345 0 vvcurveto
            -11 5 -157 -17 -230 -506 -21 -45 -20 -17 -30 -5 rlinecurve
            -15 -66 rlineto
            0 64 3 53 61 79 -6 0 vhcurveto
            14 62 -3 6 rlineto
            -42 hlineto
            -27 -12 8 18 10 3 10 7 17 hvcurveto
            32 77 rlineto
            2 13 51 5 29 hhcurveto
            18 56 -1 -1 13 hvcurveto
            9 -77 rlineto
            1 -11 1 -11 -7 vvcurveto
            -29 -14 -8 -65 -5 vhcurveto
            -12 -59 return
          </CharString>
          <CharString index="1">
            rmoveto
            16 -4 19 13 90 63 13 7 rlinecurve
            11 -7 75 -63 17 -13 16 4 rcurveline
            34 41 rlineto
            -32 33 -97 121 0 vvcurveto
            -20 hlineto
            0 -125 -121 -41 -33 vhcurveto
            endchar
          </CharString>
          <CharString index="2">
            225 114 rmoveto
            28 12 63 11 75 vhcurveto
            2 17 29 4 28 hhcurveto
            48 77 -3 0 hvcurveto
            24 85 -6 -7 callsubr
            -82 -8 -31 vhcurveto
            -28 -42 1 -20 hhcurveto
            26 158 rlineto
            30 5 5 3 45 hhcurveto
            92 23 -6 -41 -22 -8 -35 0 hvcurveto
            90 6 rlineto
            16 93 28 88 29 callsubr
            rlineto
            -8 -60 -98 -4 -138 hhcurveto
            -72 -106 3 0 hvcurveto
            -15 -59 5 -9 rlineto
            return
          </CharString>
          <CharString index="3">
            hstem
            211 100 rmoveto
            1 131 -7 125 -11 102 -11 9 rcurveline
            0 -105 -12 -72 -8 vhcurveto
            -4 -58 rlineto
            0 30 3 12 21 8 -9 -26 5 vhcurveto
            16 -89 17 -152 5 -112 17 -15 rcurveline
            108 5 40 65 34 64 24 49 rlinecurve
            9 hlineto
            17 -168 16 -15 99 5 rlineto
            132 192 65 128 71 vvcurveto
            37 -12 34 -19 18 vhcurveto
            -133 -25 -7 -32 rlineto
            16 -5 34 -26 -42 vvcurveto
            -45 -35 -84 -63 -115 vhcurveto
            -13 hlineto
            -20 219 rlineto
            12 34 3 16 20 vvcurveto
            36 -12 32 -19 17 vhcurveto
            -102 -25 -9 -14 20 -132 -16 -50 -31 -65 -47 -88 rlinecurve
            return
          </CharString>
          <CharString index="4">
            -150 -62 -65 -105 -31 hhcurveto
            -16 -7 9 20 47 86 260 0 hvcurveto
            -12 16 rlineto
            -61 callsubr
            -74 30 callgsubr
            34 hlineto
            27 11 -10 -24 hvcurveto
            -46 -66 -175 -55 vvcurveto
            -58 44 -37 74 vhcurveto
            49 36 50 70 51 107 rrcurveto
            return
          </CharString>
          <CharString index="5">
            311 73 rmoveto
            -79 -47 70 118 188 67 110 104 80 49 -70 -118 -190 -68 -108 -106 hvcurveto
            -26 -85 rmoveto
            211 145 165 237 164 -99 99 -157 -212 -141 -162 -236 -165 100 -102 153 hvcurveto
            return
          </CharString>
          <CharString index="6">
            hstem
            286 417 rmoveto
            31 -16 19 -27 -31 vvcurveto
            -46 -39 -95 -65 -113 vhcurveto
            -12 hlineto
            150 -5 122 -10 97 vhcurveto
            -11 9 -177 -20 -4 -58 rlineto
            0 29 3 11 22 9 -9 -26 5 vhcurveto
            15 -93 19 -149 15 -164 rrcurveto
            -71 -56 -36 -25 -42 hhcurveto
            -34 -29 25 36 -8 hvcurveto
            -20 1 -18 -34 -19 -50 -4 -25 rlinecurve
            -28 8 44 -23 48 hhcurveto
            84 84 73 181 128 hvcurveto
            126 181 63 124 71 vvcurveto
            37 -12 33 -20 17 vhcurveto
            -132 -25 rlineto
            return
          </CharString>
          <CharString index="7">
            hstemhm
            hintmask 10110000
            522 131 rmoveto
            -107 callsubr
            rlineto
            hintmask 01110000
            -40 callgsubr
            hintmask 10110000
            -95 callsubr
            return
          </CharString>
          <CharString index="8">
            rmoveto
            20 -16 15 -26 -27 vvcurveto
            -34 -29 -41 -39 -27 -23 callsubr
            -30 -16 -19 -24 vhcurveto
            endchar
          </CharString>
          <CharString index="9">
            188 114 rmoveto
            -16 -12 39 49 91 41 94 41 30 37 -17 -11 21 hvcurveto
            -140 -57 -59 -105 -26 hhcurveto
            -28 -114 rmoveto
            41 29 28 36 73 123 9 -3 rcurveline
            -23 -191 rlineto
            -92 -12 -55 -53 -77 hhcurveto
            -52 -51 31 30 13 70 43 49 34 hvcurveto
            233 17 rmoveto
            6 52 6 140 6 50 5 49 22 72 33 66 -11 18 rcurveline
            -80 13 -12 -6 -8 -23 -88 18 rlineto
            -113 -122 -166 -153 -66 23 -49 39 -20 hvcurveto
            -1 -8 -67 -37 -72 -40 -33 -24 rlinecurve
            -3 -8 -7 -74 81 -63 103 1 rlinecurve
            115 164 144 114 14 hvcurveto
            return
          </CharString>
          <CharString index="10">
            rmoveto
            -25 77 -13 5 rlineto
            0 -115 -57 -108 -47 vhcurveto
            14 -47 13 -9 rlineto
            114 36 115 29 -31 callgsubr
          </CharString>
          <CharString index="11">
            hstem
            48 158 rmoveto
            -18 -24 -23 -52 -7 -34 rrcurveto
            -36 12 56 -24 70 hhcurveto
            110 90 74 90 79 -81 34 -46 37 hvcurveto
            -18 14 -12 14 18 vvcurveto
            24 21 18 25 32 28 -23 -36 14 vhcurveto
            20 hlineto
            14 25 19 38 15 39 rrcurveto
            25 -27 -48 16 -51 hhcurveto
            -105 -84 -71 -90 -64 51 -34 44 -30 hvcurveto
            34 -23 30 -20 -28 vvcurveto
            -26 -23 -19 -33 -52 -35 34 54 -2 vhcurveto
            return
          </CharString>
          <CharString index="12">
            0 82 8 83 42 77 -19 callgsubr
            14 58 -4 7 -42 5 -16 16 -8 48 rlinecurve
            -201 381 rmoveto
            14 hlineto
            28 -223 rlineto
            -2 -22 -28 -2 -21 hhcurveto
            -67 hlineto
            return
          </CharString>
          <CharString index="13">
            hstemhm
            hintmask 01101000
            261 551 rmoveto
            21 12 8 48 3 vhcurveto
            13 57 -4 9 rlineto
            0 -106 -8 -50 -38 -86 3 0 vhcurveto
            -16 -63 3 -5 58 -12 16 -27 22 -62 rlinecurve
            71 -190 17 -44 2 -24 -4 -35 rlinecurve
            -4 -31 -7 -67 -15 -17 -77 -11 rlinecurve
            -15 -67 rlineto
            hintmask 10011000
            0 98 11 56 48 111 -29 callgsubr
            -26 -3 -22 -36 -8 17 49 7 vhcurveto
            10 75 2 29 23 36 114 179 rcurveline
            49 77 27 33 56 18 15 60 rcurveline
            -3 7 rlineto
            hintmask 10101000
            0 -56 -4 -44 vhcurveto
            hintmask 10011000
            25 callsubr
            hintmask 10101000
            2 -5 rlineto
            33 -2 13 -6 -13 vvcurveto
            -12 -7 -18 -12 -20 vhcurveto
            -97 -168 rlineto
            -8 hlineto
            -7 22 -49 157 28 vvcurveto
            return
          </CharString>
          <CharString index="14">
            rmoveto
            -44 -36 22 46 -12 hvcurveto
            -18 -4 -31 -34 rlineto
            -63 9 37 -62 84 hhcurveto
            82 53 62 63 24 hvcurveto
            -22 34 -18 4 rlineto
            -46 -23 -41 -22 -44 hhcurveto
            return
          </CharString>
          <CharString index="15">
            rmoveto
            44 31 33 43 -20 callgsubr
            -43 -32 -32 -44 -2 callsubr
            -173 hmoveto
            44 31 33 43 -20 callgsubr
            -44 -31 -32 -44 -31 17 -21 35 hvcurveto
            endchar
          </CharString>
          <CharString index="16">
            rmoveto
            44 31 32 44 -20 callgsubr
            -44 -32 -33 -43 -31 18 -21 35 hvcurveto
            -174 hmoveto
            44 31 32 44 31 -17 21 -34 -44 -32 -33 -43 -2 callsubr
            return
          </CharString>
          <CharString index="17">
            hstem
            241 385 rmoveto
            26 21 -15 -32 19 hvcurveto
            28 2 42 96 -4 15 rlineto
            14 -23 -37 8 -37 hhcurveto
            -133 -119 -148 -165 -106 53 -66 85 69 80 59 77 35 hvcurveto
            -58 callgsubr
            return
          </CharString>
          <CharString index="18">
            71 -2 9 -7 -27 -351 -2 -33 0 -39 -4 -43 rlinecurve
            -50 -3 -29 -30 -37 hhcurveto
            -45 -24 27 54 -2 hvcurveto
            -16 hlineto
            -17 -24 -26 -53 -9 -30 rrcurveto
            -31 11 48 -23 52 hhcurveto
            94 91 91 109 12 hvcurveto
            47 return
          </CharString>
          <CharString index="19">
            0 21 1 12 28 5 -11 -41 -5 vhcurveto
            -47 -387 -7 -55 -16 -17 -58 -12 rlinecurve
            -15 -64 rlineto
            return
          </CharString>
          <CharString index="20">
            114 155 -8 0 hvcurveto
            11 10 rlineto
            25 117 29 108 -4 callsubr
            9 -84 -8 rlineto
            -128 -29 -22 -23 -91 hhcurveto
            -42 -11 9 32 36 38 250 19 101 hvcurveto
            11 60 11 7 62 8 15 69 rcurveline
            return
          </CharString>
          <CharString index="21">
            30 callsubr
            25 4 -11 -43 -5 vhcurveto
            -48 -382 -7 -58 -18 -19 -54 -8 rlinecurve
            -16 -67 rlineto
            return
          </CharString>
          <CharString index="22">
            3 1 96 6 58 hhcurveto
            36 82 -3 0 hvcurveto
            16 63 -4 7 rlineto
            0 -16 -3 -19 -21 -8 6 22 -1 vhcurveto
            -2 16 5 30 4 27 14 110 rcurveline
            0 111 10 25 35 68 -1 0 vhcurveto
            -16 -129 -9 -72 -18 -19 -53 -1 rlinecurve
            -16 -65 rlineto
            0 78 2 40 vhcurveto
            40 hlineto
            52 67 -3 0 hvcurveto
            16 63 -1 3 -2 2 -1 2 rlinecurve
            0 -19 -3 -17 -24 -9 11 33 return
          </CharString>
          <CharString index="23">
            47 8 rmoveto
            13 -16 rlineto
            45 56 20 17 3 hvcurveto
            11 92 rlineto
            132 50 59 74 53 hhcurveto
            25 15 -12 0 hvcurveto
            14 6 rlineto
            7 22 3 16 15 vvcurveto
            43 -14 32 -30 23 vhcurveto
            -39 -71 -91 -105 -43 hvcurveto
            -5 hlineto
            14 81 27 89 -21 callsubr
            return
          </CharString>
          <CharString index="24">
            294 -12 84 -72 72 214 68 208 84 -69 69 hstemhm
            hintmask 10101000
            298 -78 callsubr
            -21 -170 rlineto
            -110 hlineto
            -17 -60 7 -7 rlineto
            112 hlineto
            -18 -145 -8 -56 -17 -18 -55 -10 rlinecurve
            -15 -67 rlineto
            hintmask 01110000
            0 75 10 51 vhcurveto
            hintmask 10110000
            -59 callsubr
            12 9 66 13 83 hvcurveto
            120 hlineto
            14 60 -6 9 -117 -2 10 62 10 66 10 57 rlinecurve
            19 3 6 5 21 hhcurveto
            endchar
          </CharString>
          <CharString index="25">
            hstem
            487 16 rmoveto
            15 97 37 131 0 vvcurveto
            -84 -7 -28 -105 -38 -45 -64 -5 rlinecurve
            -151 -11 56 76 164 224 192 228 rlinecurve
            -12 40 -283 4 -171 11 -12 -10 rlineto
            -13 -92 -29 -123 0 vvcurveto
            84 6 19 94 24 27 82 6 rlinecurve
            123 8 -403 -531 18 -44 75 8 380 -6 rlineto
            return
          </CharString>
          <CharString index="26">
            rmoveto
            0 95 -59 93 -69 vhcurveto
            16 4 30 39 rlineto
            -83 80 -85 90 0 vvcurveto
            -13 -1 -55 -70 rlineto
            return
          </CharString>
          <CharString index="27">
            288 529 rmoveto
            7 37 12 10 50 7 14 66 rcurveline
            0 -96 -8 -43 vhcurveto
            return
          </CharString>
          <CharString index="28">
            rmoveto
            0 46 56 24 vhcurveto
            hintmask 11101000
            -79 callgsubr
            hintmask 11011000
            -68 callsubr
            return
          </CharString>
          <CharString index="29">
            -12 rmoveto
            216 160 171 229 162 -112 96 -175 hvcurveto
            0 -100 -5 -45 -38 -85 45 callsubr
            -60 4 -9 rlineto
            0 20 2 13 23 5 -11 -43 -5 vhcurveto
            return
          </CharString>
          <CharString index="30">
            54 37 40 53 39 -23 26 -42 -54 -37 -39 -54 -38 21 -27 44 hvcurveto
            return
          </CharString>
          <CharString index="31">
            12 7 107 -1 9 56 -5 5 rlineto
            -109 hlineto
            16 73 20 67 0 vvcurveto
            -10 12 -128 -35 rlineto
            0 -7 -62 -8 -54 vhcurveto
            -76 -12 -6 -46 3 -5 62 -2 7 -6 return
          </CharString>
          <CharString index="32">
            0 -68 -6 -47 -43 -82 4 0 vhcurveto
            -14 -60 3 -8 rlineto
            4 15 1 14 hhcurveto
            21 8 -12 -31 -3 hvcurveto
            -35 -305 rlineto
            return
          </CharString>
          <CharString index="33">
            -30 callgsubr
            -23 -3 -30 -32 -13 15 36 37 47 316 18 97 vhcurveto
            97 -4 2 -11 -1 -122 83 6 rcurveline
            0 5 108 11 99 vhcurveto
            return
          </CharString>
          <CharString index="34">
            rmoveto
            -43 -36 19 40 -13 hvcurveto
            -17 -3 -33 -35 rlineto
            -58 10 38 -58 83 hhcurveto
            83 52 58 58 24 hvcurveto
            -23 35 -16 3 rlineto
            -40 -23 -41 -19 -45 hhcurveto
            endchar
          </CharString>
          <CharString index="35">
            189 0 77 -66 -21 296 82 91 182 -81 81 -63 63 return
          </CharString>
          <CharString index="36">
            rmoveto
            -57 50 -11 -1 rlineto
            0 -64 -88 -61 -78 vhcurveto
            32 -28 14 -1 rlineto
            73 71 75 64 0 vvcurveto
            144 11 rmoveto
            -57 50 -12 -1 rlineto
            0 -64 -88 -60 -78 vhcurveto
            32 -28 13 -1 rlineto
            74 71 75 64 -31 callgsubr
          </CharString>
          <CharString index="37">
            rmoveto
            -51 49 -35 66 87 70 59 76 41 -24 25 -27 18 vhcurveto
            30 15 36 28 50 vvcurveto
            50 -49 35 -60 -82 -66 -56 -69 -40 22 -27 26 -20 vhcurveto
            -33 -14 -45 -30 -55 vvcurveto
            130 -28 rmoveto
            -28 -17 20 28 27 17 17 14 11 hvcurveto
            33 -18 29 -14 -26 vvcurveto
            -26 -20 -19 -28 vhcurveto
            -7 237 rmoveto
            22 18 18 25 22 13 -15 -24 16 callsubr
            14 -25 15 24 vvcurveto
            endchar
          </CharString>
          <CharString index="38">
            0 18 2 12 14 6 -6 -16 2 vhcurveto
            -248 -426 -26 -44 -28 -27 -13 -3 rlinecurve
            -3 -59 rlineto
            0 41 3 31 54 107 -5 -1 1 vhcurveto
            14 64 -30 5 rlineto
            -38 -12 4 17 10 4 10 11 21 hvcurveto
            53 98 83 16 85 10 rlineto
            -92 vlineto
            -12 -1 -12 -1 -10 vhcurveto
            -1 -38 -26 -20 -59 -5 rrcurveto
            -31 257 rmoveto
            107 193 rlineto
            15 hlineto
            -1 -181 -61 -8 rlineto
            return
          </CharString>
          <CharString index="39">
            -28 -81 33 -33 hhcurveto
            -16 -4 -88 -101 -1 -11 35 -36 rlineto
            return
          </CharString>
          <CharString index="40">
            rmoveto
            -55 -3 11 -20 40 hhcurveto
            102 109 69 70 39 -25 27 -55 19 hvcurveto
            1 6 rlineto
            49 18 33 37 41 vvcurveto
            43 -24 callgsubr
            -55 rlineto
            9 hlineto
            17 -8 callsubr
            -16 -25 -20 -23 -30 -13 hvcurveto
            -43 -8 rlineto
            -49 31 callgsubr
            -22 -47 -22 -18 4 6 -16 hvcurveto
            endchar
          </CharString>
          <CharString index="41">
            24 169 47 168 -64 callsubr
            return
          </CharString>
          <CharString index="42">
            -46 -63 2 -26 hhcurveto
            -11 callgsubr
            return
          </CharString>
          <CharString index="43">
            0 vvcurveto
            -12 16 rlineto
            return
          </CharString>
          <CharString index="44">
            rmoveto
            56 -41 30 -97 15 vhcurveto
            10 52 rlineto
            67 58 -5 0 hvcurveto
            12 10 31 104 -44 -3 -9 -19 -10 -6 -25 -1 rlinecurve
            -130 -4 -7 -5 rlineto
            0 -15 -96 -19 -90 vhcurveto
            hintmask 11010000
            -40 callgsubr
            76 -6 32 -14 -29 vvcurveto
            -32 -34 -23 -48 -22 -18 4 6 -15 vhcurveto
            -14 -12 rlineto
            -55 -3 13 -20 40 hhcurveto
            100 108 74 77 hvcurveto
            endchar
          </CharString>
          <CharString index="45">
            rmoveto
            37 40 142 135 0 vvcurveto
            3 20 rlineto
            0 -110 131 -28 41 vhcurveto
            -44 -26 -6 -16 10 -22 52 -107 4 -14 rlinecurve
            -8 -15 -77 -104 -15 -22 1 -16 rcurveline
            return
          </CharString>
          <CharString index="46">
            0 -117 -9 return
          </CharString>
          <CharString index="47">
            rmoveto
            -10 43 -7 4 rlineto
            0 -261 -63 -211 vvcurveto
            -74 43 -49 72 97 65 62 88 56 -34 41 -60 vhcurveto
            -15 -3 -20 -9 -14 -8 -2 6 rcurveline
            52 84 94 33 0 vvcurveto
            -134 -169 rmoveto
            25 13 -19 -31 hvcurveto
            hintmask 10100000
            -43 -15 -25 -36 -25 -14 21 38 15 3 13 3 16 vhcurveto
            6 9 18 9 19 hhcurveto
            endchar
          </CharString>
          <CharString index="48">
            55 95 -12 0 hvcurveto
            37 574 rmoveto
            123 61 -61 -125 -188 -78 -116 -127 -54 -18 12 41 return
          </CharString>
          <CharString index="49">
            -13 -11 rlineto
            -14 -97 -23 -116 0 vvcurveto
            83 6 26 114 7 13 104 4 rlinecurve
            return
          </CharString>
          <CharString index="50">
            55 56 39 -21 36 -56 -62 -45 -47 -61 -46 26 -32 50 hvcurveto
            endchar
          </CharString>
          <CharString index="51">
            94 rmoveto
            17 -18 13 -28 -27 vvcurveto
            -40 -29 -45 -43 -29 vhcurveto
            -17 vlineto
            38 -30 rlineto
            80 46 73 74 73 vvcurveto
            56 -29 33 -39 -25 -30 -16 -18 -24 vhcurveto
            return
          </CharString>
          <CharString index="52">
            rmoveto
            -20 16 -15 25 27 vvcurveto
            35 28 41 40 27 vhcurveto
            17 vlineto
            -37 30 rlineto
            -78 -44 -69 -67 -71 vvcurveto
            return
          </CharString>
          <CharString index="53">
            -86 -101 -63 35 -40 42 -30 vhcurveto
            -49 -22 -77 -48 -91 vvcurveto
            189 -55 rmoveto
            -47 -30 38 45 55 38 30 26 17 hvcurveto
            52 -29 49 -25 -46 vvcurveto
            -49 -40 -36 -48 vhcurveto
            -20 384 rmoveto
            39 31 34 44 37 25 -25 -46 -48 -26 -29 -22 -18 vhcurveto
            -47 26 -42 24 43 vvcurveto
            endchar
          </CharString>
          <CharString index="54">
            rmoveto
            -55 -3 11 -20 40 hhcurveto
            102 109 69 70 39 -25 27 -55 18 hvcurveto
            1 7 rlineto
            49 18 33 37 24 callgsubr
            -54 rlineto
            9 hlineto
            17 -8 callsubr
            -17 -24 -20 -23 -30 -13 hvcurveto
            -43 -9 rlineto
            -48 vlineto
            return
          </CharString>
          <CharString index="55">
            -1 callgsubr
            28 206 86 406 -64 callsubr
            return
          </CharString>
          <CharString index="56">
            -20 hstem
            -2 -78 rmoveto
            2 -10 60 -29 68 111 rlineto
            -4 13 14 -2 16 hhcurveto
            143 106 137 180 52 -12 41 -23 28 hvcurveto
            63 104 -3 12 -62 30 -62 -104 rlineto
            4 -15 -15 2 -17 hhcurveto
            -141 -106 -134 -173 -57 14 -45 25 -31 hvcurveto
            return
          </CharString>
          <CharString index="57">
            28 80 -34 32 hhcurveto
            17 4 88 97 1 10 -35 37 rlineto
            -11 hlineto
            0 -46 -52 -23 vhcurveto
            return
          </CharString>
          <CharString index="58">
            0 64 -52 -21 587 63 2 -20 return
          </CharString>
          <CharString index="59">
            -53 callgsubr
            27 11 -11 -25 -37 -96 -588 0 hvcurveto
            33 callgsubr
            144 58 64 102 34 hhcurveto
            16 10 -11 -19 -51 -59 -36 -48 -24 hvcurveto
            -7 -17 rlineto
            return
          </CharString>
          <CharString index="60">
            -89 callsubr
            431 9 return
          </CharString>
          <CharString index="61">
            309 -12 rmoveto
            13 -7 109 27 1 17 rlineto
            0 -56 84 -46 82 vhcurveto
            87 57 46 63 62 vvcurveto
            60 -46 41 -69 vhcurveto
            -50 -30 -57 -79 -55 -116 22 callsubr
            return
          </CharString>
          <CharString index="62">
            rmoveto
            51 36 39 53 36 -20 23 -37 -53 -36 -38 -52 -35 20 -26 39 hvcurveto
            return
          </CharString>
          <CharString index="63">
            -25 14 -13 29 return
          </CharString>
          <CharString index="64">
            -167 100 -101 162 vhcurveto
            return
          </CharString>
          <CharString index="65">
            -20 hstemhm
            hintmask 10100000
            return
          </CharString>
          <CharString index="66">
            60 -3 callsubr
            430 538 rmoveto
            -13 55 -9 5 rlineto
            0 -387 -100 -325 vvcurveto
            -109 60 -76 104 140 98 97 127 81 -50 68 -94 vhcurveto
            -23 -4 return
          </CharString>
          <CharString index="67">
            rlineto
            69 9 25 30 48 hhcurveto
            25 30 -11 -27 39 hvcurveto
            19 3 45 96 -4 11 rlineto
            9 -26 -44 6 -36 10 callsubr
            rlineto
            endchar
          </CharString>
          <CharString index="68">
            rlineto
            -62 -7 35 -38 66 hhcurveto
            31 62 57 77 61 hvcurveto
            -16 36 rlineto
            return
          </CharString>
          <CharString index="69">
            rmoveto
            107 72 98 147 96 -41 56 -73 -107 -73 -98 -147 -96 40 -56 75 hvcurveto
            22 99 rmoveto
            -45 -24 29 53 73 31 40 55 46 24 -30 -53 -73 -31 -39 -56 hvcurveto
            endchar
          </CharString>
          <CharString index="70">
            -68 callsubr
            endchar
          </CharString>
          <CharString index="71">
            -43 -43 -21 -15 -16 hhcurveto
            -17 -6 11 22 3 hvcurveto
            return
          </CharString>
          <CharString index="72">
            41 -30 65 vhcurveto
            50 21 callgsubr
            return
          </CharString>
          <CharString index="73">
            vhcurveto
            -9 -13 callsubr
            -25 return
          </CharString>
          <CharString index="74">
            rmoveto
            110 34 76 49 12 11 -4 -8 9 vhcurveto
            -115 -198 rlineto
            60 -107 rmoveto
            -11 -10 4 8 -8 hvcurveto
            113 193 rlineto
            -10 vlineto
            -123 -32 -72 -52 vhcurveto
            endchar
          </CharString>
          <CharString index="75">
            -20 hstemhm
            hintmask 11010000
            return
          </CharString>
          <CharString index="76">
            200 165 rmoveto
            -11 -86 -13 -12 -85 -8 -16 -65 rcurveline
            return
          </CharString>
          <CharString index="77">
            rmoveto
            54 37 39 54 39 -23 26 -42 -54 -36 -40 -53 -38 20 -27 44 hvcurveto
            endchar
          </CharString>
          <CharString index="78">
            0 18 1 12 27 7 -11 -41 -6 vhcurveto
            -20 -154 rlineto
            -5 -38 -28 -2 -47 hhcurveto
            1 -40 -41 1 -41 hhcurveto
            24 144 8 54 8 10 50 8 rlinecurve
            return
          </CharString>
          <CharString index="79">
            rmoveto
            21 12 -12 -23 -43 -40 -33 -91 -30 hvcurveto
            83 13 41 58 44 hhcurveto
            endchar
          </CharString>
          <CharString index="80">
            rmoveto
            -16 -22 10 27 24 14 17 28 26 13 -14 -22 -36 -28 -6 -15 hvcurveto
            return
          </CharString>
          <CharString index="81">
            -120 -1 -14 -58 3 -8 rlineto
            0 28 3 14 26 5 -10 -42 -5 vhcurveto
            return
          </CharString>
          <CharString index="82">
            0 18 1 11 28 5 -10 -42 -5 vhcurveto
            return
          </CharString>
          <CharString index="83">
            5 -12 97 300 88 return
          </CharString>
          <CharString index="84">
            vhcurveto
            -17 vlineto
            37 -30 rlineto
            78 43 69 67 71 vvcurveto
            53 -29 33 -40 -25 return
          </CharString>
          <CharString index="85">
            rmoveto
            0 -39 -24 -33 -25 -16 return
          </CharString>
          <CharString index="86">
            0 vvcurveto
            -11 16 rlineto
            return
          </CharString>
          <CharString index="87">
            97 44 100 42 return
          </CharString>
          <CharString index="88">
            -5 9 rlineto
            -48 hlineto
            26 221 -71 7 -5 -1 -193 -239 rlineto
            155 116 45 callgsubr
          </CharString>
          <CharString index="89">
            58 0 vvcurveto
            -200 -265 rmoveto
            45 25 -38 -51 -70 -30 -45 -58 return
          </CharString>
          <CharString index="90">
            80 -4 81 -7 61 vhcurveto
            -8 6 rlineto
            0 -74 -6 -51 -6 vhcurveto
            -4 -43 rlineto
            0 18 1 8 12 6 -5 -16 3 vhcurveto
            10 return
          </CharString>
          <CharString index="91">
            37 -12 116 -71 71 -71 86 239 87 return
          </CharString>
          <CharString index="92">
            -12 89 501 63 return
          </CharString>
          <CharString index="93">
            -7 -45 rlineto
            21 hlineto
            19 7 -7 -20 -2 hvcurveto
            -4 -33 -31 -184 0 vvcurveto
            11 13 callsubr
            return
          </CharString>
          <CharString index="94">
            -59 rlineto
            35 hlineto
            27 11 -11 return
          </CharString>
          <CharString index="95">
            -31 -4 vhcurveto
            -24 -197 -4 return
          </CharString>
          <CharString index="96">
            656 529 rmoveto
            7 38 12 10 48 7 12 65 rcurveline
            return
          </CharString>
          <CharString index="97">
            -21 490 108 4 -20 hstemhm
            hintmask 11000000
            return
          </CharString>
          <CharString index="98">
            -12 92 169 76 106 222 -94 94 return
          </CharString>
          <CharString index="99">
            26 27 10 19 hhcurveto
            18 12 -11 return
          </CharString>
          <CharString index="100">
            8 rlineto
            0 return
          </CharString>
          <CharString index="101">
            -21 406 return
          </CharString>
          <CharString index="102">
            rrcurveto
            -4 hlineto
            20 131 37 160 0 vvcurveto
            -9 12 rlineto
            0 -84 -6 -54 vhcurveto
            -7 -45 rlineto
            22 hlineto
            return
          </CharString>
          <CharString index="103">
            0 vvcurveto
            -6 return
          </CharString>
          <CharString index="104">
            -12 81 204 88 237 -20 hstem
            return
          </CharString>
          <CharString index="105">
            -31 18 -21 34 hvcurveto
            return
          </CharString>
          <CharString index="106">
            61 152 -20 hstem
            266 161 rmoveto
            -36 callsubr
            return
          </CharString>
          <CharString index="107">
            83 -241 90 538 79 return
          </CharString>
          <CharString index="108">
            -51 -40 -42 -60 -60 -119 -6 1 rcurveline
            35 217 56 254 -64 callsubr
            return
          </CharString>
          <CharString index="109">
            -11 -48 rmoveto
            60 37 50 50 35 -19 33 -50 -56 -41 -43 -55 -41 24 -29 45 hvcurveto
            return
          </CharString>
          <CharString index="110">
            0 vvcurveto
            -10 11 rlineto
            0 -83 32 callsubr
            return
          </CharString>
          <CharString index="111">
            194 -2 callgsubr
            return
          </CharString>
          <CharString index="112">
            rmoveto
            -14 -20 9 24 22 14 15 24 23 13 -12 -20 -33 -26 -5 -14 hvcurveto
            return
          </CharString>
          <CharString index="113">
            6 vhcurveto
            12 60 -4 -7 callsubr
            return
          </CharString>
          <CharString index="114">
            vhcurveto
            -12 27 -13 1 rlineto
            return
          </CharString>
          <CharString index="115">
            -86 -139 1 0 vhcurveto
            18 callsubr
            132 1 87 vhcurveto
            return
          </CharString>
          <CharString index="116">
            134 26 callsubr
            return
          </CharString>
          <CharString index="117">
            hhcurveto
            -118 -119 -102 -119 -13 hvcurveto
            1 callgsubr
            return
          </CharString>
          <CharString index="118">
            627 40 callsubr
            -36 -36 -11 -20 -32 vhcurveto
            return
          </CharString>
          <CharString index="119">
            hlineto
            8 56 19 58 0 vvcurveto
            -9 12 rlineto
            0 -82 -6 -53 vhcurveto
            return
          </CharString>
          <CharString index="120">
            -22 callgsubr
            5 return
          </CharString>
          <CharString index="121">
            332 0 64 -52 -21 294 80 return
          </CharString>
          <CharString index="122">
            545 6 -21 594 62 return
          </CharString>
          <CharString index="123">
            -26 -12 -16 -12 -12 vhcurveto
            -29 return
          </CharString>
          <CharString index="124">
            -92 1 0 vhcurveto
            -23 -76 9 return
          </CharString>
          <CharString index="125">
            -25 -90 6 -11 rlineto
            0 return
          </CharString>
          <CharString index="126">
            -101 -11 rlineto
            -302 hlineto
            return
          </CharString>
          <CharString index="127">
            -238 52 56 -20 return
          </CharString>
          <CharString index="128">
            -3 callgsubr
            26 -20 hstemhm
            hintmask 10001000
            return
          </CharString>
          <CharString index="129">
            -6 1 rcurveline
            33 217 58 254 -64 callsubr
            return
          </CharString>
          <CharString index="130">
            -140 -97 -97 -127 -81 49 -68 94 vhcurveto
            23 3 return
          </CharString>
          <CharString index="131">
            18 -35 callgsubr
            return
          </CharString>
          <CharString index="132">
            27 callsubr
            -15 -57 rlineto
            return
          </CharString>
          <CharString index="133">
            -12 17 callgsubr
            return
          </CharString>
          <CharString index="134">
            -43 -60 4 -25 hhcurveto
            return
          </CharString>
          <CharString index="135">
            0 -107 -8 -44 vhcurveto
            return
          </CharString>
          <CharString index="136">
            -4 callsubr
            10 return
          </CharString>
          <CharString index="137">
            0 19 2 11 return
          </CharString>
          <CharString index="138">
            48 rlineto
            -210 hlineto
            hintmask 10100000
            -60 -57 4 0 hvcurveto
            return
          </CharString>
          <CharString index="139">
            -6 -54 vhcurveto
            -7 -45 rlineto
            22 hlineto
            17 7 -7 -16 return
          </CharString>
          <CharString index="140">
            131 118 151 166 98 -50 63 -80 return
          </CharString>
          <CharString index="141">
            39 -48 hhcurveto
            -19 -4 -102 -101 -1 -11 30 -37 rlineto
            return
          </CharString>
          <CharString index="142">
            -12 74 457 79 hstem
            return
          </CharString>
          <CharString index="143">
            hlineto
            -20 -76 rlineto
            hintmask 01100000
            6 -13 rlineto
            hintmask 10000000
            return
          </CharString>
          <CharString index="144">
            -21 149 248 -63 63 hstemhm
            hintmask 11000000
            30 return
          </CharString>
          <CharString index="145">
            -21 354 128 195 59 9 -20 hstemhm
            return
          </CharString>
          <CharString index="146">
            -32 hhcurveto
            -33 -28 28 35 -10 hvcurveto
            -14 hlineto
            -14 return
          </CharString>
          <CharString index="147">
            379 rmoveto
            59 -40 35 -67 return
          </CharString>
          <CharString index="148">
            -7 -21 28 63 515 63 return
          </CharString>
          <CharString index="149">
            hstem
            294 -12 rmoveto
            return
          </CharString>
          <CharString index="150">
            -8 callgsubr
            25 33 return
          </CharString>
          <CharString index="151">
            -42 -67 -59 vhcurveto
            9 -74 rlineto
            13 hlineto
            48 return
          </CharString>
          <CharString index="152">
            3 0 vhcurveto
            -15 return
          </CharString>
        <CharString name=".notdef">
          -222 endchar
        </CharString>
        <CharString name="A">
          216 0 59 -46 -21 217 76 368 -20 -100 callsubr
          endchar
        </CharString>
        <CharString name="AE">
          456 13 callgsubr
          12 -42 callsubr
          288 60 rmoveto
          -11 -60 rlineto
          hintmask 01100000
          -40 callgsubr
          hintmask 10011000
          -63 callgsubr
          hintmask 10010010
          -7 11 rlineto
          hintmask 10010100
          2 callgsubr
          -69 callsubr
          endchar
        </CharString>
        <CharString name="AEacute">
          458 13 callgsubr
          270 -20 hstemhm
          hintmask 10100010
          288 60 rmoveto
          -11 -60 rlineto
          hintmask 01100010
          -40 callgsubr
          hintmask 10011010
          -63 callgsubr
          -7 11 rlineto
          2 callgsubr
          hintmask 10010110
          -69 callsubr
          341 520 -95 callgsubr
          endchar
        </CharString>
        <CharString name="Aacute">
          -49 callgsubr
          572 -20 -100 callsubr
          305 490 -97 callsubr
        </CharString>
        <CharString name="Abreve">
          -49 callgsubr
          418 95 59 -20 hstemhm
          hintmask 10111000
          522 131 rmoveto
          -107 callsubr
          rlineto
          hintmask 01111000
          -40 callgsubr
          hintmask 10111000
          -95 callsubr
          153 513 -73 callsubr
        </CharString>
        <CharString name="Acircumflex">
          -49 callgsubr
          hstemhm
          hintmask 10100000
          522 131 rmoveto
          -107 callsubr
          rlineto
          hintmask 01100000
          -40 callgsubr
          hintmask 10100000
          -95 callsubr
          6 426 -91 callgsubr
        </CharString>
        <CharString name="Adieresis">
          -49 callgsubr
          426 128 -100 callsubr
          227 426 -92 callsubr
        </CharString>
        <CharString name="Agrave">
          -49 callgsubr
          572 -20 -100 callsubr
          4 477 -85 callgsubr
        </CharString>
        <CharString name="Amacron">
          -49 callgsubr
          428 86 6 -20 hstemhm
          hintmask 10110000
          522 131 rmoveto
          -107 callsubr
          rlineto
          hintmask 01110000
          -40 callgsubr
          hintmask 10101000
          -95 callsubr
          296 520 rmoveto
          hintmask 10110000
          -70 callgsubr
        </CharString>
        <CharString name="Aogonek">
          219 -242 72 170 59 150 76 368 -20 hstem
          563 32 callgsubr
          18 26 63 68 vhcurveto
          25 -1 22 -1 0 vvcurveto
          14 58 -4 7 -42 5 -16 16 -8 48 rlinecurve
          -107 callsubr
          -40 callgsubr
          0 82 8 83 vhcurveto
          13 hlineto
          -72 -69 -35 -44 -48 vvcurveto
          -51 -35 callsubr
          -257 687 rmoveto
          14 hlineto
          28 -223 rlineto
          -2 -22 -28 -2 -21 hhcurveto
          -67 hlineto
          endchar
        </CharString>
        <CharString name="Aring">
          -49 callgsubr
          393 186 -133 -20 98 55 hstemhm
          hintmask 10110000
          522 131 rmoveto
          -107 callsubr
          rlineto
          hintmask 01110000
          -40 callgsubr
          hintmask 10101100
          -95 callsubr
          150 446 -26 callgsubr
          hintmask 10110000
          -13 -53 rmoveto
          67 41 -57 callsubr
        </CharString>
        <CharString name="Aringacute">
          -49 callgsubr
          380 168 -50 50 144 -20 hstemhm
          hintmask 10110100
          522 131 rmoveto
          -107 callsubr
          rlineto
          hintmask 01110100
          -40 callgsubr
          hintmask 10101100
          -95 callsubr
          149 428 5 callsubr
          hintmask 10110100
          2 callsubr
          148 238 -6 callgsubr
        </CharString>
        <CharString name="Atilde">
          -49 callgsubr
          420 96 -62 96 18 -20 hstemhm
          hintmask 10110100
          522 131 rmoveto
          -107 callsubr
          rlineto
          hintmask 01110100
          -40 callgsubr
          hintmask 10101000
          -95 callsubr
          19 402 36 callgsubr
          hintmask 10110100
          -50 callsubr
          hintmask 10101000
          -36 callgsubr
        </CharString>
        <CharString name="B">
          219 -10 84 -53 -21 566 81 -69 69 -4 callgsubr
          149 hmoveto
          hintmask 10010000
          39 75 -9 -1 34 hvcurveto
          163 109 86 127 63 -43 49 -76 24 hvcurveto
          81 42 43 58 72 vvcurveto
          87 -74 49 -123 vhcurveto
          0 -107 -6 -33 -34 -100 3 0 vhcurveto
          -17 -60 6 -8 rlineto
          0 22 2 11 23 6 -13 -37 -4 vhcurveto
          -49 -392 -6 -52 -18 -17 -57 -11 rlinecurve
          -15 -66 rlineto
          hintmask 01100000
          0 88 10 56 vhcurveto
          189 282 rmoveto
          56 -13 28 -34 -48 vvcurveto
          hintmask 10100000
          -69 -43 -44 -68 -66 -24 17 42 6 vhcurveto
          23 148 rlineto
          12 87 rmoveto
          7 46 12 78 11 56 rrcurveto
          14 3 3 4 14 hhcurveto
          82 38 -27 -58 -94 -80 -28 0 -17 -73 9 0 hvcurveto
          endchar
        </CharString>
        <CharString name="C">
          -25 callgsubr
          -94 callgsubr
          endchar
        </CharString>
        <CharString name="Cacute">
          -25 callgsubr
          204 -20 -94 callgsubr
          242 787 -97 callsubr
        </CharString>
        <CharString name="Ccaron">
          -25 callgsubr
          212 -20 -94 callgsubr
          257 873 -92 callgsubr
        </CharString>
        <CharString name="Ccedilla">
          206 20 callsubr
          139 91 345 228 -94 94 hstem
          236 -88 callgsubr
          13 33 rlineto
          108 4 77 35 0 vvcurveto
          10 12 rlineto
          13 82 29 103 0 vvcurveto
          -97 -7 rlineto
          -100 -29 -40 -38 -69 hhcurveto
          -85 -46 69 126 185 67 99 112 66 33 -24 -47 -19 -9 -47 0 hvcurveto
          97 6 rlineto
          19 105 30 83 0 vvcurveto
          -4 13 rlineto
          0 -116 24 -81 -225 -145 -155 -242 -157 88 -99 145 -11 vhcurveto
          endchar
        </CharString>
        <CharString name="Ccircumflex">
          -25 callgsubr
          251 -20 -94 callgsubr
          -41 721 -106 callsubr
        </CharString>
        <CharString name="Cdotaccent">
          -25 callgsubr
          49 152 -94 callgsubr
          102 714 -69 callgsubr
        </CharString>
        <CharString name="D">
          280 -12 84 -72 72 490 84 -69 69 hstemhm
          hintmask 10010000
          283 -78 callsubr
          -47 -382 -8 -56 -17 -18 -55 -10 rlinecurve
          -15 -67 rlineto
          hintmask 01100000
          0 75 10 51 vhcurveto
          hintmask 10100000
          -59 callsubr
          24 37 230 26 159 hvcurveto
          19 3 6 5 21 hhcurveto
          endchar
        </CharString>
        <CharString name="Dcaron">
          279 -12 84 -72 72 490 84 -69 69 219 -20 hstemhm
          hintmask 10011000
          283 -78 callsubr
          -47 -382 -8 -56 -17 -18 -55 -10 rlinecurve
          -15 -67 rlineto
          hintmask 01101000
          0 75 10 51 vhcurveto
          hintmask 10101000
          -59 callsubr
          24 37 230 26 159 hvcurveto
          19 3 6 5 21 hhcurveto
          217 299 -92 callgsubr
        </CharString>
        <CharString name="Dcroat">
          -83 callsubr
        </CharString>
        <CharString name="Delta">
          200 0 95 559 -20 hstem
          -8 hmoveto
          539 hlineto
          9 7 rlineto
          -48 258 -52 389 0 vvcurveto
          -9 hlineto
          -165 -17 -283 -624 rlineto
          347 506 rmoveto
          47 -424 rlineto
          -241 hlineto
          178 424 rlineto
          endchar
        </CharString>
        <CharString name="E">
          188 0 77 -66 -21 296 82 91 182 -81 81 -63 63 12 -20 hstemhm
          hintmask 10101000
          225 114 rmoveto
          28 12 63 11 75 vhcurveto
          2 17 29 4 28 hhcurveto
          48 77 -3 0 hvcurveto
          24 85 -6 -7 callsubr
          -82 -8 -31 vhcurveto
          -28 -42 1 -20 hhcurveto
          26 158 rlineto
          30 5 5 3 45 hhcurveto
          92 23 -6 -41 -22 -8 -35 0 hvcurveto
          90 6 rlineto
          16 93 28 88 0 vvcurveto
          hintmask 10100010
          -6 10 rlineto
          hintmask 01100100
          -8 -60 -98 -4 -138 hhcurveto
          -72 -106 3 0 hvcurveto
          -15 -59 5 -9 rlineto
          -86 callsubr
          hintmask 10110000
          0 84 10 86 120 179 -7 0 vhcurveto
          11 10 rlineto
          21 96 29 89 29 callsubr
          -83 -7 rlineto
          -101 -27 -19 -13 -118 hhcurveto
          -44 -13 4 33 hvcurveto
          endchar
        </CharString>
        <CharString name="Eacute">
          -72 callsubr
          216 -20 -105 callgsubr
          275 661 -97 callsubr
        </CharString>
        <CharString name="Ebreve">
          -72 callsubr
          66 95 68 -20 hstemhm
          hintmask 10101011
          -105 callsubr
          hintmask 01100111
          -86 callsubr
          hintmask 10110011
          0 84 10 86 120 179 -7 0 vhcurveto
          11 10 rlineto
          21 96 29 89 29 callsubr
          -83 -7 rlineto
          -101 -27 -19 -13 -118 hhcurveto
          -44 -13 4 33 hvcurveto
          146 688 -93 callsubr
          endchar
        </CharString>
        <CharString name="Ecaron">
          -72 callsubr
          224 -20 -105 callgsubr
          301 747 -92 callgsubr
        </CharString>
        <CharString name="Ecircumflex">
          -72 callsubr
          hstemhm
          hintmask 10101000
          -105 callsubr
          hintmask 01100100
          -86 callsubr
          hintmask 10110000
          0 84 10 86 120 179 -7 0 vhcurveto
          11 10 rlineto
          21 96 29 89 29 callsubr
          -83 -7 rlineto
          -101 -27 -19 -13 -118 hhcurveto
          -44 -13 4 33 hvcurveto
          7 597 -91 callgsubr
        </CharString>
        <CharString name="Edieresis">
          -72 callsubr
          70 128 -105 callgsubr
          227 597 -92 callsubr
        </CharString>
        <CharString name="Edotaccent">
          -72 callsubr
          61 152 -105 callgsubr
          141 588 -69 callgsubr
        </CharString>
        <CharString name="Egrave">
          -72 callsubr
          216 -20 -105 callgsubr
          -3 648 -85 callgsubr
        </CharString>
        <CharString name="Emacron">
          -72 callsubr
          72 86 6 -20 -101 callgsubr
          hintmask 10110001
          0 84 10 86 120 179 -7 0 vhcurveto
          11 10 rlineto
          21 96 29 89 29 callsubr
          -83 -7 rlineto
          -101 -27 -19 -13 -118 hhcurveto
          -44 -13 4 33 hvcurveto
          296 691 rmoveto
          hintmask 10110010
          -70 callgsubr
        </CharString>
        <CharString name="Eng">
          315 -142 -21 163 63 516 63 6 -20 hstemhm
          hintmask 11100000
          201 642 rmoveto
          -36 -74 5 0 hvcurveto
          -13 -56 6 -10 62 -8 13 -12 -5 -42 rlinecurve
          -58 -386 -9 -53 -17 -18 -41 -5 rlinecurve
          -16 -65 rlineto
          0 63 8 39 61 81 -4 0 vhcurveto
          17 63 -5 6 rlineto
          0 -31 -2 -10 -25 -7 11 34 4 vhcurveto
          40 317 rlineto
          9 hlineto
          0 98 -184 113 -237 vhcurveto
          -22 -51 -36 -36 -62 -28 -4 -11 rcurveline
          24 -41 144 43 69 73 21 133 rlinecurve
          63 433 6 40 18 17 45 6 rlinecurve
          hintmask 11010000
          12 66 rlineto
          hintmask 11100000
          0 -70 -6 -43 -30 -96 4 0 vhcurveto
          -14 -62 2 -6 rlineto
          0 22 1 12 23 7 -12 -31 -3 vhcurveto
          -37 -308 rlineto
          -9 hlineto
          0 -118 222 -88 196 vhcurveto
          0 -62 -4 -33 vhcurveto
          endchar
        </CharString>
        <CharString name="Eogonek">
          189 -241 72 169 77 209 82 192 81 -63 63 12 -20 hstemhm
          hintmask 11110000
          472 -145 -22 callsubr
          17 24 33 17 26 59 64 vhcurveto
          24 -1 15 -1 0 vvcurveto
          11 10 rlineto
          21 96 29 89 29 callsubr
          -83 -7 rlineto
          -101 -27 -19 -13 -118 hhcurveto
          -44 -13 4 33 28 12 63 11 75 hvcurveto
          2 17 29 4 28 hhcurveto
          48 77 -3 0 hvcurveto
          24 85 -6 -7 callsubr
          -82 -8 -31 vhcurveto
          -28 -42 1 -20 hhcurveto
          26 158 rlineto
          30 5 5 3 45 hhcurveto
          92 23 -6 -41 -22 -8 -35 0 hvcurveto
          90 6 rlineto
          16 93 28 88 0 vvcurveto
          hintmask 11100100
          -6 10 rlineto
          hintmask 11101000
          -8 -60 -98 -4 -138 hhcurveto
          -72 -106 3 0 hvcurveto
          -15 -59 5 -9 rlineto
          -86 callsubr
          0 84 10 86 62 78 -1 -2 61 vhcurveto
          -69 -66 -33 -44 -47 vvcurveto
          -51 -35 callsubr
          endchar
        </CharString>
        <CharString name="Eth">
          -83 callsubr
        </CharString>
        <CharString name="Euro">
          164 -9 76 98 56 58 56 -7 182 -78 78 hstemhm
          hintmask 11101000
          356 223 rmoveto
          -145 -4 rlineto
          -4 hlineto
          22 1 20 3 18 vhcurveto
          154 1 rlineto
          hintmask 11010000
          11 48 -6 9 -145 -4 rlineto
          -3 hlineto
          hintmask 11101000
          65 22 45 34 61 hhcurveto
          53 27 -19 -35 -15 -7 -38 0 hvcurveto
          82 6 rlineto
          16 83 24 65 0 vvcurveto
          -4 11 rlineto
          0 -96 20 -67 -138 -99 -66 -111 -43 vhcurveto
          -75 hlineto
          -12 -47 5 -7 rlineto
          67 hlineto
          -4 -19 -2 -20 -1 -21 rrcurveto
          -67 hlineto
          -12 -47 5 -7 rlineto
          76 hlineto
          -110 15 79 -64 121 hhcurveto
          99 72 31 0 hvcurveto
          9 9 rlineto
          11 66 22 82 0 vvcurveto
          -82 -6 rlineto
          -78 -23 -32 -28 -55 hhcurveto
          -56 -35 33 65 -12 hvcurveto
          140 1 11 48 rlineto
          endchar
        </CharString>
        <CharString name="F">
          126 0 76 -66 -21 280 82 107 183 -81 81 -63 63 12 -20 hstemhm
          hintmask 10101000
          246 262 rmoveto
          3 17 28 4 29 hhcurveto
          44 71 -3 0 hvcurveto
          23 85 -6 -7 callsubr
          -73 -8 -29 vhcurveto
          -90 1 28 175 rlineto
          30 5 5 3 45 hhcurveto
          74 21 -7 -39 -23 -8 -36 0 hvcurveto
          89 6 rlineto
          16 92 26 90 0 vvcurveto
          hintmask 10100010
          -6 10 rlineto
          hintmask 01100100
          -8 -56 -96 -4 -121 hhcurveto
          -72 -106 3 0 hvcurveto
          -15 -59 5 -9 rlineto
          30 callsubr
          25 4 -11 -43 -5 vhcurveto
          -48 -382 -7 -57 -17 -19 -56 -11 rlinecurve
          -15 -66 rlineto
          hintmask 10110000
          0 84 11 74 48 102 -4 0 vhcurveto
          19 75 -7 10 rlineto
          0 -38 -5 -25 -33 -7 17 47 6 vhcurveto
          endchar
        </CharString>
        <CharString name="G">
          -9 callsubr
          hstem
          -100 callgsubr
          -43 callsubr
          endchar
        </CharString>
        <CharString name="Gbreve">
          -9 callsubr
          61 95 59 -20 hstem
          -100 callgsubr
          -43 callsubr
          104 821 -73 callsubr
        </CharString>
        <CharString name="Gcircumflex">
          -9 callsubr
          251 -20 hstem
          -100 callgsubr
          -43 callsubr
          -44 721 -106 callsubr
        </CharString>
        <CharString name="Gcommaaccent">
          -297 -21 306 92 0 169 0 76 0 106 128 94 hstemhm
          hintmask 10110100
          -100 callgsubr
          vhcurveto
          hintmask 11001100
          -43 callsubr
          -88 -88 -99 callsubr
        </CharString>
        <CharString name="Gdotaccent">
          -9 callsubr
          49 152 hstem
          -100 callgsubr
          -43 callsubr
          99 714 -69 callgsubr
        </CharString>
        <CharString name="H">
          14 callsubr
          213 63 2 -20 26 -20 hstemhm
          hintmask 10100100
          -11 callsubr
          hintmask 10110000
          0 -81 -7 -49 -1 vhcurveto
          hintmask 10101000
          -31 -106 2 1 hhcurveto
          -15 -41 callgsubr
          hintmask 10110000
          -29 callsubr
          hintmask 10100100
          13 66 rlineto
          hintmask 10110000
          0 -99 -8 -48 vhcurveto
          hintmask 10101000
          9 callgsubr
          hintmask 01110000
          -25 callsubr
          -45 -370 -8 -70 -11 -18 -63 -13 rlinecurve
          -15 -64 rlineto
          hintmask 10110000
          -85 callsubr
          39 38 248 24 134 vhcurveto
          endchar
        </CharString>
        <CharString name="Hbar">
          14 callsubr
          79 55 79 63 2 -20 26 -20 hstemhm
          hintmask 10110010
          -11 callsubr
          hintmask 10111000
          0 -81 -7 -49 -1 vhcurveto
          hintmask 10110100
          -31 -106 2 1 hhcurveto
          -15 -41 callgsubr
          hintmask 10111000
          0 18 1 12 27 7 -11 -41 -6 vhcurveto
          -4 -27 rlineto
          -94 hlineto
          -135 hlineto
          2 12 8 54 8 10 50 8 rlinecurve
          hintmask 10110010
          13 66 rlineto
          hintmask 10111000
          0 -99 -8 -48 vhcurveto
          hintmask 10110100
          9 callgsubr
          hintmask 01111000
          -25 callsubr
          -3 -27 rlineto
          -56 -43 1 0 hvcurveto
          -8 -48 10 -10 rlineto
          90 hlineto
          -35 -286 -8 -70 -11 -18 -63 -13 rlinecurve
          -15 -64 rlineto
          hintmask 10111000
          -85 callsubr
          32 25 169 22 135 vhcurveto
          100 hlineto
          5 46 -14 14 rlineto
          0 -33 -1 -48 -1 vhcurveto
          -257 -59 rmoveto
          111 hlineto
          -9 -71 rlineto
          -5 -38 -28 -2 -47 hhcurveto
          1 -40 -41 1 -41 hhcurveto
          12 76 rlineto
          endchar
        </CharString>
        <CharString name="Hcircumflex">
          14 callsubr
          213 63 2 -20 307 -20 hstemhm
          hintmask 10110100
          -11 callsubr
          0 -81 -7 -49 -1 vhcurveto
          hintmask 10101100
          -31 -106 2 1 hhcurveto
          -15 -41 callgsubr
          hintmask 10110100
          -29 callsubr
          13 66 rlineto
          0 -99 -8 -48 vhcurveto
          hintmask 10101100
          9 callgsubr
          hintmask 01110100
          -25 callsubr
          -45 -370 -8 -70 -11 -18 -63 -13 rlinecurve
          -15 -64 rlineto
          hintmask 10110100
          -85 callsubr
          39 38 248 24 134 vhcurveto
          -363 206 -106 callsubr
        </CharString>
        <CharString name="I">
          -36 -49 callsubr
          26 -20 hstemhm
          hintmask 10001000
          288 529 rmoveto
          7 37 12 10 50 7 14 66 rcurveline
          hintmask 10100000
          0 -96 -8 -43 vhcurveto
          hintmask 10010000
          -65 callsubr
          hintmask 01100000
          -88 callsubr
          hintmask 10100000
          -90 callgsubr
          endchar
        </CharString>
        <CharString name="IJ">
          285 -132 -21 153 64 514 63 1 -20 21 -20 27 -20 hstemhm
          hintmask 11100000
          -80 callsubr
          hintmask 11001000
          -65 callsubr
          hintmask 11100000
          -88 callsubr
          -90 callgsubr
          154 -406 -55 callgsubr
          rrcurveto
          hintmask 11000100
          14 67 rlineto
          hintmask 11010000
          0 -81 -8 -67 vhcurveto
          hintmask 11100000
          -26 callsubr
          endchar
        </CharString>
        <CharString name="Iacute">
          -35 -49 callsubr
          234 -20 -84 callgsubr
          hintmask 10101000
          -90 callgsubr
          106 246 -97 callsubr
        </CharString>
        <CharString name="Ibreve">
          -35 -49 callsubr
          85 95 59 -20 hstemhm
          hintmask 10101100
          -80 callsubr
          hintmask 10011100
          -65 callsubr
          hintmask 01101100
          -88 callsubr
          hintmask 10101100
          -90 callgsubr
          -43 274 -73 callsubr
        </CharString>
        <CharString name="Icircumflex">
          -35 -49 callsubr
          hstemhm
          hintmask 10100000
          -80 callsubr
          hintmask 10010000
          -65 callsubr
          hintmask 01100000
          -88 callsubr
          hintmask 10100000
          -90 callgsubr
          -189 182 -91 callgsubr
        </CharString>
        <CharString name="Idieresis">
          -35 -49 callsubr
          88 128 -84 callgsubr
          hintmask 10101000
          -90 callgsubr
          32 182 -92 callsubr
        </CharString>
        <CharString name="Idotaccent">
          -35 -49 callsubr
          79 152 -84 callgsubr
          hintmask 10101000
          -90 callgsubr
          -54 173 -69 callgsubr
        </CharString>
        <CharString name="Igrave">
          -35 -49 callsubr
          234 -20 -84 callgsubr
          hintmask 10101000
          -90 callgsubr
          -195 233 -85 callgsubr
        </CharString>
        <CharString name="Imacron">
          -35 -49 callsubr
          90 86 6 -20 -84 callgsubr
          hintmask 10100100
          -90 callgsubr
          101 276 rmoveto
          hintmask 10101000
          -70 callgsubr
        </CharString>
        <CharString name="Iogonek">
          -35 -242 72 170 64 514 63 2 -20 26 -20 hstemhm
          hintmask 11001000
          274 32 callgsubr
          17 26 63 68 vhcurveto
          24 -1 20 -1 0 vvcurveto
          16 63 -3 7 rlineto
          0 -20 -3 -22 -22 -9 9 31 41 39 245 24 139 vhcurveto
          7 37 12 10 50 7 14 66 rcurveline
          hintmask 11100000
          0 -96 -8 -43 vhcurveto
          hintmask 11010000
          -65 callsubr
          hintmask 11100000
          -88 callsubr
          0 82 9 55 vhcurveto
          41 hlineto
          -72 -69 -35 -44 -48 vvcurveto
          -51 -35 callsubr
          endchar
        </CharString>
        <CharString name="Itilde">
          -35 -49 callsubr
          113 7 callgsubr
          hintmask 10101010
          -80 callsubr
          hintmask 10011010
          -65 callsubr
          hintmask 01101010
          -88 callsubr
          hintmask 10100110
          -90 callgsubr
          -178 185 rmoveto
          0 46 56 24 vhcurveto
          hintmask 10101010
          -79 callgsubr
          hintmask 10100110
          -37 callsubr
        </CharString>
        <CharString name="J">
          -67 -132 -21 731 63 1 -20 28 -20 hstemhm
          hintmask 10010000
          89 123 -55 callgsubr
          14 67 rcurveline
          hintmask 10100000
          0 -81 -8 -67 vhcurveto
          hintmask 11000000
          -26 callsubr
          endchar
        </CharString>
        <CharString name="Jcircumflex">
          -67 -132 -21 731 63 1 -20 282 -20 hstemhm
          hintmask 10110000
          89 123 -55 callgsubr
          14 67 rcurveline
          0 -81 -8 -67 vhcurveto
          hintmask 11010000
          -26 callsubr
          -36 183 -106 callsubr
        </CharString>
        <CharString name="K">
          249 0 64 -58 -21 593 63 8 -20 hstemhm
          hintmask 10010000
          -45 callgsubr
          hintmask 01100000
          -73 callgsubr
          endchar
        </CharString>
        <CharString name="Kcommaaccent">
          251 -297 -21 318 64 514 63 8 -32 callsubr
          -45 callgsubr
          hintmask 11100000
          -73 callgsubr
          -56 -437 -99 callsubr
        </CharString>
        <CharString name="L">
          125 21 callsubr
          178 hmoveto
          -87 callsubr
          hintmask 10100000
          28 callsubr
          hintmask 10010000
          -34 callgsubr
          hintmask 01100000
          -68 callgsubr
          hintmask 10100000
          28 callgsubr
          endchar
        </CharString>
        <CharString name="Lacute">
          126 -3 callgsubr
          234 -20 hstemhm
          hintmask 10101000
          178 hmoveto
          -87 callsubr
          28 callsubr
          hintmask 10011000
          -34 callgsubr
          hintmask 01101000
          -68 callgsubr
          hintmask 10101000
          28 callgsubr
          226 775 -97 callsubr
        </CharString>
        <CharString name="Lcaron">
          145 21 callsubr
          547 640 rmoveto
          -100 -14 rlineto
          0 10 -113 -3 -114 vhcurveto
          15 -4 48 19 rlineto
          23 107 15 109 0 vvcurveto
          -377 -630 rmoveto
          -87 callsubr
          hintmask 10100000
          28 callsubr
          hintmask 10010000
          -34 callgsubr
          hintmask 01100000
          -68 callgsubr
          hintmask 10100000
          28 callgsubr
          endchar
        </CharString>
        <CharString name="Lcommaaccent">
          126 -297 -21 267 51 0 77 501 63 2 -20 26 -20 hstemhm
          hintmask 10100100
          178 hmoveto
          -87 callsubr
          hintmask 11010000
          28 callsubr
          hintmask 11001000
          -34 callgsubr
          hintmask 10110000
          -68 callgsubr
          28 callgsubr
          -16 -100 rmoveto
          20 -16 15 -26 -27 vvcurveto
          -34 -29 -41 -39 -27 vhcurveto
          -17 vlineto
          37 -30 rlineto
          78 43 69 67 71 vvcurveto
          hintmask 11010000
          53 -29 33 -40 -25 -30 -16 -19 -24 vhcurveto
          endchar
        </CharString>
        <CharString name="Ldot">
          155 0 77 -66 -6 callsubr
          158 24 63 2 -20 26 -20 hstemhm
          hintmask 10100100
          178 hmoveto
          -87 callsubr
          hintmask 10110000
          28 callsubr
          hintmask 10101000
          -34 callgsubr
          hintmask 01110000
          -68 callgsubr
          hintmask 10110000
          28 callgsubr
          287 396 -30 callsubr
        </CharString>
        <CharString name="Lslash">
          126 21 callsubr
          178 hmoveto
          114 155 -8 0 hvcurveto
          11 10 rlineto
          25 117 29 108 -4 callsubr
          9 -84 -8 rlineto
          -128 -29 -22 -23 -91 hhcurveto
          -42 -11 9 32 21 12 91 15 94 hvcurveto
          150 75 -18 61 -8 4 -111 -55 6 37 6 34 5 25 rlinecurve
          11 60 11 7 62 8 15 69 rcurveline
          hintmask 10100000
          28 callsubr
          hintmask 10010000
          -34 callgsubr
          hintmask 01100000
          0 19 1 10 27 7 -10 -42 -5 vhcurveto
          -22 -174 -107 -53 18 -62 9 -2 70 34 -16 -127 -7 -58 -17 -19 -50 -8 rlinecurve
          -16 -67 rlineto
          hintmask 10100000
          28 callgsubr
          endchar
        </CharString>
        <CharString name="M">
          423 0 64 -59 -21 599 59 5 -42 callsubr
          397 -8 rmoveto
          79 186 77 170 46 101 rrcurveto
          9 hlineto
          0 -19 -302 -5 -39 vhcurveto
          -4 -31 -17 -14 -38 -5 -16 -66 rcurveline
          2 7 106 6 30 hhcurveto
          41 58 -3 0 hvcurveto
          16 64 -3 5 rlineto
          0 -15 -2 -13 -30 -8 19 73 3 vhcurveto
          3 119 11 212 5 43 4 37 16 12 55 4 14 60 rcurveline
          hintmask 10010000
          -4 4 rlineto
          hintmask 10100000
          0 -60 -4 -38 -1 vhcurveto
          -39 -2 -51 4 -30 -1 rrcurveto
          -88 -224 -84 -189 0 vvcurveto
          -8 hlineto
          0 -40 188 -31 227 vhcurveto
          0 -66 -4 -41 -35 -87 5 0 vhcurveto
          -16 -58 5 -6 rlineto
          52 -4 15 -11 -24 vvcurveto
          -25 -73 -333 -12 -55 vhcurveto
          -11 -49 -17 -18 -38 -5 -15 -66 rcurveline
          0 60 8 38 32 83 -4 0 vhcurveto
          19 64 -5 5 rlineto
          0 -24 -1 -9 -19 -8 8 18 16 63 343 0 vhcurveto
          8 hlineto
          hintmask 01100000
          25 -123 29 -147 35 -195 rrcurveto
          endchar
        </CharString>
        <CharString name="N">
          315 41 callsubr
          6 -20 hstemhm
          hintmask 11100000
          -97 callgsubr
          hintmask 11010000
          13 66 rlineto
          hintmask 11100000
          -75 callsubr
          endchar
        </CharString>
        <CharString name="Nacute">
          14 callgsubr
          216 -20 hstem
          -97 callgsubr
          13 66 rlineto
          -75 callsubr
          55 545 -97 callsubr
        </CharString>
        <CharString name="Ncaron">
          14 callgsubr
          224 -20 hstem
          -97 callgsubr
          13 66 rlineto
          -75 callsubr
          64 631 -92 callgsubr
        </CharString>
        <CharString name="Ncommaaccent">
          316 -297 -21 318 63 515 63 6 -20 hstemhm
          hintmask 11100000
          -97 callgsubr
          hintmask 11010000
          13 66 rlineto
          hintmask 11100000
          -75 callsubr
          -269 -330 -99 callsubr
        </CharString>
        <CharString name="Ntilde">
          14 callgsubr
          64 96 -62 96 18 -20 hstemhm
          hintmask 11101000
          -97 callgsubr
          13 66 rlineto
          -75 callsubr
          -217 457 36 callgsubr
          hintmask 11110100
          -50 callsubr
          hintmask 11101000
          -36 callgsubr
        </CharString>
        <CharString name="O">
          262 -12 85 486 94 hstem
          -102 callsubr
          endchar
        </CharString>
        <CharString name="OE">
          517 -11 90 -77 77 203 87 89 178 -78 78 -78 91 5 -20 hstemhm
          hintmask 10101000
          558 139 rmoveto
          19 140 75 6 rlineto
          47 77 -3 0 hvcurveto
          25 86 -7 9 rlineto
          0 -81 -8 -33 vhcurveto
          -88 1 26 155 rlineto
          30 4 4 3 45 hhcurveto
          92 22 -7 -40 -21 -8 -35 0 hvcurveto
          92 6 rlineto
          17 93 28 89 0 vvcurveto
          hintmask 10100010
          -7 11 rlineto
          hintmask 10110000
          -11 -81 -110 -7 -112 hhcurveto
          hintmask 10100100
          -84 -77 13 -65 hhcurveto
          -210 -136 -157 -236 -165 99 -102 153 hvcurveto
          hintmask 01110000
          61 71 13 86 hhcurveto
          121 181 -9 0 hvcurveto
          11 11 rlineto
          21 96 28 90 29 callsubr
          -85 -7 rlineto
          -100 -26 -20 -14 -115 hhcurveto
          -55 -6 7 53 7 hvcurveto
          -251 -66 rmoveto
          -77 -42 67 118 188 70 115 100 95 28 -28 -79 -9 hvcurveto
          -32 -252 rlineto
          -92 -12 -38 -37 -83 hhcurveto
          endchar
        </CharString>
        <CharString name="Oacute">
          -21 callgsubr
          204 -20 hstem
          -102 callsubr
          243 787 -97 callsubr
        </CharString>
        <CharString name="Obreve">
          -21 callgsubr
          59 95 68 -20 hstem
          -102 callsubr
          94 819 -93 callsubr
          endchar
        </CharString>
        <CharString name="Ocircumflex">
          -21 callgsubr
          hstem
          -102 callsubr
          -43 723 -91 callgsubr
        </CharString>
        <CharString name="Odieresis">
          -21 callgsubr
          58 128 hstem
          -102 callsubr
          178 723 -92 callsubr
        </CharString>
        <CharString name="Ograve">
          -21 callgsubr
          204 -20 hstem
          -102 callsubr
          -39 774 -85 callgsubr
        </CharString>
        <CharString name="Ohungarumlaut">
          -21 callgsubr
          204 -20 hstem
          -102 callsubr
          135 806 -71 callgsubr
        </CharString>
        <CharString name="Omacron">
          -21 callgsubr
          60 86 27 callgsubr
          -102 callsubr
          252 817 rmoveto
          hintmask 11100000
          -70 callgsubr
        </CharString>
        <CharString name="Omega">
          440 0 80 -64 -21 562 97 hstemhm
          hintmask 10100000
          766 14 rmoveto
          11 82 25 117 0 vvcurveto
          -73 -7 -22 -89 -26 -31 -53 -3 rlinecurve
          -78 -5 rlineto
          115 88 68 118 130 vvcurveto
          143 -108 97 -158 -191 -148 -143 -187 -92 36 -88 66 -65 vhcurveto
          -69 4 -55 3 -18 33 3 94 rlinecurve
          -72 -7 rlineto
          0 -4 -110 -9 -82 vhcurveto
          hintmask 01100000
          15 -19 263 11 54 -9 23 51 rlineto
          -53 53 -29 88 94 vvcurveto
          179 67 95 105 78 44 -65 -113 -130 -45 -105 -110 -97 vhcurveto
          10 -49 56 8 263 -11 rlineto
          endchar
        </CharString>
        <CharString name="Oslash">
          261 -86 -21 95 85 486 94 76 -76 callgsubr
          endchar
        </CharString>
        <CharString name="Oslashacute">
          261 -86 -21 95 85 486 94 209 -76 callgsubr
          330 519 -97 callsubr
        </CharString>
        <CharString name="Otilde">
          -21 callgsubr
          52 96 -62 96 18 -32 callsubr
          -102 callsubr
          -25 699 36 callgsubr
          hintmask 11101000
          -50 callsubr
          hintmask 11010000
          -36 callgsubr
        </CharString>
        <CharString name="P">
          170 0 64 -51 -21 571 83 -68 68 -3 -20 hstemhm
          hintmask 01010000
          86 584 rmoveto
          5 -8 rlineto
          0 21 2 13 23 5 -12 -42 -5 vhcurveto
          -47 -383 -7 -56 -16 -17 -54 -10 rlinecurve
          -15 -66 rlineto
          hintmask 10100000
          1 1 112 7 49 hhcurveto
          36 86 -3 0 hvcurveto
          17 64 -3 6 rlineto
          0 -26 -3 -16 -37 -9 15 46 7 vhcurveto
          15 103 rlineto
          87 hlineto
          131 124 120 133 87 -61 78 -160 hvcurveto
          0 -104 -5 -35 vhcurveto
          hintmask 10001000
          -41 -58 2 -22 hhcurveto
          152 -328 rmoveto
          11 80 14 82 13 69 rrcurveto
          hintmask 10100000
          15 2 1 2 19 hhcurveto
          88 41 -31 -71 -85 -36 -57 -71 -16 hvcurveto
          endchar
        </CharString>
        <CharString name="Q">
          266 -227 119 96 85 486 94 hstem
          280 -12 rmoveto
          -183 191 51 -32 85 hhcurveto
          27 113 82 0 hvcurveto
          -6 41 -7 6 rlineto
          0 -39 -10 -44 -71 -78 36 78 -94 vhcurveto
          3 vlineto
          142 51 91 142 188 vvcurveto
          164 -99 99 -157 -212 -141 -162 -236 -163 98 -102 150 -2 vhcurveto
          31 85 rmoveto
          -79 -47 70 118 188 67 110 104 80 49 -70 -118 -190 -68 -108 -106 hvcurveto
          endchar
        </CharString>
        <CharString name="R">
          233 15 callgsubr
          hstemhm
          hintmask 10010000
          -89 callgsubr
          hintmask 01100000
          -81 callgsubr
          endchar
        </CharString>
        <CharString name="Racute">
          236 15 callgsubr
          211 -20 hstemhm
          hintmask 10011000
          -89 callgsubr
          hintmask 01101000
          -81 callgsubr
          169 445 -97 callsubr
        </CharString>
        <CharString name="Rcaron">
          236 15 callgsubr
          219 -20 hstemhm
          hintmask 10011000
          -89 callgsubr
          hintmask 01101000
          -81 callgsubr
          178 531 -92 callgsubr
        </CharString>
        <CharString name="Rcommaaccent">
          236 -297 -21 338 -21 64 190 325 68 hstem
          -89 callgsubr
          -81 callgsubr
          -141 -430 -99 callsubr
        </CharString>
        <CharString name="S">
          133 26 callsubr
          -99 callgsubr
          endchar
        </CharString>
        <CharString name="Sacute">
          9 callsubr
          204 -20 -99 callgsubr
          290 787 -97 callsubr
        </CharString>
        <CharString name="Scaron">
          9 callsubr
          212 -20 -99 callgsubr
          299 873 -92 callgsubr
        </CharString>
        <CharString name="Scedilla">
          134 20 callsubr
          138 17 callgsubr
          hstem
          158 -88 callgsubr
          13 34 rlineto
          148 14 92 84 117 vvcurveto
          107 -115 41 -78 45 vhcurveto
          -40 24 -30 25 35 vvcurveto
          46 43 34 58 58 26 -19 -48 -18 -7 -34 0 vhcurveto
          8 -6 75 6 rlineto
          17 91 27 80 -4 callsubr
          13 rlineto
          0 -76 26 -96 -161 -113 -91 -124 -94 83 -43 72 -39 vhcurveto
          56 -30 48 -28 -44 vvcurveto
          -51 -45 -34 -64 -81 -20 34 107 13 vhcurveto
          -83 -7 rlineto
          -11 -83 -27 -86 0 vvcurveto
          7 -14 rlineto
          0 71 -36 99 -2 vhcurveto
          endchar
        </CharString>
        <CharString name="Scircumflex">
          9 callsubr
          251 -20 -99 callgsubr
          7 721 -106 callsubr
        </CharString>
        <CharString name="Scommaaccent">
          134 -297 -21 306 87 487 91 -99 callgsubr
          -67 -88 -99 callsubr
        </CharString>
        <CharString name="T">
          161 0 65 -50 -21 572 76 11 -28 callgsubr
          -31 callsubr
          hintmask 10100000
          0 109 6 54 51 118 -4 0 vhcurveto
          -74 callsubr
          hintmask 10010000
          -9 11 rlineto
          hintmask 10100000
          19 callsubr
          hintmask 10010000
          -94 11 rlineto
          hintmask 10100000
          -58 callsubr
          endchar
        </CharString>
        <CharString name="Tbar">
          163 0 65 -50 -21 283 55 234 76 11 -20 hstemhm
          hintmask 01110000
          -31 callsubr
          hintmask 10110000
          0 109 6 54 51 118 -29 callgsubr
          -23 -3 -30 -32 -13 15 36 16 8 66 11 79 vhcurveto
          95 hlineto
          4 46 -14 14 -76 -3 13 91 15 95 9 46 rlinecurve
          97 -4 2 -11 -1 -122 83 6 rcurveline
          0 5 108 11 99 vhcurveto
          hintmask 10101000
          -9 11 rlineto
          hintmask 10110000
          19 callsubr
          hintmask 10101000
          -94 11 rlineto
          hintmask 10110000
          -58 callsubr
          -29 -234 -93 1 -7 -48 10 -9 rlineto
          83 hlineto
          endchar
        </CharString>
        <CharString name="Tcaron">
          163 0 65 -50 -21 572 76 223 -20 hstemhm
          hintmask 01110000
          -31 callsubr
          hintmask 10110000
          0 109 6 54 51 118 -4 0 vhcurveto
          -74 callsubr
          -9 11 19 callsubr
          -94 11 -58 callsubr
          247 295 -92 callgsubr
        </CharString>
        <CharString name="Tcedilla">
          163 20 callsubr
          150 65 501 76 11 -20 hstemhm
          hintmask 11110000
          188 -88 callgsubr
          17 44 rlineto
          57 -1 77 -3 0 vvcurveto
          -74 callsubr
          hintmask 11101000
          -9 11 rlineto
          hintmask 11110000
          19 callsubr
          hintmask 11101000
          -94 11 rlineto
          hintmask 11110000
          -58 callsubr
          -49 -401 -11 -86 -13 -12 -85 -8 rlinecurve
          -16 -65 rlineto
          0 89 5 57 1 vhcurveto
          endchar
        </CharString>
        <CharString name="Thorn">
          167 0 65 -53 -21 440 81 65 65 1 -20 26 -20 hstemhm
          hintmask 10100100
          291 536 rmoveto
          5 30 11 8 52 8 13 67 rcurveline
          hintmask 10110000
          0 -97 -7 -43 vhcurveto
          hintmask 10101000
          -46 -63 1 -27 hhcurveto
          -15 -59 5 -8 rlineto
          hintmask 01110000
          0 20 1 12 28 6 -11 -41 -5 vhcurveto
          -48 -385 -7 -56 -16 -16 -57 -12 rlinecurve
          -15 -65 rlineto
          hintmask 10110000
          0 84 9 54 45 105 -19 callgsubr
          16 64 -4 7 rlineto
          0 -20 -3 -26 -29 -6 9 40 5 vhcurveto
          4 30 rlineto
          68 hlineto
          142 118 92 124 100 -67 52 -134 hvcurveto
          -72 hlineto
          -16 -95 rmoveto
          11 2 5 3 17 hhcurveto
          83 38 -27 -62 -68 -31 -45 -64 -11 hvcurveto
          -19 -35 7 7 -24 hvcurveto
          endchar
        </CharString>
        <CharString name="U">
          243 -15 callsubr
          7 -42 callsubr
          256 528 rmoveto
          5 35 14 13 41 5 15 67 rcurveline
          hintmask 11000000
          0 -76 -7 -40 -56 -82 3 0 vhcurveto
          -17 -64 2 -4 rlineto
          30 callsubr
          27 4 -10 -44 -5 vhcurveto
          -40 -319 rlineto
          -2 -14 -1 -13 -13 vvcurveto
          -116 68 -61 137 159 94 80 151 19 vhcurveto
          39 313 4 33 8 7 50 10 rlinecurve
          hintmask 10100000
          14 66 rlineto
          hintmask 11000000
          0 -67 -7 -50 -36 -76 3 0 vhcurveto
          -16 -64 2 -4 rlineto
          0 22 2 10 24 4 -10 -44 -4 vhcurveto
          0 -27 -249 -9 -66 vhcurveto
          -89 -11 -44 -43 -77 hhcurveto
          -67 -35 42 78 1 hvcurveto
          11 1 15 1 14 vhcurveto
          endchar
        </CharString>
        <CharString name="Uacute">
          -15 callsubr
          216 -20 hstem
          -107 callgsubr
          331 538 -97 callsubr
        </CharString>
        <CharString name="Ubreve">
          -15 callsubr
          76 95 68 -20 hstem
          -107 callgsubr
          174 575 -93 callsubr
          endchar
        </CharString>
        <CharString name="Ucircumflex">
          -15 callsubr
          hstem
          -107 callgsubr
          41 474 -91 callgsubr
        </CharString>
        <CharString name="Udieresis">
          -15 callsubr
          70 128 hstem
          -107 callgsubr
          261 474 -92 callsubr
        </CharString>
        <CharString name="Ugrave">
          -15 callsubr
          216 -20 hstem
          -107 callgsubr
          31 525 -85 callgsubr
        </CharString>
        <CharString name="Uhungarumlaut">
          -15 callsubr
          216 -20 hstem
          -107 callgsubr
          229 557 -71 callgsubr
        </CharString>
        <CharString name="Umacron">
          -15 callsubr
          72 86 27 callgsubr
          -107 callgsubr
          330 568 rmoveto
          hintmask 11100000
          -70 callgsubr
        </CharString>
        <CharString name="Uogonek">
          -241 72 157 89 501 63 7 -32 callsubr
          464 -145 rmoveto
          0 -39 -24 -33 -24 -17 17 24 34 26 38 90 96 vhcurveto
          47 51 29 59 9 69 39 313 rcurveline
          3 31 8 8 51 11 14 66 rcurveline
          hintmask 11100000
          0 -67 -7 -50 -36 -76 3 0 vhcurveto
          -16 -64 2 -4 rlineto
          0 22 2 10 24 4 -9 -45 -4 vhcurveto
          0 -27 -249 -9 -66 vhcurveto
          -90 -11 -44 -42 -77 hhcurveto
          -67 -35 41 79 1 hvcurveto
          10 1 15 1 15 vhcurveto
          43 291 5 35 14 13 41 5 rlinecurve
          hintmask 11010000
          15 67 rlineto
          hintmask 11100000
          0 -76 -7 -40 -56 -82 3 0 vhcurveto
          -17 -64 2 -4 rlineto
          30 callsubr
          26 5 -9 -45 -5 vhcurveto
          -40 -319 rlineto
          -2 -14 -1 -13 -13 vvcurveto
          -117 69 -60 136 29 29 3 6 24 vhcurveto
          -70 -71 -26 -43 -43 vvcurveto
          -50 40 -31 67 vhcurveto
          49 21 callgsubr
          endchar
        </CharString>
        <CharString name="Uring">
          -15 callsubr
          37 186 -133 -20 98 55 hstemhm
          hintmask 11011000
          -107 callgsubr
          184 494 -26 callgsubr
          hintmask 11100000
          -13 -53 rmoveto
          67 41 -57 callsubr
        </CharString>
        <CharString name="Utilde">
          -15 callsubr
          95 7 callgsubr
          hintmask 11011000
          -107 callgsubr
          45 477 -79 callsubr
          endchar
        </CharString>
        <CharString name="V">
          215 6 -21 594 62 9 -20 hstemhm
          hintmask 11000000
          104 516 rmoveto
          33 -191 47 -340 0 vvcurveto
          165 20 235 522 18 39 9 8 32 5 rlinecurve
          15 65 rlineto
          0 -62 -3 -51 -61 -82 6 0 vhcurveto
          -14 -61 4 -7 rlineto
          38 hlineto
          32 13 -9 -19 -31 -127 -291 -45 -100 hvcurveto
          -15 hlineto
          0 -37 341 65 vvcurveto
          31 12 10 67 6 vhcurveto
          12 60 rlineto
          hintmask 10100000
          -3 8 rlineto
          hintmask 11000000
          0 -95 -9 -71 -42 -79 45 callsubr
          -59 3 -7 39 -2 19 -18 6 -42 rlinecurve
          endchar
        </CharString>
        <CharString name="W">
          542 6 -21 594 62 9 -20 hstemhm
          hintmask 11000000
          681 5 rmoveto
          231 522 17 38 10 9 30 5 rlinecurve
          14 65 rlineto
          0 -59 -3 -48 -59 -79 6 0 vhcurveto
          -15 -61 4 -7 rlineto
          36 hlineto
          32 12 -6 -18 -26 -114 -274 -54 -126 hvcurveto
          -14 hlineto
          0 -36 340 66 vvcurveto
          32 13 9 66 6 vhcurveto
          12 60 rlineto
          hintmask 10100000
          -4 8 rlineto
          hintmask 11000000
          0 -86 -9 -73 -44 -87 3 0 vhcurveto
          -16 -59 4 -7 45 -1 17 -11 3 -33 rlinecurve
          3 -8 3 -1 -3 -33 -42 -99 -62 -152 -46 -111 rrcurveto
          -14 hlineto
          0 -35 335 71 vvcurveto
          31 14 10 64 6 vhcurveto
          12 60 rlineto
          hintmask 10100000
          -4 8 rlineto
          hintmask 11000000
          0 -81 -9 -79 -40 -76 45 callsubr
          -59 4 -7 36 -3 17 -16 8 -43 rlinecurve
          30 -191 41 -340 0 vvcurveto
          160 20 140 341 rlineto
          10 hlineto
          38 -361 rlineto
          endchar
        </CharString>
        <CharString name="Wacute">
          15 callsubr
          216 -20 -103 callgsubr
          177 790 -97 callsubr
        </CharString>
        <CharString name="Wcircumflex">
          15 callsubr
          -103 callgsubr
          -117 726 -91 callgsubr
        </CharString>
        <CharString name="Wdieresis">
          15 callsubr
          65 128 -103 callgsubr
          103 721 -92 callsubr
        </CharString>
        <CharString name="Wgrave">
          15 callsubr
          216 -20 -103 callgsubr
          -126 777 -85 callgsubr
        </CharString>
        <CharString name="X">
          271 1 58 -45 -21 590 58 4 -20 24 -42 callsubr
          148 199 rmoveto
          -55 -65 -56 -53 -45 -16 -12 -59 rcurveline
          3 -10 rlineto
          0 74 5 37 34 92 -7 0 vhcurveto
          13 61 -3 6 rlineto
          -30 2 -13 8 17 vvcurveto
          16 9 16 32 39 vhcurveto
          76 95 65 -130 rlineto
          7 -13 4 -11 -9 vvcurveto
          -20 -18 -9 -38 -3 vhcurveto
          -12 -59 rlineto
          hintmask 01100000
          4 -7 rlineto
          hintmask 10010000
          0 125 8 50 40 84 -19 callgsubr
          14 68 -54 4 -32 25 -30 55 rlinecurve
          -92 172 122 150 51 61 27 25 62 20 rlinecurve
          13 60 -3 7 rlineto
          hintmask 10100000
          0 -62 -4 -47 vhcurveto
          hintmask 10010000
          27 callsubr
          -12 -57 rlineto
          hintmask 10100000
          -2 1 -2 -1 vvcurveto
          31 -2 13 -6 -14 vvcurveto
          -24 -73 -84 -41 -55 vhcurveto
          -38 76 -28 55 22 vvcurveto
          20 19 10 42 2 vhcurveto
          12 57 rlineto
          hintmask 10001000
          -3 9 rlineto
          hintmask 10100000
          0 -90 -8 -60 -72 -81 45 callsubr
          -63 2 -5 52 -9 33 -18 29 -56 rlinecurve
          83 -163 rlineto
          endchar
        </CharString>
        <CharString name="Y">
          190 -2 callgsubr
          24 -42 callsubr
          261 551 rmoveto
          21 12 8 48 3 vhcurveto
          13 57 rlineto
          hintmask 10001000
          -4 9 rlineto
          hintmask 01100000
          0 -106 -8 -50 -38 -86 3 0 vhcurveto
          -16 -63 3 -5 58 -12 16 -27 22 -62 rlinecurve
          71 -190 17 -44 2 -24 -4 -35 rlinecurve
          -4 -31 -7 -67 -15 -17 -77 -11 rlinecurve
          -15 -67 rlineto
          hintmask 10010000
          0 98 11 56 48 111 -29 callgsubr
          -26 -3 -22 -36 -8 17 49 7 vhcurveto
          10 75 2 29 23 36 114 179 rcurveline
          49 77 27 33 56 18 15 60 rcurveline
          -3 7 rlineto
          hintmask 10100000
          0 -56 -4 -44 vhcurveto
          hintmask 10010000
          25 callsubr
          hintmask 10100000
          2 -5 rlineto
          33 -2 13 -6 -13 vvcurveto
          -12 -7 -18 -12 -20 vhcurveto
          -97 -168 rlineto
          -8 hlineto
          -7 22 -49 157 28 vvcurveto
          endchar
        </CharString>
        <CharString name="Yacute">
          4 callsubr
          232 -20 -94 callsubr
          266 224 -97 callsubr
        </CharString>
        <CharString name="Ycircumflex">
          4 callsubr
          hstemhm
          hintmask 01100000
          261 551 rmoveto
          21 12 8 48 3 vhcurveto
          13 57 -4 9 rlineto
          0 -106 -8 -50 -38 -86 3 0 vhcurveto
          -16 -63 3 -5 58 -12 16 -27 22 -62 rlinecurve
          71 -190 17 -44 2 -24 -4 -35 rlinecurve
          -4 -31 -7 -67 -15 -17 -77 -11 rlinecurve
          -15 -67 rlineto
          hintmask 10010000
          0 98 11 56 48 111 -29 callgsubr
          -26 -3 -22 -36 -8 17 49 7 vhcurveto
          10 75 2 29 23 36 114 179 rcurveline
          49 77 27 33 56 18 15 60 rcurveline
          -3 7 rlineto
          hintmask 10100000
          0 -56 -4 -44 vhcurveto
          hintmask 10010000
          25 callsubr
          hintmask 10100000
          2 -5 rlineto
          33 -2 13 -6 -13 vvcurveto
          -12 -7 -18 -12 -20 vhcurveto
          -97 -168 rlineto
          -8 hlineto
          -7 22 -49 157 28 vvcurveto
          -29 160 -91 callgsubr
        </CharString>
        <CharString name="Ydieresis">
          4 callsubr
          81 128 -94 callsubr
          192 155 -92 callsubr
        </CharString>
        <CharString name="Ygrave">
          4 callsubr
          232 -20 -94 callsubr
          -43 211 -85 callgsubr
        </CharString>
        <CharString name="Z">
          172 0 76 -60 -21 437 209 13 -28 callgsubr
          487 16 rmoveto
          15 97 37 131 0 vvcurveto
          -84 -7 -28 -105 -38 -45 -64 -5 rlinecurve
          -151 -11 56 76 164 224 192 228 rlinecurve
          -12 40 -283 4 rlineto
          hintmask 10010000
          -171 11 -12 -10 rlineto
          -13 -92 -29 -123 0 vvcurveto
          84 6 19 94 24 27 82 6 rlinecurve
          123 8 -403 -531 rlineto
          hintmask 01100000
          18 -44 75 8 380 -6 rlineto
          endchar
        </CharString>
        <CharString name="Zacute">
          0 callgsubr
          216 -20 -82 callsubr
          46 778 -97 callsubr
        </CharString>
        <CharString name="Zcaron">
          0 callgsubr
          224 -20 -82 callsubr
          51 864 -92 callgsubr
        </CharString>
        <CharString name="Zdotaccent">
          0 callgsubr
          61 152 -82 callsubr
          -109 705 -69 callgsubr
        </CharString>
        <CharString name="a">
          105 -44 callgsubr
          11 -42 callsubr
          384 -1 callgsubr
          -78 callgsubr
          rlineto
          hintmask 11000000
          -87 18 rlineto
          -117 -124 -171 -161 -92 42 -54 72 hvcurveto
          53 37 48 61 60 108 8 -1 rcurveline
          -10 -40 -24 -108 -19 vvcurveto
          -44 callsubr
          38 42 31 99 94 vhcurveto
          -16 -43 callgsubr
          -42 -48 -10 -8 -8 hhcurveto
          -221 hmoveto
          43 callsubr
          -11 -18 30 hvcurveto
          -133 -50 -72 -120 -30 hhcurveto
          endchar
        </CharString>
        <CharString name="a.sups">
          -75 callgsubr
        </CharString>
        <CharString name="aacute">
          105 -44 callgsubr
          271 -20 hstem
          -106 callgsubr
          265 561 -95 callgsubr
          endchar
        </CharString>
        <CharString name="abreve">
          105 -44 callgsubr
          77 95 68 -20 hstem
          -106 callgsubr
          134 533 -93 callsubr
          endchar
        </CharString>
        <CharString name="acircumflex">
          105 -44 callgsubr
          264 -20 hstem
          -106 callgsubr
          -6 430 -106 callsubr
        </CharString>
        <CharString name="acute">
          -4 544 -21 214 -20 hstem
          356 666 -95 callgsubr
          endchar
        </CharString>
        <CharString name="acute.cap">
          -4 718 -21 160 -20 hstem
          374 775 -97 callsubr
        </CharString>
        <CharString name="adieresis">
          105 -44 callgsubr
          98 128 hstem
          -106 callgsubr
          217 459 -91 callsubr
          endchar
        </CharString>
        <CharString name="ae">
          247 -12 97 -97 117 282 86 -7 -42 callsubr
          11 callsubr
          hintmask 10010000
          -50 callgsubr
          hintmask 01100000
          -13 callgsubr
          318 280 -28 callsubr
        </CharString>
        <CharString name="aeacute">
          247 -12 97 -97 117 282 86 -7 -20 291 -20 hstemhm
          hintmask 10101000
          11 callsubr
          hintmask 10011000
          -50 callgsubr
          hintmask 01101000
          -13 callgsubr
          371 561 -95 callgsubr
          -52 -267 -28 callsubr
        </CharString>
        <CharString name="agrave">
          105 -44 callgsubr
          271 -20 hstem
          -106 callgsubr
          -7 547 -81 callsubr
          endchar
        </CharString>
        <CharString name="amacron">
          105 -44 callgsubr
          116 85 27 callgsubr
          -106 callgsubr
          272 568 rmoveto
          hintmask 11100000
          -59 callgsubr
        </CharString>
        <CharString name="ampersand">
          183 -12 85 222 81 86 192 -89 89 hstem
          198 468 rmoveto
          60 42 37 66 45 25 -22 -37 -13 -7 -33 0 vhcurveto
          80 5 5 36 20 72 17 46 rlinecurve
          -6 10 rlineto
          15 -51 -64 10 -45 hhcurveto
          -125 -111 -89 -104 -62 32 -51 60 -29 hvcurveto
          -91 -30 -59 -67 -74 vvcurveto
          -98 82 -62 125 141 131 111 121 26 -9 27 -14 15 vhcurveto
          5 7 rlineto
          71 hlineto
          44 20 12 37 19 hvcurveto
          41 81 -22 16 -44 -38 -28 -14 -44 -3 rlinecurve
          -248 -19 rlineto
          -61 -42 42 59 hvcurveto
          213 -255 rmoveto
          -83 -63 -57 -88 -65 -44 42 60 51 27 35 71 34 vhcurveto
          110 hlineto
          31 21 -34 -48 hvcurveto
          endchar
        </CharString>
        <CharString name="aogonek">
          105 -241 72 178 -21 399 79 11 -32 callsubr
          407 -145 -22 callsubr
          18 24 51 48 54 147 137 vhcurveto
          -18 38 -38 callgsubr
          -41 -48 -10 -9 -8 hhcurveto
          -4 4 rlineto
          -78 callgsubr
          rlineto
          hintmask 11100000
          -87 18 rlineto
          -117 -124 -171 -161 -92 42 -54 72 hvcurveto
          53 37 48 61 60 108 8 -1 rcurveline
          -10 -40 -24 -108 -19 vvcurveto
          -22 10 -12 21 -3 vhcurveto
          -60 -62 -32 -42 -44 vvcurveto
          -52 -35 callsubr
          -255 279 rmoveto
          -12 -10 37 48 -20 callsubr
          25 33 -11 -18 30 hvcurveto
          -133 -50 -72 -120 -30 hhcurveto
          endchar
        </CharString>
        <CharString name="approxequal">
          100 96 97 -94 -21 57 97 44 97 -58 97 18 -20 hstemhm
          hintmask 10001000
          75 259 rmoveto
          0 54 56 27 vhcurveto
          hintmask 10010100
          41 118 -39 47 hhcurveto
          19 4 101 102 2 10 -31 38 rlineto
          -11 hlineto
          0 -54 -57 -26 vhcurveto
          hintmask 01101000
          -41 -117 34 callsubr
          -11 -181 rmoveto
          0 54 57 26 vhcurveto
          hintmask 10010100
          41 118 -39 47 hhcurveto
          20 4 101 102 1 10 -30 38 rlineto
          -11 hlineto
          0 -54 -57 -26 vhcurveto
          hintmask 01110100
          -41 -118 39 -47 hhcurveto
          -19 -4 -102 -102 -1 -10 30 -38 rlineto
          endchar
        </CharString>
        <CharString name="aring">
          105 -44 callgsubr
          77 186 -133 -20 98 55 hstemhm
          hintmask 11011000
          -106 callgsubr
          112 491 -27 callsubr
          hintmask 11100000
          -13 -53 rmoveto
          66 42 -57 callsubr
        </CharString>
        <CharString name="aringacute">
          105 -44 callgsubr
          22 168 -50 50 139 -20 hstemhm
          hintmask 11011000
          -106 callgsubr
          133 431 5 callsubr
          hintmask 11101000
          2 callsubr
          146 233 -6 callgsubr
        </CharString>
        <CharString name="asciicircum">
          82 97 -6 callsubr
          -20 hstem
          308 482 rmoveto
          -98 -4 -102 -191 rlineto
          -45 -84 -49 -93 0 vvcurveto
          6 -13 74 -20 rlineto
          0 48 103 42 77 vhcurveto
          62 124 rlineto
          7 hlineto
          40 -137 rlineto
          23 -76 27 -87 0 vvcurveto
          16 -5 69 42 rlineto
          0 -28 87 -24 77 vhcurveto
          -21 71 -35 121 -31 callgsubr
        </CharString>
        <CharString name="asciitilde">
          100 195 97 -93 -21 56 97 18 -28 callgsubr
          64 178 rmoveto
          0 54 56 27 vhcurveto
          hintmask 10010000
          41 119 -39 48 hhcurveto
          hintmask 01010000
          19 4 101 102 1 10 -30 38 rlineto
          -10 hlineto
          hintmask 10010000
          0 -55 -57 -26 vhcurveto
          hintmask 01100000
          -42 -118 34 callsubr
          endchar
        </CharString>
        <CharString name="asterisk">
          5 424 -21 341 -20 hstem
          101 673 rmoveto
          -10 -3 rlineto
          -11 -35 0 -45 0 vvcurveto
          0 56 -13 52 -17 vhcurveto
          8 6 7 41 rlineto
          -52 40 -50 26 0 vvcurveto
          -204 vmoveto
          -10 vlineto
          29 -22 44 -14 0 vvcurveto
          0 29 50 32 45 vhcurveto
          -3 8 -37 20 rlineto
          -54 -38 -40 -39 0 vvcurveto
          193 -63 rmoveto
          10 -3 rlineto
          30 21 26 37 0 vvcurveto
          0 -38 44 -32 44 vhcurveto
          -9 hlineto
          -31 -29 rlineto
          20 -64 24 -50 0 vvcurveto
          120 165 rmoveto
          6 8 rlineto
          -10 35 -27 37 0 vvcurveto
          0 -53 -23 -53 -17 vhcurveto
          -2 -10 18 -37 rlineto
          66 -1 55 8 0 vvcurveto
          -119 165 rmoveto
          -7 8 rlineto
          -36 -44 -14 0 0 6 -57 1 -56 hvcurveto
          7 -4 42 5 rlineto
          20 63 11 55 -31 callgsubr
        </CharString>
        <CharString name="at">
          448 -224 66 146 90 309 79 96 80 hstem
          16 89 639 87 vstem
          485 -12 rmoveto
          220 126 148 190 186 -141 130 -217 -260 -197 -221 -242 -231 157 -166 280 -6 hvcurveto
          31 50 rlineto
          16 vlineto
          -255 7 -124 146 210 vvcurveto
          197 138 160 202 182 117 -99 -169 -126 -69 -90 -120 vhcurveto
          -6 6 rlineto
          24 158 53 204 0 vvcurveto
          -8 17 -80 14 -12 -7 -7 -22 -87 18 rlineto
          -114 -127 -168 -164 -89 41 -57 74 hvcurveto
          51 36 49 59 61 111 8 -1 rcurveline
          -11 -43 -23 -105 -16 vvcurveto
          -25 16 -16 28 vhcurveto
          -148 117 rmoveto
          -12 -9 38 46 100 44 98 42 39 42 -25 -4 7 hvcurveto
          -139 -53 -71 -114 -29 hhcurveto
          endchar
        </CharString>
        <CharString name="atilde">
          105 -44 callgsubr
          96 7 callgsubr
          hintmask 11011000
          -106 callgsubr
          -5 435 -79 callsubr
          endchar
        </CharString>
        <CharString name="b">
          100 -10 87 391 -20 221 59 9 -32 callsubr
          37 54 rmoveto
          12 -23 rlineto
          0 67 -41 100 33 callsubr
          vhcurveto
          1 callsubr
          hintmask 11100000
          12 callgsubr
          -36 -89 -543 0 hvcurveto
          275 304 rmoveto
          17 13 -44 -52 3 callgsubr
        </CharString>
        <CharString name="b.sups">
          -35 333 66 246 -20 194 -20 hstem
          28 380 rmoveto
          9 -15 rlineto
          0 46 -32 75 91 81 96 109 66 -36 41 -58 vhcurveto
          -31 -24 -26 -34 -38 -71 rrcurveto
          -5 hlineto
          22 131 35 161 3 callsubr
          -22 -57 -343 0 hvcurveto
          190 186 rmoveto
          8 7 -26 -30 -61 -23 -50 -27 -18 -24 14 2 -7 hvcurveto
          79 28 39 72 17 hhcurveto
          endchar
        </CharString>
        <CharString name="backslash">
          -71 -89 -21 785 -20 hstem
          63 660 rmoveto
          0 40 -283 21 -162 vhcurveto
          21 -165 20 -160 0 vvcurveto
          86 hlineto
          10 11 rlineto
          0 -29 173 -19 152 vhcurveto
          -55 449 rlineto
          -81 hlineto
          endchar
        </CharString>
        <CharString name="bar">
          -69 -248 -21 1076 -20 hstem
          267 807 rmoveto
          -86 -11 -65 -520 rlineto
          -23 -179 -43 -355 0 vvcurveto
          10 -11 88 11 rlineto
          0 45 377 21 172 vhcurveto
          20 166 48 339 -31 callgsubr
        </CharString>
        <CharString name="braceleft">
          -77 -128 73 639 70 hstem
          43 241 rmoveto
          44 -11 29 -23 -38 -46 -69 -82 -65 vvcurveto
          -58 46 -46 73 49 32 15 0 vhcurveto
          17 54 -6 10 rlineto
          0 -23 -6 -17 -33 -16 23 30 vhcurveto
          46 48 89 54 vvcurveto
          44 -23 27 -37 13 vhcurveto
          1 6 rlineto
          45 12 38 34 64 35 -9 55 33 vvcurveto
          42 20 32 42 15 23 -5 0 vhcurveto
          20 56 -5 10 rlineto
          0 -38 9 -33 -97 -65 -57 -72 vhcurveto
          -49 26 -65 -40 vvcurveto
          -41 -38 -27 -48 -14 vhcurveto
          endchar
        </CharString>
        <CharString name="braceright">
          -77 -128 69 639 74 hstem
          277 289 rmoveto
          -43 9 -29 24 39 46 68 79 63 vvcurveto
          58 -46 47 -73 -50 -31 -15 0 vhcurveto
          -17 -55 6 -9 rlineto
          0 22 5 18 33 16 -22 -31 vhcurveto
          -45 -48 -86 -52 vvcurveto
          -45 24 -27 36 -13 vhcurveto
          -1 -6 rlineto
          -44 -13 -39 -33 -64 -37 9 -56 -34 vvcurveto
          -43 -21 -32 -41 -15 -23 5 0 vhcurveto
          -20 -55 5 -10 rlineto
          0 38 -9 33 97 65 59 75 vhcurveto
          49 -25 64 40 vvcurveto
          42 39 28 47 13 vhcurveto
          endchar
        </CharString>
        <CharString name="bracketleft">
          -81 -111 -21 777 -20 hstem
          243 -132 rmoveto
          14 55 -3 9 -100 21 75 607 101 20 14 57 -3 8 -214 -11 rlineto
          0 -24 -279 -12 -100 vhcurveto
          -12 -100 -45 -276 -31 callgsubr
        </CharString>
        <CharString name="bracketright">
          -81 -111 -21 777 -20 hstem
          71 645 rmoveto
          -14 -56 3 -9 99 -20 -74 -607 -101 -21 -15 -56 3 -8 215 11 rlineto
          0 24 279 12 100 vhcurveto
          13 100 44 276 -31 callgsubr
        </CharString>
        <CharString name="breve">
          -4 547 95 68 -20 hstem
          243 642 -93 callsubr
          endchar
        </CharString>
        <CharString name="breve.cap">
          -4 684 95 59 -20 hstem
          260 779 -73 callsubr
        </CharString>
        <CharString name="brokenbar">
          -69 -248 -21 1076 -20 hstem
          224 375 rmoveto
          23 175 35 246 0 vvcurveto
          -15 11 -86 -11 -54 -426 8 -7 rlineto
          -34 -205 rmoveto
          -21 -162 -21 -180 -10 -74 10 -11 rcurveline
          88 11 rlineto
          0 27 230 24 191 vhcurveto
          -9 10 rlineto
          endchar
        </CharString>
        <CharString name="bullet">
          -60 113 242 hstem
          147 113 rmoveto
          80 56 60 80 60 -36 42 -64 -80 -56 -60 -81 -60 35 -41 65 hvcurveto
          endchar
        </CharString>
        <CharString name="c">
          19 callgsubr
          -90 callsubr
          endchar
        </CharString>
        <CharString name="c.sups">
          -118 331 76 176 66 hstem
          171 583 rmoveto
          17 14 -10 -22 12 hvcurveto
          22 1 31 72 -3 10 rlineto
          9 -17 -26 6 -25 hhcurveto
          -93 -82 -94 -109 -70 39 -45 60 49 57 42 52 23 hvcurveto
          -28 31 -12 2 rlineto
          -32 -15 -22 -19 -20 hhcurveto
          -22 -14 23 40 62 25 51 30 hvcurveto
          endchar
        </CharString>
        <CharString name="cacute">
          19 callgsubr
          264 -20 -90 callsubr
          169 281 -95 callgsubr
          endchar
        </CharString>
        <CharString name="caron">
          -4 542 -21 203 -20 hstem
          86 679 -87 callgsubr
        </CharString>
        <CharString name="caron.alt">
          -4 508 -21 246 -20 hstem
          301 733 -65 callgsubr
          107 28 109 -31 callgsubr
        </CharString>
        <CharString name="caron.cap">
          -4 717 -21 169 -20 hstem
          407 861 -92 callgsubr
        </CharString>
        <CharString name="ccaron">
          19 callgsubr
          251 -20 -90 callsubr
          -120 294 -87 callgsubr
        </CharString>
        <CharString name="ccedilla">
          -20 20 callsubr
          535 88 hstem
          118 -88 callgsubr
          15 38 58 16 58 51 29 63 rlinecurve
          -72 callgsubr
          26 21 -15 -32 19 hvcurveto
          28 2 42 96 -4 15 rlineto
          14 -23 -37 8 -37 hhcurveto
          -133 -119 -148 -165 -100 47 -64 76 -7 hvcurveto
          endchar
        </CharString>
        <CharString name="ccircumflex">
          19 callgsubr
          256 -20 -90 callsubr
          -103 149 -106 callsubr
        </CharString>
        <CharString name="cdotaccent">
          19 callgsubr
          101 152 -90 callsubr
          17 189 -56 callgsubr
        </CharString>
        <CharString name="cedilla">
          -1 20 callsubr
          179 -20 hstem
          97 -88 callgsubr
          29 73 rlineto
          -52 hlineto
          endchar
        </CharString>
        <CharString name="cent">
          -20 -138 -21 817 -20 hstem
          241 385 rmoveto
          26 21 -15 -32 19 hvcurveto
          28 2 42 96 -4 15 -16 9 -23 7 -25 4 rlinecurve
          41 178 -4 9 -72 -9 -42 -182 rlineto
          -114 -27 -94 -134 -146 vvcurveto
          -90 37 -60 63 -17 vhcurveto
          -33 -145 5 -7 70 8 33 144 58 16 60 51 29 64 rlinecurve
          -58 callgsubr
          endchar
        </CharString>
        <CharString name="circumflex">
          -4 552 -21 199 -20 hstem
          101 535 -106 callsubr
        </CharString>
        <CharString name="circumflex.cap">
          -4 728 -21 hstem
          112 711 -91 callgsubr
        </CharString>
        <CharString name="colon">
          -159 -11 158 115 158 hstem
          82 -11 rmoveto
          -77 callsubr
          33 273 rmoveto
          -77 callsubr
          endchar
        </CharString>
        <CharString name="comma">
          41 callgsubr
          -20 hstem
          18 -56 callsubr
          endchar
        </CharString>
        <CharString name="commaaccent">
          -4 -297 29 callgsubr
          63 -100 -99 callsubr
        </CharString>
        <CharString name="copyright">
          283 -12 49 92 52 229 54 85 49 hstem
          47 261 rmoveto
          -152 109 -121 150 175 159 154 183 152 -110 121 -149 -176 -158 -154 -183 vhcurveto
          51 5 rmoveto
          154 131 129 146 124 91 -101 -128 -154 -132 -129 -146 -124 -90 101 128 vhcurveto
          239 -137 rmoveto
          65 48 19 0 hvcurveto
          6 7 rlineto
          6 43 14 54 0 vvcurveto
          -57 -4 rlineto
          -49 -14 -19 -18 -35 hhcurveto
          -41 -21 32 63 89 30 45 55 32 17 -12 -21 -9 -5 -26 0 hvcurveto
          58 4 rlineto
          11 55 15 43 0 vvcurveto
          -3 -7 callsubr
          -63 12 -44 -121 -74 -75 -124 -86 53 -50 87 vhcurveto
          endchar
        </CharString>
        <CharString name="currency">
          40 161 -21 52 72 174 72 59 -20 hstem
          79 333 rmoveto
          -19 3 -20 6 -16 vhcurveto
          -32 -27 -30 -26 -15 -10 41 -71 rcurveline
          17 -4 rlineto
          0 37 35 38 38 vhcurveto
          -13 20 24 -8 27 hhcurveto
          25 26 7 13 22 hvcurveto
          54 -70 78 52 5 17 rlineto
          0 -31 33 -32 34 vhcurveto
          17 27 11 29 34 vvcurveto
          20 -4 23 -7 16 vhcurveto
          78 67 -43 71 -17 4 rlineto
          0 -38 -39 -38 -38 vhcurveto
          11 -19 -23 7 -25 hhcurveto
          -26 -25 -7 -11 -22 hvcurveto
          -55 72 -77 -50 -5 -17 rlineto
          0 32 -35 32 -36 vhcurveto
          -19 -28 -10 -31 -34 vvcurveto
          72 9 rmoveto
          52 45 44 49 42 31 -34 -44 -52 -45 -44 -49 -43 -30 35 43 vhcurveto
          endchar
        </CharString>
        <CharString name="d">
          107 -44 callgsubr
          203 59 9 -32 callsubr
          384 -1 callgsubr
          32 206 82 406 -64 callsubr
          hintmask 11100000
          -53 callgsubr
          30 11 -12 -31 -4 hvcurveto
          -24 -176 -82 callgsubr
          endchar
        </CharString>
        <CharString name="d.sups">
          -31 352 -21 254 58 -58 228 27 callgsubr
          280 423 rmoveto
          20 127 52 258 0 vvcurveto
          -9 11 rlineto
          hintmask 10100000
          0 -83 -6 -55 vhcurveto
          -6 -45 rlineto
          21 hlineto
          19 6 -8 -20 -2 hvcurveto
          -15 -107 rlineto
          hintmask 11010000
          -46 10 rlineto
          -79 -84 -109 -104 -62 33 -37 54 hvcurveto
          32 24 29 35 37 66 6 -1 rcurveline
          -9 -37 -11 -48 -10 vvcurveto
          -19 10 -10 21 31 27 21 71 68 7 callsubr
          -31 -37 1 1 -4 hhcurveto
          -152 -3 rmoveto
          -7 -5 21 29 57 22 60 22 22 26 -14 -4 7 hvcurveto
          -77 -28 -41 -72 -18 hhcurveto
          endchar
        </CharString>
        <CharString name="dagger">
          92 -70 -21 408 89 186 -20 hstem
          332 592 rmoveto
          -91 -7 -21 -179 rlineto
          -154 hlineto
          -16 -78 6 -11 rlineto
          153 hlineto
          -50 -399 8 -9 88 6 49 402 rlineto
          156 hlineto
          17 80 -8 11 -153 -2 23 178 rlineto
          endchar
        </CharString>
        <CharString name="daggerdbl">
          91 -70 -21 180 89 158 89 167 -20 hstem
          332 592 rmoveto
          -91 -7 -19 -160 rlineto
          -154 hlineto
          -16 -78 7 -11 rlineto
          152 hlineto
          -20 -158 -153 -1 -16 -78 6 -10 rlineto
          152 hlineto
          -21 -171 8 -9 88 6 21 174 rlineto
          156 hlineto
          17 80 -7 10 -155 -1 19 158 rlineto
          156 hlineto
          17 80 -8 10 -153 -1 21 159 rlineto
          endchar
        </CharString>
        <CharString name="dcaron">
          219 -44 callgsubr
          203 59 9 -32 callsubr
          384 -1 callgsubr
          32 206 82 406 -64 callsubr
          hintmask 11100000
          -53 callgsubr
          30 11 -12 -31 -4 hvcurveto
          -24 -176 -82 callgsubr
          489 594 -65 callgsubr
          107 28 109 -31 callgsubr
        </CharString>
        <CharString name="dcroat">
          107 -44 callgsubr
          62 57 84 59 9 -20 hstemhm
          hintmask 11101000
          384 -1 callgsubr
          17 113 33 174 26 133 91 1 rcurveline
          5 46 -14 14 -71 -3 rlineto
          16 79 11 55 -64 callsubr
          hintmask 11110000
          -53 callgsubr
          30 11 -12 -31 -4 hvcurveto
          -6 -41 -114 1 -8 -48 10 -10 rlineto
          104 hlineto
          -10 -78 -82 callgsubr
          endchar
        </CharString>
        <CharString name="degree">
          -97 393 58 145 58 hstem
          55 510 rmoveto
          -65 47 -52 64 75 68 65 79 65 -46 52 -65 -75 -68 -65 -79 vhcurveto
          58 5 rmoveto
          45 33 36 42 37 26 -28 -36 -45 -34 -36 -42 -36 -26 28 36 vhcurveto
          endchar
        </CharString>
        <CharString name="dieresis">
          -4 563 128 hstem
          316 563 -91 callsubr
          endchar
        </CharString>
        <CharString name="dieresis.cap">
          -4 706 128 hstem
          333 706 -92 callsubr
        </CharString>
        <CharString name="divide">
          100 7 144 56 99 56 144 hstem
          cntrmask 11100000
          476 312 rmoveto
          0 -133 -6 -78 8 callsubr
          219 1 22 92 rlineto
          -271 -293 rmoveto
          49 33 36 49 35 -20 24 -39 -49 -33 -36 -49 -34 19 -25 40 hvcurveto
          43 355 rmoveto
          50 33 36 49 35 -20 24 -39 -50 -32 -36 -49 -34 18 -25 40 hvcurveto
          endchar
        </CharString>
        <CharString name="dollar">
          48 -138 -21 152 75 272 169 -81 81 149 -20 hstem
          103 -159 rmoveto
          70 8 33 144 rlineto
          126 10 79 65 94 vvcurveto
          85 -94 32 -63 33 vhcurveto
          -34 18 -25 17 26 vvcurveto
          32 34 23 43 45 21 -14 -35 -12 -5 -24 0 vhcurveto
          7 -5 70 5 rlineto
          14 71 22 63 0 vvcurveto
          -5 12 rlineto
          0 -50 16 -66 4 vhcurveto
          32 140 -5 9 -71 -9 -33 -142 rlineto
          -112 -14 -75 -66 -89 vvcurveto
          -74 68 -34 59 -30 vhcurveto
          46 -22 39 -20 -33 vvcurveto
          -34 -33 -23 -49 -62 -17 27 75 9 vhcurveto
          -76 -6 rlineto
          -9 -61 -22 -70 0 vvcurveto
          6 -12 rlineto
          0 44 -21 66 -7 vhcurveto
          -33 -145 rlineto
          endchar
        </CharString>
        <CharString name="dotaccent">
          -4 574 152 hstem
          230 574 -56 callgsubr
        </CharString>
        <CharString name="dotaccent.cap">
          -4 702 152 hstem
          246 702 -69 callgsubr
        </CharString>
        <CharString name="dotbelowcomb">
          -84 -211 157 hstem
          94 -211 rmoveto
          55 36 39 53 39 -22 26 -43 -54 -37 -39 -54 -38 22 -26 43 hvcurveto
          endchar
        </CharString>
        <CharString name="dotlessi">
          -105 20 callgsubr
          9 -42 callsubr
          169 -1 callgsubr
          -66 callsubr
          hintmask 11000000
          -61 callsubr
          -74 vhcurveto
          -10 -13 callsubr
          -27 -32 -48 -286 0 hvcurveto
          -33 14 -17 33 38 49 36 94 87 vhcurveto
          -17 -43 callgsubr
          -44 -50 -8 -6 -8 hhcurveto
          endchar
        </CharString>
        <CharString name="dotlessj">
          -117 -223 -21 638 59 9 -42 callsubr
          164 24 callsubr
          hintmask 11000000
          -77 callgsubr
          endchar
        </CharString>
        <CharString name="e">
          -24 callsubr
          hstem
          -104 callgsubr
          endchar
        </CharString>
        <CharString name="e.sups">
          -98 331 76 176 66 hstem
          277 583 rmoveto
          41 -30 25 -49 -94 -82 -94 -107 -71 39 -46 61 54 59 40 52 24 vhcurveto
          -27 31 -14 1 rlineto
          -32 -18 -22 -16 -24 hhcurveto
          -24 -15 18 31 hvcurveto
          116 35 46 34 58 vvcurveto
          -103 hmoveto
          12 8 -7 -12 -24 -25 -21 -52 -18 hvcurveto
          50 7 22 32 28 hhcurveto
          endchar
        </CharString>
        <CharString name="eacute">
          -24 callsubr
          265 -20 hstem
          -104 callgsubr
          141 282 -95 callgsubr
          endchar
        </CharString>
        <CharString name="ebreve">
          -24 callsubr
          69 95 68 -20 hstem
          -104 callgsubr
          36 252 -93 callsubr
          endchar
        </CharString>
        <CharString name="ecaron">
          -24 callsubr
          251 -20 hstem
          -104 callgsubr
          -121 294 -87 callgsubr
        </CharString>
        <CharString name="ecircumflex">
          -24 callsubr
          257 -20 hstem
          -104 callgsubr
          -105 150 -106 callsubr
        </CharString>
        <CharString name="edieresis">
          -24 callsubr
          90 128 hstem
          -104 callgsubr
          106 178 -91 callsubr
          endchar
        </CharString>
        <CharString name="edotaccent">
          -24 callsubr
          101 152 hstem
          -104 callgsubr
          22 189 -56 callgsubr
        </CharString>
        <CharString name="egrave">
          -24 callsubr
          263 -20 hstem
          -104 callgsubr
          -111 266 -81 callsubr
          endchar
        </CharString>
        <CharString name="eight">
          74 35 callsubr
          22 117 rmoveto
          -79 71 -50 94 127 105 10 callgsubr
          -69 48 -83 -120 -98 -54 callsubr
        </CharString>
        <CharString name="eight.dnom">
          -63 -8 58 277 62 hstem
          18 78 -70 callsubr
        </CharString>
        <CharString name="eight.lf">
          74 35 callsubr
          22 117 rmoveto
          -79 73 -50 94 128 102 10 callgsubr
          -73 48 -83 -120 -94 -54 callsubr
        </CharString>
        <CharString name="eight.numr">
          -63 253 57 278 61 hstem
          18 339 rmoveto
          -51 49 -35 66 87 70 59 38 callgsubr
          50 vvcurveto
          50 -49 34 -60 -82 -66 -55 -69 -40 22 -27 26 -20 vhcurveto
          -33 -14 -45 -30 -55 vvcurveto
          130 -29 rmoveto
          -28 -17 21 27 28 17 17 14 11 hvcurveto
          33 -18 29 -15 -25 vvcurveto
          -27 -20 -19 -28 vhcurveto
          -7 238 rmoveto
          21 18 19 25 22 13 -15 -24 16 callsubr
          14 -25 14 25 vvcurveto
          endchar
        </CharString>
        <CharString name="eight.sinf">
          -63 -128 58 277 62 hstem
          18 -42 -70 callsubr
        </CharString>
        <CharString name="eight.sups">
          -63 331 58 277 62 hstem
          18 418 rmoveto
          -52 49 -35 66 87 70 60 38 callgsubr
          49 vvcurveto
          51 -49 34 -60 -82 -66 -55 -70 -39 22 -28 26 -19 vhcurveto
          -33 -14 -45 -30 -55 vvcurveto
          130 -29 rmoveto
          -28 -17 21 27 27 17 17 14 12 hvcurveto
          33 -18 29 -15 -25 vvcurveto
          -27 -20 -19 -28 vhcurveto
          -7 237 rmoveto
          22 18 18 25 22 13 -14 -25 16 callsubr
          15 -25 14 24 vvcurveto
          endchar
        </CharString>
        <CharString name="eight.tf">
          67 35 callsubr
          20 117 rmoveto
          -79 73 -50 93 127 101 91 112 64 -38 39 -43 29 vhcurveto
          45 23 58 47 79 vvcurveto
          78 -72 48 -83 -119 -93 -86 -101 -63 34 -40 42 -30 vhcurveto
          -49 -22 -76 -48 -91 vvcurveto
          188 -55 rmoveto
          -47 -30 38 45 55 38 30 26 17 hvcurveto
          50 -29 49 -25 -46 vvcurveto
          -49 -39 -36 -47 vhcurveto
          -20 384 rmoveto
          39 31 34 43 37 24 -25 -46 -48 -25 -29 -22 -18 vhcurveto
          -46 26 -42 24 43 vvcurveto
          endchar
        </CharString>
        <CharString name="eight.tosf">
          57 35 callsubr
          18 116 rmoveto
          -78 69 -50 92 125 103 91 113 63 -37 39 -42 29 vhcurveto
          44 23 57 47 79 vvcurveto
          78 -67 48 -82 -117 -97 -86 -102 -62 34 -40 40 -30 vhcurveto
          -48 -22 -74 -48 -92 vvcurveto
          185 -54 rmoveto
          -45 -29 38 45 55 36 30 25 17 hvcurveto
          49 -29 48 -25 -46 vvcurveto
          -49 -38 -36 -46 vhcurveto
          -17 384 rmoveto
          39 29 34 42 36 24 -25 -45 -49 -24 -29 -22 -18 vhcurveto
          -45 26 -40 24 43 vvcurveto
          endchar
        </CharString>
        <CharString name="ellipsis">
          267 -11 158 hstem
          296 -11 rmoveto
          -77 callsubr
          214 hmoveto
          -77 callsubr
          -426 hmoveto
          -77 callsubr
          endchar
        </CharString>
        <CharString name="emacron">
          -24 callsubr
          108 85 27 callgsubr
          -104 callgsubr
          178 287 rmoveto
          hintmask 11100000
          -59 callgsubr
        </CharString>
        <CharString name="emdash">
          454 213 88 -68 -21 93 -28 callgsubr
          852 305 rmoveto
          hintmask 10000000
          -2 -22 -258 -2 -140 hhcurveto
          -421 36 callsubr
          178 375 1 288 hhcurveto
          20 77 rlineto
          endchar
        </CharString>
        <CharString name="endash">
          49 213 88 -68 -21 93 -28 callgsubr
          448 305 rmoveto
          hintmask 10000000
          -4 -53 -97 0 -55 hhcurveto
          -232 36 callsubr
          93 195 1 149 hhcurveto
          19 77 rlineto
          endchar
        </CharString>
        <CharString name="eng">
          126 -223 -21 257 -21 482 -20 hstem
          289 35 rmoveto
          -34 -128 -19 -54 -81 -55 -4 -12 rcurveline
          28 -30 117 53 63 81 33 129 rlinecurve
          17 63 63 235 -96 callgsubr
          -54 -45 -160 -16 -62 hvcurveto
          endchar
        </CharString>
        <CharString name="eogonek">
          5 -241 72 157 97 300 88 hstem
          298 -145 -22 callsubr
          18 24 61 85 50 86 138 vhcurveto
          -33 40 -38 callgsubr
          -50 -28 -36 -29 -37 hhcurveto
          -40 -23 38 60 hvcurveto
          178 56 65 53 87 vvcurveto
          59 -40 35 -67 -132 -122 -149 -161 -107 54 -68 85 15 12 3 7 14 vhcurveto
          -68 -64 -36 -44 -49 vvcurveto
          -52 -35 callsubr
          -70 559 rmoveto
          21 12 -12 -23 -43 -41 -33 -90 -30 hvcurveto
          83 13 41 58 44 hhcurveto
          endchar
        </CharString>
        <CharString name="equal">
          100 119 99 -79 -21 179 99 6 -42 callsubr
          465 224 rmoveto
          0 -133 -6 -78 -85 -140 37 callgsubr
          hintmask 10010000
          0 133 1 86 vhcurveto
          219 1 22 92 rlineto
          17 190 rmoveto
          hintmask 10100000
          0 -134 -6 -77 8 callsubr
          220 1 21 92 rlineto
          endchar
        </CharString>
        <CharString name="estimated">
          409 9 -21 663 -20 hstem
          180 311 rmoveto
          597 8 hlineto
          184 -165 148 -203 -203 -166 -148 -184 -183 166 -148 203 118 107 51 78 67 vhcurveto
          -54 hlineto
          -67 -57 -85 -42 -95 hhcurveto
          -89 -81 37 60 -56 hvcurveto
          -5 6 -4 7 8 vvcurveto
          181 vlineto
          3 2 1 3 vhcurveto
          463 205 rmoveto
          -182 vlineto
          -3 -2 -2 -3 vhcurveto
          -458 hlineto
          -3 -2 2 3 hvcurveto
          178 vlineto
          9 4 8 6 6 vhcurveto
          59 57 79 37 89 hhcurveto
          87 79 -36 -57 57 hvcurveto
          6 -6 4 -7 -9 vvcurveto
          endchar
        </CharString>
        <CharString name="eth">
          102 -12 77 310 88 278 -20 hstem
          437 716 rmoveto
          -145 -70 -42 36 -50 32 -58 27 rlinecurve
          -13 -5 -40 -56 42 -25 35 -27 28 -29 rlinecurve
          -99 -49 10 -61 8 -3 133 64 26 -32 20 -36 13 -38 rlinecurve
          -4 -5 -6 3 -25 17 -20 4 rlinecurve
          -121 -107 -129 -156 -116 68 -74 116 152 112 125 179 112 -43 110 -80 85 hvcurveto
          108 53 -10 59 rlineto
          -114 -431 rmoveto
          -120 -42 -95 -53 -51 -29 44 77 113 41 76 64 37 20 -15 -11 11 vhcurveto
          2 -17 0 -31 -21 vvcurveto
          endchar
        </CharString>
        <CharString name="exclam">
          -114 -11 158 558 -20 hstem
          91 -11 rmoveto
          55 36 40 53 39 -23 26 -42 -54 -37 -39 -54 -38 22 -27 43 hvcurveto
          -2 247 rmoveto
          14 -13 66 11 117 453 -15 18 -135 -22 -15 -17 rlineto
          endchar
        </CharString>
        <CharString name="exclamdown">
          -114 -221 -21 558 158 hstem
          184 474 5 callgsubr
          2 -247 rmoveto
          -14 13 -66 -11 -116 -453 14 -18 136 22 14 17 rlineto
          endchar
        </CharString>
        <CharString name="f">
          -98 -242 80 556 61 200 87 hstem
          24 393 rmoveto
          -47 callsubr
          6 129 -1 10 56 -5 5 rlineto
          -136 hlineto
          12 101 -40 callsubr
        </CharString>
        <CharString name="f.f">
          -98 -242 80 554 61 177 87 hstem
          24 393 rmoveto
          -89 callsubr
          429 9 6 212 -1 9 56 -5 5 rlineto
          -218 hlineto
          11 80 rlineto
          69 9 32 28 53 hhcurveto
          35 40 -9 -25 46 hvcurveto
          20 3 55 76 -4 11 rlineto
          16 -37 -49 15 -60 hhcurveto
          -122 -124 -96 -122 -14 hvcurveto
          -6 -42 -84 -13 -5 -46 rlineto
          endchar
        </CharString>
        <CharString name="f.l">
          -98 -242 80 556 61 200 87 hstem
          24 393 rmoveto
          -47 callsubr
          6 118 -1 10 56 -5 5 rlineto
          -125 hlineto
          12 101 rlineto
          69 9 27 30 51 hhcurveto
          30 34 -12 -28 46 hvcurveto
          20 3 33 95 -4 11 rlineto
          11 -27 -46 7 -38 hhcurveto
          -120 -121 -102 -119 -14 hvcurveto
          1 callgsubr
          rlineto
          endchar
        </CharString>
        <CharString name="f.sups">
          -167 183 61 347 45 120 65 hstem
          20 591 rmoveto
          48 -1 7 -6 -17 -230 -2 -58 rlineto
          -33 -1 -19 -19 -25 hhcurveto
          -31 -14 16 36 -2 hvcurveto
          -13 hlineto
          -12 -17 -20 -37 -7 -23 rrcurveto
          -20 9 34 -16 38 hhcurveto
          64 70 67 72 8 hvcurveto
          29 266 6 3 rlineto
          84 hlineto
          7 42 -4 3 rlineto
          -87 hlineto
          7 60 rlineto
          43 5 14 17 31 hhcurveto
          16 18 -7 -18 27 hvcurveto
          13 2 33 71 -3 7 rlineto
          6 -17 -29 4 -25 hhcurveto
          -81 -88 -70 -76 -8 hvcurveto
          -4 -38 -57 -8 -4 -35 rlineto
          endchar
        </CharString>
        <CharString name="f.t">
          -98 -242 80 555 60 202 87 hstem
          24 393 rmoveto
          -89 callsubr
          429 9 6 rlineto
          224 hlineto
          10 55 -6 5 rlineto
          -230 hlineto
          12 103 -40 callsubr
        </CharString>
        <CharString name="fi">
          185 -242 80 557 60 200 87 hstem
          459 -1 callgsubr
          -66 callsubr
          -3 -9 -126 -4 -53 hhcurveto
          -105 hlineto
          10 85 rlineto
          78 9 25 37 64 hhcurveto
          32 36 -13 -35 52 hvcurveto
          19 3 45 96 -4 11 rlineto
          15 -33 -57 10 -46 hhcurveto
          -113 -133 -89 -146 -16 hvcurveto
          -5 -50 -84 -13 -5 -46 3 -5 71 -2 9 -7 -28 -367 -1 -29 -1 -35 -3 -35 rlinecurve
          -50 -3 -29 -30 -37 hhcurveto
          -45 -24 27 54 -2 hvcurveto
          -16 hlineto
          -17 -24 -26 -53 -9 -30 rrcurveto
          -31 11 48 -23 52 hhcurveto
          110 77 106 132 14 hvcurveto
          43 393 9 6 rlineto
          125 hlineto
          27 11 -12 -27 -32 -48 -286 0 hvcurveto
          -26 8 -16 21 -5 vhcurveto
          8 -2 8 0 11 1 40 6 45 35 80 87 -17 35 rcurveline
          -38 callgsubr
          -44 -50 -8 -6 -8 hhcurveto
          endchar
        </CharString>
        <CharString name="five">
          24 -100 103 383 104 48 -20 hstem
          361 145 rmoveto
          83 -76 42 -133 24 vhcurveto
          18 92 rlineto
          104 86 -8 0 hvcurveto
          14 13 43 147 -55 -4 -15 -30 -14 -8 -37 -2 rlinecurve
          -188 -7 -8 -8 rlineto
          0 -24 -139 -29 -131 vhcurveto
          7 -11 rlineto
          124 -19 45 -25 -47 vvcurveto
          -61 -68 -43 -86 -31 -27 4 9 -24 vhcurveto
          -15 -14 rlineto
          -78 -6 21 -24 51 hhcurveto
          146 177 120 125 hvcurveto
          endchar
        </CharString>
        <CharString name="five.dnom">
          -92 -8 77 104 -16 callgsubr
          143 -63 callsubr
        </CharString>
        <CharString name="five.lf">
          26 -12 103 384 103 48 -20 hstem
          372 221 rmoveto
          86 -64 47 -146 18 vhcurveto
          19 103 rlineto
          104 91 -8 0 hvcurveto
          14 12 44 147 -56 -4 -14 -30 -14 -8 -37 -2 rlinecurve
          -193 -7 -9 -8 rlineto
          0 -24 -142 -27 -134 vhcurveto
          7 -11 rlineto
          118 -8 51 -26 -52 vvcurveto
          -60 -58 -43 -82 -30 -27 5 8 -24 vhcurveto
          -16 -14 rlineto
          -75 -4 17 -27 54 hhcurveto
          144 162 116 117 hvcurveto
          endchar
        </CharString>
        <CharString name="five.numr">
          -92 253 76 105 -16 callgsubr
          404 rmoveto
          56 -41 30 -97 14 vhcurveto
          10 53 rlineto
          67 58 -5 0 hvcurveto
          12 10 31 104 -44 -3 rlineto
          -20 -9 -10 -6 -25 hhcurveto
          -130 -4 -7 -5 rlineto
          0 -15 -96 -19 -90 vhcurveto
          hintmask 11010000
          -40 callgsubr
          76 -6 32 -14 -29 vvcurveto
          -32 -34 -24 -48 -22 -18 4 7 -15 vhcurveto
          -14 -12 rlineto
          -55 -3 13 -20 40 hhcurveto
          100 108 73 78 hvcurveto
          endchar
        </CharString>
        <CharString name="five.sinf">
          -92 -128 77 104 -16 callgsubr
          23 -63 callsubr
        </CharString>
        <CharString name="five.sups">
          -92 331 77 105 -16 callgsubr
          482 rmoveto
          56 -41 31 -97 14 vhcurveto
          10 53 rlineto
          67 58 -5 0 hvcurveto
          12 9 31 105 -44 -3 rlineto
          -20 -9 -10 -6 -25 hhcurveto
          -130 -4 -7 -5 rlineto
          0 -15 -96 -19 -91 vhcurveto
          hintmask 11010000
          4 -7 rlineto
          76 -6 32 -15 -29 vvcurveto
          -32 -34 -23 -48 -22 -18 4 7 -15 vhcurveto
          -14 -12 rlineto
          -55 -3 13 -21 40 hhcurveto
          100 108 74 77 hvcurveto
          endchar
        </CharString>
        <CharString name="five.tf">
          67 -12 103 384 103 48 -20 hstem
          398 220 rmoveto
          87 -68 47 -156 18 vhcurveto
          20 103 rlineto
          111 98 -8 0 hvcurveto
          14 12 45 147 -57 -4 -14 -30 -15 -8 -40 -2 rlinecurve
          -203 -7 -10 -8 rlineto
          0 -23 -142 -28 -134 vhcurveto
          8 -11 rlineto
          126 -8 56 -26 -53 vvcurveto
          -59 -64 -43 -89 -31 -28 5 8 -26 vhcurveto
          -16 -14 rlineto
          -75 -3 18 -27 55 hhcurveto
          150 170 116 116 hvcurveto
          endchar
        </CharString>
        <CharString name="five.tosf">
          57 -100 103 383 104 48 -20 hstem
          381 144 rmoveto
          84 -81 42 -138 24 vhcurveto
          18 92 rlineto
          110 91 -8 0 hvcurveto
          15 13 44 147 -56 -4 -15 -30 -15 -8 -38 -2 rlinecurve
          -197 -7 -9 -8 rlineto
          0 -24 -139 -29 -131 vhcurveto
          8 -11 rlineto
          132 -19 47 -25 -47 vvcurveto
          -61 -73 -43 -92 -32 -28 4 9 -26 vhcurveto
          -15 -14 rlineto
          -78 -6 23 -24 52 hhcurveto
          150 184 120 124 hvcurveto
          endchar
        </CharString>
        <CharString name="fj">
          174 -242 80 -61 -21 638 61 200 87 hstemhm
          hintmask 10110000
          454 24 callsubr
          0 -53 -5 -57 -2 vhcurveto
          -190 hlineto
          12 101 rlineto
          69 9 29 30 54 hhcurveto
          29 32 -12 -31 43 hvcurveto
          20 3 44 96 -4 11 rlineto
          12 -28 -48 8 -40 hhcurveto
          -123 -123 -102 -119 -14 -51 callgsubr
          5 rlineto
          133 hlineto
          27 12 -11 -27 -32 -50 -288 0 hvcurveto
          -16 -131 -28 -52 -75 -55 -3 -12 rcurveline
          hintmask 01110000
          28 -30 110 53 73 87 16 122 rlinecurve
          endchar
        </CharString>
        <CharString name="fl">
          172 -242 80 171 -6 callsubr
          61 200 87 hstem
          447 -52 callsubr
          0 -39 -3 -48 -3 vhcurveto
          7 -29 -35 4 -31 hhcurveto
          -118 -119 -102 -119 -13 -51 callgsubr
          6 117 -1 10 56 -5 5 rlineto
          -124 hlineto
          12 101 rlineto
          69 9 25 30 48 hhcurveto
          29 31 -9 -20 40 hvcurveto
          -6 -72 -84 -519 0 vvcurveto
          -31 16 -16 32 38 -12 callgsubr
          -17 2 rlineto
          -44 -51 -7 -6 -9 hhcurveto
          endchar
        </CharString>
        <CharString name="florin">
          17 -161 72 388 64 161 74 hstem
          124 hmoveto
          -65 -3 -18 -24 39 callsubr
          -16 -17 -55 -23 vvcurveto
          -21 47 -20 41 103 80 94 104 7 vhcurveto
          20 263 121 -2 10 61 -4 5 -122 -1 5 56 rlineto
          60 5 7 45 48 hhcurveto
          31 29 -22 -32 26 hvcurveto
          15 1 rlineto
          11 16 17 61 20 vvcurveto
          17 -48 13 -47 -103 -99 -85 -91 -4 vhcurveto
          -5 -57 -77 -12 -7 -46 3 -6 rlineto
          63 11 -5 -32 1 hvcurveto
          endchar
        </CharString>
        <CharString name="foundryicon">
          395 -59 152 52 157 42 180 -87 87 hstemhm
          hintmask 11100000
          328 344 rmoveto
          45 33 -31 -42 hvcurveto
          -178 -74 136 vlineto
          38 -14 18 -29 -18 -6 -3 -9 vhcurveto
          -180 -74 vlineto
          hintmask 11010000
          344 74 -116 vlineto
          -6 2 -3 4 3 3 2 2 3 vhcurveto
          hintmask 11100000
          155 4 rmoveto
          89 56 rlineto
          21 -28 hlineto
          -6 4 -4 6 vhcurveto
          58 -36 -58 hlineto
          -7 -3 -4 -6 hvcurveto
          -90 vlineto
          -40 12 -17 29 8 9 1 3 9 vhcurveto
          -25 vlineto
          -63 -37 rlineto
          -45 -33 31 42 hvcurveto
          132 vlineto
          7 -3 3 -7 vhcurveto
          -26 hlineto
          -255 -361 rmoveto
          423 hlineto
          52 28 28 52 hvcurveto
          423 vlineto
          52 -28 28 -52 vhcurveto
          -423 hlineto
          -52 -28 -28 -52 hvcurveto
          -423 vlineto
          -52 28 -28 52 vhcurveto
          endchar
        </CharString>
        <CharString name="four">
          66 -79 -21 169 88 351 -20 22 -32 callsubr
          -17 73 rmoveto
          69 86 -2 -2 75 hvcurveto
          -11 -72 -14 -87 0 vvcurveto
          6 -10 117 12 9 9 rlineto
          0 4 72 8 73 vhcurveto
          45 -2 31 -1 0 vvcurveto
          19 83 -7 11 rlineto
          -78 hlineto
          42 342 -84 11 rlineto
          hintmask 11100000
          -1 -3 -2 -2 hhcurveto
          -300 -368 -3 -22 -5 -23 -3 -22 rlinecurve
          254 262 rmoveto
          10 hlineto
          -23 -178 rlineto
          -127 hlineto
          endchar
        </CharString>
        <CharString name="four.dnom">
          -60 -3 22 callgsubr
          96 -64 callgsubr
          rlineto
          hintmask 10010000
          -66 callgsubr
          endchar
        </CharString>
        <CharString name="four.lf">
          66 -14 callgsubr
          8 -7 callsubr
          4 72 8 71 vhcurveto
          76 -2 19 82 -7 12 rlineto
          -77 -5 callgsubr
          -126 hlineto
          endchar
        </CharString>
        <CharString name="four.numr">
          -60 274 -21 103 65 228 -20 hstem
          1 357 rmoveto
          149 -2 rlineto
          -6 -45 -10 -50 0 vvcurveto
          6 -7 91 8 6 7 rlineto
          0 2 41 5 43 vhcurveto
          47 -1 14 61 -19 callsubr
        </CharString>
        <CharString name="four.sinf">
          -60 -123 22 callgsubr
          -24 -64 callgsubr
          rlineto
          hintmask 10010000
          -66 callgsubr
          endchar
        </CharString>
        <CharString name="four.sups">
          -60 335 165 -147 -21 102 66 228 -20 hstemhm
          hintmask 01110000
          1 436 rmoveto
          149 -3 rlineto
          -6 -45 -10 -49 0 vvcurveto
          6 -7 91 7 6 7 rlineto
          0 2 41 5 44 vhcurveto
          47 -2 14 62 rlineto
          hintmask 10010000
          -19 callsubr
        </CharString>
        <CharString name="four.tf">
          67 -14 callgsubr
          9 -7 callsubr
          4 72 7 71 vhcurveto
          76 -2 19 82 -6 12 rlineto
          -78 -5 callgsubr
          -125 hlineto
          endchar
        </CharString>
        <CharString name="four.tosf">
          57 -79 -21 169 88 351 -20 22 -32 callsubr
          -19 73 rmoveto
          68 85 -2 -2 74 hvcurveto
          -10 -72 -15 -87 0 vvcurveto
          7 -10 117 12 8 9 rlineto
          0 5 72 7 73 vhcurveto
          45 -2 30 -1 0 vvcurveto
          19 83 -7 11 rlineto
          -76 hlineto
          42 342 -85 11 rlineto
          hintmask 11100000
          -1 -4 -2 -1 hhcurveto
          -297 -368 -3 -22 -5 -23 -3 -22 rlinecurve
          251 262 rmoveto
          9 hlineto
          -21 -178 rlineto
          -125 hlineto
          endchar
        </CharString>
        <CharString name="fraction">
          -233 -72 -21 771 -20 hstem
          298 653 -37 callgsubr
        </CharString>
        <CharString name="franc">
          69 0 65 -53 -21 29 -21 128 50 46 73 150 57 10 -20 hstemhm
          hintmask 10011100
          212 107 rmoveto
          13 20 rlineto
          88 hlineto
          10 44 -5 7 rlineto
          -14 -41 -1 -41 hhcurveto
          7 44 71 5 rlineto
          35 50 -3 0 hvcurveto
          20 70 -7 10 rlineto
          0 -64 -7 -23 -21 -28 0 1 -21 vhcurveto
          12 73 4 24 3 32 22 3 rlinecurve
          4 5 1 8 hhcurveto
          59 15 -6 -26 -13 -6 -29 0 hvcurveto
          86 5 rlineto
          13 70 21 72 0 vvcurveto
          hintmask 10011010
          -8 10 rlineto
          hintmask 01011100
          -5 -50 -83 -5 -73 hhcurveto
          -51 hlineto
          -60 -70 2 0 hvcurveto
          -13 -50 5 -10 rlineto
          0 17 1 9 19 3 -8 -32 -4 vhcurveto
          -29 -229 rlineto
          -60 hlineto
          -12 -44 5 -6 rlineto
          61 hlineto
          -9 -55 -8 -14 -49 -7 -13 -60 rcurveline
          hintmask 10011100
          0 50 8 50 1 vhcurveto
          hintmask 00111100
          16 19 -1 21 hhcurveto
          35 72 -2 1 hvcurveto
          16 59 -6 12 rlineto
          hintmask 10011100
          0 -27 -4 -22 -24 -6 9 33 4 vhcurveto
          endchar
        </CharString>
        <CharString name="g">
          0 callsubr
          11 -20 hstemhm
          hintmask 11000000
          188 114 rmoveto
          -16 -12 39 49 91 41 94 41 30 37 -17 -11 21 hvcurveto
          -140 -57 -59 -105 -26 hhcurveto
          -28 -114 rmoveto
          41 29 28 36 73 123 9 -3 rcurveline
          -23 -191 rlineto
          -92 -12 -55 -53 -77 hhcurveto
          -52 -51 31 30 13 70 43 49 34 hvcurveto
          233 17 rmoveto
          6 52 6 140 6 50 5 49 22 72 33 66 -11 18 rcurveline
          hintmask 10100000
          -80 13 -12 -6 -8 -23 rlineto
          hintmask 11000000
          -88 18 rlineto
          -113 -122 -166 -153 -66 23 -49 39 -20 hvcurveto
          -1 -8 -67 -37 -72 -40 -33 -24 rlinecurve
          -3 -8 -7 -74 81 -63 103 1 rlinecurve
          115 164 144 114 14 hvcurveto
          endchar
        </CharString>
        <CharString name="g.sups">
          -48 183 68 334 59 7 -20 hstemhm
          hintmask 11000000
          140 421 rmoveto
          -9 -7 22 30 54 23 58 21 21 25 -13 -4 8 hvcurveto
          -79 -29 -37 -68 -16 hhcurveto
          -23 -84 rmoveto
          25 17 18 22 51 83 6 -2 rcurveline
          -14 -120 rlineto
          -55 -7 -33 -31 -49 hhcurveto
          -34 -31 17 18 7 40 25 28 19 hvcurveto
          169 19 rmoveto
          4 37 4 94 3 26 4 31 14 49 17 36 -9 14 rcurveline
          hintmask 10100000
          -67 8 -10 -5 -5 -14 rlineto
          hintmask 11000000
          -53 12 rlineto
          -78 -83 -109 -101 -43 16 -33 29 -13 hvcurveto
          -1 -5 -40 -21 -48 -25 -22 -13 rlinecurve
          -2 -7 -6 -51 55 -41 73 1 rlinecurve
          78 118 100 73 9 hvcurveto
          endchar
        </CharString>
        <CharString name="gbreve">
          0 callsubr
          76 95 68 -20 hstem
          -98 callsubr
          -72 620 -93 callsubr
          endchar
        </CharString>
        <CharString name="gcircumflex">
          0 callsubr
          263 -20 hstem
          -98 callsubr
          -206 517 -106 callsubr
        </CharString>
        <CharString name="gcommaaccent">
          0 callsubr
          0 54 267 -32 callsubr
          -98 callsubr
          -10 552 -55 callsubr
          hintmask 10110000
          -9 callgsubr
          endchar
        </CharString>
        <CharString name="gdotaccent">
          0 callsubr
          108 152 hstem
          -98 callsubr
          -91 557 -56 callgsubr
        </CharString>
        <CharString name="germandbls">
          222 -242 80 150 80 587 87 hstem
          24 393 rmoveto
          71 -2 9 -7 -27 -351 -16 -206 7 82 3 9 rlinecurve
          -50 -3 -29 -30 -37 hhcurveto
          -45 -24 27 54 -2 hvcurveto
          -16 hlineto
          -17 -24 -26 -53 -9 -30 rrcurveto
          -31 11 48 -23 52 hhcurveto
          94 91 91 109 12 hvcurveto
          66 598 rlineto
          69 10 32 30 53 hhcurveto
          61 32 -34 -44 hvcurveto
          -82 -131 -35 -106 -125 175 -13 -81 vvcurveto
          -35 -30 -32 -34 -47 -27 35 53 4 vhcurveto
          -20 1 -22 -25 -29 -56 -5 -29 rlinecurve
          -33 4 58 -26 66 hhcurveto
          117 95 81 102 hvcurveto
          133 -179 14 75 75 129 32 114 vvcurveto
          76 -76 52 -103 -122 -117 -101 -120 -14 vhcurveto
          1 callgsubr
          rlineto
          endchar
        </CharString>
        <CharString name="grave">
          -4 544 -21 213 -20 hstem
          75 651 -81 callsubr
          endchar
        </CharString>
        <CharString name="grave.cap">
          -4 718 -21 160 -20 hstem
          63 762 -85 callgsubr
        </CharString>
        <CharString name="greater">
          62 78 -21 424 -20 hstem
          428 325 rmoveto
          0 -109 51 -63 30 vhcurveto
          -70 35 -77 40 0 vvcurveto
          -50 -65 3 -16 rlineto
          0 78 -38 70 -34 vhcurveto
          121 -60 -1 -7 44 callgsubr
          12 -77 11 -7 rlineto
          0 94 39 85 36 vhcurveto
          193 82 13 98 rlineto
          endchar
        </CharString>
        <CharString name="greaterequal">
          82 -97 88 -69 -21 580 -42 callsubr
          437 325 rmoveto
          -24 10 -78 38 -55 27 -32 16 rcurveline
          -66 32 -63 33 0 vvcurveto
          -50 -65 rlineto
          -6 2 -5 1 -5 vhcurveto
          0 78 -38 70 -34 vhcurveto
          120 -60 rlineto
          -7 vlineto
          44 callgsubr
          11 -77 13 -7 rlineto
          0 92 39 85 36 vhcurveto
          194 82 12 98 rlineto
          -37 -317 11 callgsubr
          7 -14 rlineto
          hintmask 10100000
          82 182 2 137 hhcurveto
          20 77 rlineto
          endchar
        </CharString>
        <CharString name="guillemotleft">
          48 35 callgsubr
          396 411 -62 callgsubr
          -219 25 -62 callgsubr
          endchar
        </CharString>
        <CharString name="guillemotright">
          48 35 callgsubr
          265 44 -62 callsubr
          -141 -25 -62 callsubr
          endchar
        </CharString>
        <CharString name="guilsinglleft">
          -132 35 callgsubr
          194 411 -62 callgsubr
          endchar
        </CharString>
        <CharString name="guilsinglright">
          -132 35 callgsubr
          62 44 -62 callsubr
          endchar
        </CharString>
        <CharString name="h">
          34 callgsubr
          9 -20 hstemhm
          hintmask 01101000
          -46 callgsubr
          33 217 58 254 0 vvcurveto
          -12 16 rlineto
          hintmask 01110000
          -53 callgsubr
          29 10 -11 -30 -2 hvcurveto
          -6 -59 -89 -561 -52 callgsubr
          hintmask 10110000
          -32 callgsubr
          endchar
        </CharString>
        <CharString name="h.sups">
          -27 354 -21 22 -21 316 -20 189 -20 hstemhm
          hintmask 01110000
          280 425 rmoveto
          7 35 37 90 33 vvcurveto
          40 -33 27 -52 vhcurveto
          -29 -18 -33 -46 -33 -70 -5 callsubr
          18 7 -7 -20 -2 hvcurveto
          -6 -45 -55 -349 0 vvcurveto
          10 13 callsubr
          43 rlineto
          88 34 37 63 19 hhcurveto
          9 8 callgsubr
          31 23 68 64 23 callgsubr
        </CharString>
        <CharString name="hbar">
          118 10 -21 24 -21 354 225 -97 -20 62 55 98 59 9 -20 hstemhm
          hintmask 01011010
          -46 callgsubr
          13 89 18 95 16 82 rrcurveto
          100 hlineto
          4 46 -14 14 -78 -4 rlineto
          18 88 14 61 -64 callsubr
          hintmask 01100100
          -53 callgsubr
          29 10 -11 -30 -2 hvcurveto
          -8 -57 -94 1 -8 -48 10 -9 rlineto
          84 hlineto
          -27 -181 -52 -326 -52 callgsubr
          hintmask 10100100
          -32 callgsubr
          endchar
        </CharString>
        <CharString name="hcircumflex">
          34 callgsubr
          239 42 callgsubr
          -46 callgsubr
          33 217 58 254 0 vvcurveto
          -12 16 rlineto
          -53 callgsubr
          29 10 -11 -30 -2 hvcurveto
          -6 -59 -89 -561 -52 callgsubr
          hintmask 10111000
          -32 callgsubr
          -328 665 -106 callsubr
        </CharString>
        <CharString name="hungarumlaut">
          -4 552 -21 196 -20 hstem
          248 677 -71 callsubr
        </CharString>
        <CharString name="hungarumlaut.cap">
          -4 701 -21 177 -20 hstem
          276 794 -71 callgsubr
        </CharString>
        <CharString name="hyphen">
          -76 215 -21 119 -20 hstem
          280 313 rmoveto
          0 -18 -4 -55 -6 vhcurveto
          -159 -19 -17 -78 8 -12 231 26 18 80 rlineto
          endchar
        </CharString>
        <CharString name="i">
          -105 20 callgsubr
          117 151 hstem
          180 570 -45 callsubr
          -11 -461 rmoveto
          -66 callsubr
          -61 callsubr
          -74 vhcurveto
          -10 -13 callsubr
          -27 -32 -48 -286 0 hvcurveto
          -33 14 -17 33 38 49 36 94 87 vhcurveto
          -17 -43 callgsubr
          -44 -50 -8 -6 -8 hhcurveto
          endchar
        </CharString>
        <CharString name="i.sups">
          -175 352 -21 260 -20 132 110 hstem
          133 423 rmoveto
          14 105 29 103 0 vvcurveto
          -10 11 39 callgsubr
          17 8 -7 -16 hvcurveto
          -36 vlineto
          -188 -20 -13 26 29 33 23 69 62 7 callsubr
          -27 -31 -4 -3 -5 hhcurveto
          -7 282 rmoveto
          39 26 27 40 28 -16 15 -28 -39 -27 -26 -39 -27 16 -18 29 hvcurveto
          endchar
        </CharString>
        <CharString name="iacute">
          -7 callgsubr
          284 -20 hstem
          308 666 -95 callgsubr
          -138 -543 rmoveto
          -66 callsubr
          -61 callsubr
          -74 vhcurveto
          -10 -13 callsubr
          -27 -32 -48 -286 0 hvcurveto
          -33 14 -17 33 38 49 36 94 87 vhcurveto
          -17 -43 callgsubr
          -44 -50 -8 -6 -8 hhcurveto
          endchar
        </CharString>
        <CharString name="ibreve">
          -7 callgsubr
          89 95 68 -20 hstem
          188 637 -93 callsubr
          -19 -528 rmoveto
          -66 callsubr
          -61 callsubr
          -74 vhcurveto
          -10 -13 callsubr
          -27 -32 -48 -286 0 hvcurveto
          -33 14 -17 33 38 49 36 94 87 vhcurveto
          -17 -43 callgsubr
          -44 -50 -8 -6 -8 hhcurveto
          endchar
        </CharString>
        <CharString name="icircumflex">
          -7 callgsubr
          276 -20 hstem
          169 -1 callgsubr
          -66 callsubr
          -61 callsubr
          -74 vhcurveto
          -10 -13 callsubr
          -27 -32 -48 -286 0 hvcurveto
          -33 14 -17 33 38 49 36 94 87 vhcurveto
          -17 -43 callgsubr
          -44 -50 -8 -6 -8 hhcurveto
          -122 429 -106 callsubr
        </CharString>
        <CharString name="idieresis">
          -7 callgsubr
          110 128 hstem
          263 563 -91 callsubr
          80 -454 rmoveto
          -66 callsubr
          -61 callsubr
          -74 vhcurveto
          -10 -13 callsubr
          -27 -32 -48 -286 0 hvcurveto
          -33 14 -17 33 38 49 36 94 87 vhcurveto
          -17 -43 callgsubr
          -44 -50 -8 -6 -8 hhcurveto
          endchar
        </CharString>
        <CharString name="idotaccent">
          -105 20 callgsubr
          117 151 hstem
          180 570 -45 callsubr
          -11 -461 rmoveto
          -66 callsubr
          -61 callsubr
          -74 vhcurveto
          -10 -13 callsubr
          -27 -32 -48 -286 0 hvcurveto
          -33 14 -17 33 38 49 36 94 87 vhcurveto
          -17 -43 callgsubr
          -44 -50 -8 -6 -8 hhcurveto
          endchar
        </CharString>
        <CharString name="igrave">
          -7 callgsubr
          283 -20 hstem
          45 651 -81 callsubr
          126 -556 rmoveto
          -66 callsubr
          -61 callsubr
          -74 vhcurveto
          -10 -13 callsubr
          -27 -32 -48 -286 0 hvcurveto
          -33 14 -17 33 38 49 36 94 87 vhcurveto
          -17 -43 callgsubr
          -44 -50 -8 -6 -8 hhcurveto
          endchar
        </CharString>
        <CharString name="ij">
          167 -223 -21 253 -33 callgsubr
          117 151 hstem
          180 570 -45 callsubr
          -11 -461 rmoveto
          -66 callsubr
          -61 callsubr
          -74 vhcurveto
          -10 -13 callsubr
          -27 -32 -48 -286 0 hvcurveto
          -33 14 -17 33 38 49 36 94 87 vhcurveto
          -17 -43 callgsubr
          -44 -50 -8 -6 -8 hhcurveto
          274 -87 -35 callgsubr
          -77 callgsubr
          23 552 rmoveto
          51 37 38 54 37 -21 22 -37 -52 -37 -37 -53 -37 22 -24 37 hvcurveto
          endchar
        </CharString>
        <CharString name="imacron">
          -7 callgsubr
          128 85 27 callgsubr
          324 672 rmoveto
          hintmask 11100000
          0 -71 -6 -46 -54 -87 1 0 vhcurveto
          -22 -76 9 -11 rlineto
          0 73 1 54 vhcurveto
          129 1 21 76 rlineto
          hintmask 11010000
          -161 -549 rmoveto
          -66 callsubr
          -61 callsubr
          -74 vhcurveto
          -10 -13 callsubr
          -27 -32 -48 -286 0 hvcurveto
          -33 14 -17 33 38 49 36 94 87 vhcurveto
          -17 -43 callgsubr
          -44 -50 -8 -6 -8 hhcurveto
          endchar
        </CharString>
        <CharString name="infinity">
          109 97 92 -74 -21 220 100 hstemhm
          hintmask 10100000
          166 411 rmoveto
          -80 -75 -82 -106 -68 38 -58 60 58 34 44 35 21 hvcurveto
          hintmask 01100000
          -45 19 30 -37 60 hhcurveto
          84 77 82 110 70 -36 58 -61 -61 -36 -47 -35 -21 hvcurveto
          44 -21 -33 35 -57 hhcurveto
          hintmask 10100000
          -30 -222 rmoveto
          -36 -19 23 33 42 25 27 30 37 16 -41 -47 15 hvcurveto
          -16 -15 -21 -21 -32 hhcurveto
          230 134 rmoveto
          39 21 -26 -35 -44 -26 -27 -33 -36 -15 44 50 -18 hvcurveto
          17 14 22 21 32 hhcurveto
          endchar
        </CharString>
        <CharString name="integral">
          25 -161 72 613 75 hstem
          132 hmoveto
          -64 -1 -20 -25 39 callsubr
          -15 -16 -55 -23 vvcurveto
          -21 46 -21 41 95 88 85 115 6 vhcurveto
          25 417 rlineto
          47 3 20 21 33 hhcurveto
          29 27 -21 -33 24 hvcurveto
          16 2 rlineto
          11 15 17 62 20 vvcurveto
          16 -45 14 -45 -101 -103 -87 -86 -2 vhcurveto
          endchar
        </CharString>
        <CharString name="iogonek">
          -95 -237 72 559 59 117 151 hstem
          204 -141 rmoveto
          0 -39 -24 -32 -26 -16 17 25 54 57 52 125 135 vhcurveto
          -17 -43 callgsubr
          -44 -50 -8 -6 -8 hhcurveto
          -4 4 rlineto
          -66 callsubr
          -61 callsubr
          -74 vhcurveto
          -10 -13 callsubr
          -27 -32 -48 -286 0 hvcurveto
          -32 13 -17 30 -1 vhcurveto
          -60 -58 -29 -41 -45 vvcurveto
          -51 41 -30 66 vhcurveto
          49 17 58 50 0 vvcurveto
          -40 740 -45 callsubr
          endchar
        </CharString>
        <CharString name="itilde">
          -7 callgsubr
          108 7 callgsubr
          hintmask 11011000
          49 539 -79 callsubr
          131 -430 rmoveto
          -66 callsubr
          -61 callsubr
          -74 vhcurveto
          -10 -13 callsubr
          -27 -32 -48 -286 0 hvcurveto
          -33 14 -17 33 38 49 36 94 87 vhcurveto
          -17 -43 callgsubr
          -44 -50 -8 -6 -8 hhcurveto
          endchar
        </CharString>
        <CharString name="j">
          -117 -223 -21 638 59 117 151 hstem
          164 24 callsubr
          -77 callgsubr
          23 552 rmoveto
          51 37 38 54 37 -21 22 -37 -52 -37 -37 -53 -37 22 -24 37 hvcurveto
          endchar
        </CharString>
        <CharString name="j.sups">
          -181 201 -21 411 -20 65 67 0 110 hstemhm
          hintmask 11100000
          130 350 rmoveto
          24 164 30 117 0 vvcurveto
          -9 11 rlineto
          0 -82 -6 -53 vhcurveto
          -8 -45 rlineto
          21 hlineto
          18 7 -7 -16 -21 -33 -185 0 hvcurveto
          -10 -82 -17 -33 -48 -36 -3 -8 rcurveline
          22 -23 78 36 53 61 10 73 rlinecurve
          6 353 rmoveto
          38 28 27 40 hvcurveto
          hintmask 11010000
          28 -17 15 -27 -40 -26 -25 -40 -28 16 -17 28 vhcurveto
          endchar
        </CharString>
        <CharString name="jcircumflex">
          -114 -223 -21 638 59 277 -20 hstem
          164 24 callsubr
          -77 callgsubr
          -124 517 -106 callsubr
        </CharString>
        <CharString name="k">
          72 2 -21 32 38 callsubr
          hintmask 10101000
          -46 callsubr
          hintmask 01110000
          -48 callsubr
          endchar
        </CharString>
        <CharString name="k.sups">
          -55 350 -21 228 93 169 -20 hstem
          211 333 rmoveto
          8 -4 87 16 2 12 rlineto
          0 -37 60 -26 48 vhcurveto
          54 36 29 41 40 vvcurveto
          41 -34 27 -55 vhcurveto
          -29 -18 -34 -47 -32 -69 -5 callsubr
          17 7 -7 -16 -23 -62 -375 0 hvcurveto
          10 13 callsubr
          42 rlineto
          89 36 38 63 20 hhcurveto
          11 5 -6 -11 -34 -44 -21 -19 -9 hvcurveto
          -5 -12 rlineto
          endchar
        </CharString>
        <CharString name="kcommaaccent">
          72 -297 -21 331 38 callsubr
          hintmask 11101000
          -46 callsubr
          hintmask 11110000
          -48 callsubr
          -88 -288 -99 callsubr
        </CharString>
        <CharString name="kgreenlandic">
          132 21 -21 462 -20 32 -42 callsubr
          -1 -6 rmoveto
          0 67 6 48 38 68 -4 0 vhcurveto
          18 61 -2 6 rlineto
          0 -16 -2 -8 -17 -7 9 22 52 44 281 14 36 vhcurveto
          -7 13 rlineto
          0 -100 -13 -84 -7 vhcurveto
          -13 -54 5 -6 rlineto
          48 10 -12 -44 -5 hvcurveto
          -25 -204 -8 -58 -14 -13 -38 -6 rlinecurve
          279 11 rmoveto
          21 -51 18 -20 34 -7 10 -3 16 -1 17 1 rrcurveto
          25 1 47 11 0 vvcurveto
          13 50 -4 8 -36 3 -26 23 -24 48 rlinecurve
          -64 130 93 86 42 37 50 20 rlinecurve
          15 57 -2 5 rlineto
          hintmask 11000000
          0 -60 -4 -46 -49 -68 2 0 vhcurveto
          -15 -51 2 -5 rlineto
          34 14 -5 -13 -11 -4 -7 -20 -18 hvcurveto
          -102 -96 -6 -22 rlineto
          endchar
        </CharString>
        <CharString name="l">
          -118 9 -21 681 59 9 -42 callsubr
          157 -52 callsubr
          hintmask 11000000
          -61 callsubr
          -76 -34 callsubr
          hvcurveto
          -34 -91 -538 -26 vvcurveto
          -31 16 -16 31 39 -12 callgsubr
          -18 2 rlineto
          -44 -50 -8 -6 -8 hhcurveto
          endchar
        </CharString>
        <CharString name="l.sups">
          -184 352 -21 488 -20 hstem
          124 423 rmoveto
          16 119 57 266 3 callsubr
          hvcurveto
          -20 -59 -338 -19 vvcurveto
          -24 12 -13 25 30 32 23 69 63 7 callsubr
          -27 -32 -3 -3 -5 hhcurveto
          endchar
        </CharString>
        <CharString name="lacute">
          -118 9 -21 681 59 248 -20 hstem
          157 -52 callsubr
          -61 callsubr
          -76 -34 callsubr
          hvcurveto
          -34 -91 -538 -26 vvcurveto
          -31 16 -16 31 39 -12 callgsubr
          -18 2 rlineto
          -44 -50 -8 -6 -8 hhcurveto
          158 800 -95 callgsubr
          endchar
        </CharString>
        <CharString name="lcaron">
          -15 9 -21 681 59 9 -42 callsubr
          157 -52 callsubr
          hintmask 11000000
          -61 callsubr
          -76 -34 callsubr
          hvcurveto
          -34 -91 -538 -26 vvcurveto
          -31 16 -16 31 39 -12 callgsubr
          -18 2 rlineto
          -44 -50 -8 -6 -8 hhcurveto
          256 591 -65 callgsubr
          107 28 109 -31 callgsubr
        </CharString>
        <CharString name="lcommaaccent">
          -118 -297 -21 327 -21 681 59 9 -32 callsubr
          157 -52 callsubr
          hintmask 11100000
          -61 callsubr
          -76 -34 callsubr
          hvcurveto
          -34 -91 -538 -26 vvcurveto
          -31 16 -16 31 39 -12 callgsubr
          -18 2 rlineto
          -44 -50 -8 -6 -8 hhcurveto
          -150 -205 -99 callsubr
        </CharString>
        <CharString name="ldot">
          -11 9 -21 224 158 299 59 9 -32 callsubr
          157 -52 callsubr
          hintmask 11100000
          -61 callsubr
          -76 -34 callsubr
          hvcurveto
          -34 -91 -538 -26 vvcurveto
          -31 16 -16 31 39 -12 callgsubr
          -18 2 rlineto
          -44 -50 -8 -6 -8 hhcurveto
          139 107 -30 callsubr
        </CharString>
        <CharString name="less">
          62 78 -21 424 -20 hstem
          33 213 rmoveto
          0 108 -51 63 -31 vhcurveto
          70 -35 77 -39 0 vvcurveto
          50 65 -3 15 rlineto
          0 -78 38 -70 34 vhcurveto
          -121 60 1 7 122 50 rlineto
          79 33 103 38 0 vvcurveto
          -11 76 -12 -7 callsubr
          -93 -40 -85 -36 vhcurveto
          -193 -82 -14 -97 rlineto
          endchar
        </CharString>
        <CharString name="lessequal">
          82 -97 88 -69 -21 580 -42 callsubr
          42 213 rmoveto
          158 -76 32 -15 rlineto
          66 -33 63 -33 1 vvcurveto
          49 65 rlineto
          5 -1 5 -1 5 vhcurveto
          0 -78 38 -70 34 vhcurveto
          -121 60 1 7 122 50 rlineto
          79 33 103 38 0 vvcurveto
          -12 76 -11 -7 callsubr
          -94 -40 -85 -36 vhcurveto
          -193 -82 -13 -97 rlineto
          372 -231 11 callgsubr
          6 -14 rlineto
          hintmask 10100000
          83 182 2 136 hhcurveto
          20 77 rlineto
          endchar
        </CharString>
        <CharString name="logicalnot">
          100 42 -21 201 99 6 -42 callsubr
          449 327 rmoveto
          hintmask 11000000
          0 -111 -6 -71 -86 -139 1 0 vhcurveto
          -26 -91 7 -10 rlineto
          0 132 1 87 vhcurveto
          91 hlineto
          -12 -92 -13 -102 0 vvcurveto
          9 -7 93 14 rlineto
          0 7 66 9 70 vhcurveto
          9 73 19 70 -31 callgsubr
        </CharString>
        <CharString name="lozenge">
          119 -73 -21 745 -20 hstem
          52 257 rmoveto
          56 -166 54 -178 12 -7 98 5 106 188 90 164 5 38 -55 161 -57 182 -10 7 -99 -4 -103 -185 -93 -170 rlineto
          162 130 rmoveto
          70 130 rlineto
          7 hlineto
          45 -141 41 -131 -77 -146 -68 -128 rlineto
          -7 hlineto
          -45 140 -40 128 rlineto
          endchar
        </CharString>
        <CharString name="lslash">
          -118 9 -21 681 59 9 -42 callsubr
          157 -1 callgsubr
          9 67 15 88 16 89 98 51 rcurveline
          -18 61 -8 4 -55 -29 rlineto
          29 150 28 131 -64 callsubr
          hintmask 11000000
          -61 callsubr
          -76 -34 callsubr
          -15 -17 -108 -19 -120 hvcurveto
          -95 -50 18 -62 9 -2 54 28 rlineto
          -21 -133 -20 -124 -12 vvcurveto
          -31 16 -16 31 39 -12 callgsubr
          -18 2 rlineto
          -44 -50 -8 -6 -8 hhcurveto
          endchar
        </CharString>
        <CharString name="m">
          376 10 -21 24 -21 354 128 -80 59 -4 callgsubr
          645 110 rmoveto
          14 64 60 144 56 vvcurveto
          60 -43 40 -67 vhcurveto
          -51 -31 -59 -81 -54 -113 -5 1 rcurveline
          0 28 95 30 vvcurveto
          58 -45 41 -65 vhcurveto
          -50 -30 -55 -79 -55 -116 -5 1 rcurveline
          15 96 32 100 -21 callsubr
          hintmask 01010000
          -61 callsubr
          -74 30 callgsubr
          35 hlineto
          29 11 -11 -30 -2 hvcurveto
          -5 -45 -49 -300 -10 callgsubr
          hintmask 01100000
          145 56 60 100 32 hhcurveto
          17 9 -12 -20 -38 -65 -268 0 hvcurveto
          13 -16 rlineto
          45 56 20 17 2 hvcurveto
          9 57 rlineto
          152 62 68 108 34 hhcurveto
          16 10 -13 -22 hvcurveto
          -53 -72 -174 -51 vvcurveto
          hintmask 10100000
          -30 16 -14 32 37 47 35 95 91 vhcurveto
          -16 35 -18 3 rlineto
          -44 -51 -8 -6 -7 hhcurveto
          endchar
        </CharString>
        <CharString name="m.sups">
          147 354 -21 22 -21 223 93 -59 -28 callgsubr
          454 425 rmoveto
          8 35 37 91 33 vvcurveto
          40 -32 26 -52 vhcurveto
          -30 -18 -34 -48 -32 -68 rrcurveto
          -3 hlineto
          0 14 50 18 vvcurveto
          40 -33 26 -50 vhcurveto
          -30 -18 -32 -47 -33 -69 rrcurveto
          -3 12 callsubr
          hintmask 01010000
          -14 callsubr
          43 rlineto
          hintmask 01100000
          89 34 36 62 18 hhcurveto
          11 5 -6 -13 -25 -42 -166 0 hvcurveto
          10 -22 callgsubr
          4 34 rlineto
          93 38 41 67 20 hhcurveto
          10 5 -8 -13 hvcurveto
          -31 -44 -109 -30 vvcurveto
          hintmask 10100000
          -23 11 -10 26 29 32 23 68 64 vhcurveto
          -11 26 -14 3 rlineto
          -27 -31 -5 -3 -4 hhcurveto
          endchar
        </CharString>
        <CharString name="macron">
          -4 581 85 -65 -21 92 -28 callgsubr
          388 672 rmoveto
          hintmask 10000000
          0 -75 -6 -48 -57 -92 1 0 vhcurveto
          -23 -76 rlineto
          hintmask 01100000
          9 -11 rlineto
          hintmask 10000000
          0 77 1 57 vhcurveto
          136 1 22 76 rlineto
          endchar
        </CharString>
        <CharString name="macron.cap">
          -4 713 86 -66 -21 93 -28 callgsubr
          403 805 rmoveto
          hintmask 10000000
          0 -74 -6 -49 -56 -92 1 0 vhcurveto
          -23 -76 rlineto
          hintmask 01100000
          9 -12 rlineto
          hintmask 10000000
          0 77 1 57 vhcurveto
          136 1 22 77 rlineto
          endchar
        </CharString>
        <CharString name="minus">
          100 207 99 -79 -21 106 -28 callgsubr
          476 312 rmoveto
          hintmask 10000000
          0 -133 -6 -78 -86 -139 37 callgsubr
          hintmask 10000000
          0 132 1 87 vhcurveto
          219 1 22 92 rlineto
          endchar
        </CharString>
        <CharString name="mu">
          127 -221 -21 230 104 -82 -21 485 -20 hstemhm
          hintmask 10110000
          83 450 rmoveto
          -9 -17 rlineto
          0 3 -52 -7 -54 vhcurveto
          -39 -254 rlineto
          -24 -161 -29 -141 0 vvcurveto
          9 -13 111 20 8 9 rlineto
          0 0 71 8 51 vhcurveto
          13 94 5 3 rlineto
          -10 11 16 -7 21 hhcurveto
          27 5 51 44 29 29 8 -4 rcurveline
          hintmask 11010000
          -50 -1 33 -25 58 hhcurveto
          50 12 65 88 0 vvcurveto
          -13 21 rlineto
          0 -24 -17 -22 -19 -10 13 21 38 48 260 19 31 vhcurveto
          -8 17 -140 -23 -10 -17 rlineto
          0 4 -50 -6 -47 vhcurveto
          -24 -204 rlineto
          -4 -7 -41 -33 -32 hhcurveto
          -36 -16 22 41 25 38 231 24 44 hvcurveto
          -7 17 rlineto
          endchar
        </CharString>
        <CharString name="multiply">
          100 75 -21 398 -20 hstem
          392 452 rmoveto
          0 -78 -78 -59 -56 vhcurveto
          -48 57 -55 68 0 vvcurveto
          -81 -53 -4 -14 rlineto
          0 59 -70 50 -59 vhcurveto
          -61 -56 -67 -62 0 vvcurveto
          43 -72 12 -3 rlineto
          0 70 67 63 58 vhcurveto
          104 -123 78 58 7 13 rlineto
          0 -63 67 -47 55 vhcurveto
          137 128 -48 70 rlineto
          endchar
        </CharString>
        <CharString name="n">
          -15 callgsubr
          hstemhm
          hintmask 01110000
          400 110 rmoveto
          13 64 59 143 -96 callgsubr
          hvcurveto
          -54 -69 -172 -52 vvcurveto
          hintmask 10110000
          -61 callgsubr
          endchar
        </CharString>
        <CharString name="n.sups">
          -19 354 -21 22 -21 257 -20 79 -20 hstemhm
          hintmask 01110000
          289 425 rmoveto
          7 35 36 91 32 vvcurveto
          41 -32 26 -52 vhcurveto
          -29 -18 -33 -46 -33 -70 rrcurveto
          -4 12 callsubr
          -14 callsubr
          42 rlineto
          89 34 37 63 18 hhcurveto
          10 8 callgsubr
          32 24 67 63 23 callgsubr
        </CharString>
        <CharString name="nacute">
          -15 callgsubr
          283 42 callgsubr
          400 110 rmoveto
          13 64 59 143 -96 callgsubr
          hvcurveto
          -54 -69 -172 -52 vvcurveto
          hintmask 10111000
          -61 callgsubr
          48 559 -95 callgsubr
          endchar
        </CharString>
        <CharString name="nbspace">
          -222 endchar
        </CharString>
        <CharString name="ncaron">
          -15 callgsubr
          270 42 callgsubr
          400 110 rmoveto
          13 64 59 143 -96 callgsubr
          hvcurveto
          -54 -69 -172 -52 vvcurveto
          hintmask 10111000
          -61 callgsubr
          -236 572 -87 callgsubr
        </CharString>
        <CharString name="ncommaaccent">
          131 -297 -21 267 40 24 -21 402 59 21 -20 hstem
          400 110 rmoveto
          13 64 59 143 -96 callgsubr
          hvcurveto
          -54 -69 -172 -52 vvcurveto
          -61 callgsubr
          -250 -207 -99 callsubr
        </CharString>
        <CharString name="nine">
          60 -80 -21 238 88 204 81 hstem
          23 -40 rmoveto
          14 -55 9 -6 rlineto
          0 387 101 325 vvcurveto
          109 -61 76 -104 23 callsubr
          52 31 9 3 4 -7 rcurveline
          -78 -150 -161 -57 0 vvcurveto
          200 265 rmoveto
          -45 -25 37 51 71 30 45 59 45 24 -40 6 callgsubr
          -14 -32 -18 -32 hhcurveto
          endchar
        </CharString>
        <CharString name="nine.dnom">
          -69 13 37 callsubr
          39 -60 callgsubr
        </CharString>
        <CharString name="nine.lf">
          60 9 -21 238 88 203 82 hstem
          34 48 rmoveto
          13 -54 10 -6 rlineto
          0 387 100 326 vvcurveto
          108 -62 77 -103 23 callsubr
          38 20 24 14 3 -7 rcurveline
          -78 -150 -161 -58 0 vvcurveto
          200 266 rmoveto
          -45 -25 37 51 71 30 44 59 45 24 -39 6 callgsubr
          -15 -31 -18 -32 hhcurveto
          endchar
        </CharString>
        <CharString name="nine.numr">
          -69 274 -21 149 247 -181 -20 139 62 hstemhm
          hintmask 11000000
          30 300 rmoveto
          11 -43 7 -4 rlineto
          0 261 62 212 vvcurveto
          73 -45 49 -70 -98 -64 -62 -87 -56 33 -42 61 vhcurveto
          15 3 19 10 15 7 2 -6 rcurveline
          -53 -84 -94 -32 0 vvcurveto
          hintmask 10110000
          134 168 rmoveto
          -24 -14 20 30 43 15 26 36 26 13 -22 -37 -14 -2 -15 -5 -17 hvcurveto
          -5 -9 -17 -9 -19 hhcurveto
          endchar
        </CharString>
        <CharString name="nine.sinf">
          -69 -107 37 callsubr
          -81 -60 callgsubr
        </CharString>
        <CharString name="nine.sups">
          -69 353 -21 149 247 -63 63 hstemhm
          hintmask 11000000
          30 378 rmoveto
          11 -43 7 -3 rlineto
          0 261 62 212 vvcurveto
          73 -45 49 -70 -98 -64 -62 -87 -57 33 -41 61 vhcurveto
          15 3 19 9 15 8 2 -6 rcurveline
          -53 -84 -94 -33 0 vvcurveto
          134 169 rmoveto
          -24 -14 19 31 hvcurveto
          hintmask 10100000
          43 15 25 36 26 13 -21 -37 -14 -2 -15 -5 -17 vhcurveto
          -5 -9 -17 -9 -19 hhcurveto
          endchar
        </CharString>
        <CharString name="nine.tf">
          67 9 -21 238 88 203 82 hstem
          36 48 rmoveto
          13 -54 9 -6 rlineto
          0 390 100 325 vvcurveto
          109 -61 77 -105 -141 -98 -97 -127 -81 50 -68 95 vhcurveto
          24 3 38 20 25 14 3 -7 rcurveline
          -79 -150 -163 -58 0 vvcurveto
          201 266 rmoveto
          -46 -26 37 51 71 31 44 60 46 25 -39 6 callgsubr
          -16 -31 -18 -33 hhcurveto
          endchar
        </CharString>
        <CharString name="nine.tosf">
          57 -80 -21 238 88 204 81 hstem
          22 -40 rmoveto
          13 -55 9 -6 rlineto
          0 386 101 325 vvcurveto
          109 -60 76 -104 -139 -97 -97 -127 -81 49 -68 93 vhcurveto
          24 3 50 31 10 3 3 -7 rcurveline
          -76 -150 -161 -57 0 vvcurveto
          199 265 rmoveto
          -44 -26 37 51 71 31 45 58 45 24 -40 6 callgsubr
          -14 -31 -18 -33 hhcurveto
          endchar
        </CharString>
        <CharString name="notequal">
          100 13 -21 127 99 79 99 -99 231 2 -20 hstem
          485 402 rmoveto
          0 -89 -5 -74 -1 vhcurveto
          41 125 -6 9 -71 -4 -42 -130 rlineto
          -84 -111 1 0 hvcurveto
          18 callsubr
          102 1 83 vhcurveto
          -26 -79 rlineto
          -78 -84 1 0 hvcurveto
          18 callsubr
          76 1 74 vhcurveto
          -37 -118 4 -9 71 6 40 121 rlineto
          25 hlineto
          62 62 1 62 hhcurveto
          21 92 -4 12 rlineto
          0 -125 -6 -73 vhcurveto
          26 79 rlineto
          59 59 1 59 hhcurveto
          21 92 rlineto
          endchar
        </CharString>
        <CharString name="ntilde">
          -15 callgsubr
          107 7 callgsubr
          hintmask 01111010
          400 110 rmoveto
          13 64 59 143 -96 callgsubr
          hvcurveto
          -54 -69 -172 -52 vvcurveto
          hintmask 10110110
          -61 callgsubr
          -219 432 rmoveto
          0 46 56 24 vhcurveto
          hintmask 01111010
          -79 callgsubr
          hintmask 01110110
          -37 callsubr
        </CharString>
        <CharString name="numbersign">
          122 54 -21 144 80 94 81 145 -20 hstem
          62 351 rmoveto
          90 hlineto
          -13 -42 -16 -52 -97 1 -22 -69 4 -12 91 1 -43 -137 9 -8 73 11 41 134 37 1 53 -1 -44 -137 10 -8 72 11 41 134 rlineto
          98 hlineto
          21 69 -4 12 -92 -1 20 65 9 28 rlineto
          100 hlineto
          22 70 -4 12 -93 -2 46 140 -10 6 -74 -7 -43 -140 -44 1 rlineto
          -44 hlineto
          46 140 -10 6 -74 -7 -43 -139 -95 1 -22 -70 rlineto
          164 -39 rmoveto
          9 29 rlineto
          91 hlineto
          -13 -43 -17 -53 -48 1 rlineto
          -42 hlineto
          endchar
        </CharString>
        <CharString name="o">
          -23 callgsubr
          hstem
          -98 callgsubr
          endchar
        </CharString>
        <CharString name="o.sups">
          -48 callgsubr
        </CharString>
        <CharString name="oacute">
          -23 callgsubr
          263 -20 hstem
          -98 callgsubr
          239 678 -95 callgsubr
          endchar
        </CharString>
        <CharString name="obreve">
          -23 callgsubr
          68 95 68 -20 hstem
          -98 callgsubr
          106 649 -93 callsubr
          endchar
        </CharString>
        <CharString name="ocircumflex">
          -23 callgsubr
          256 -20 hstem
          -98 callgsubr
          -34 547 -106 callsubr
        </CharString>
        <CharString name="odieresis">
          -23 callgsubr
          89 128 hstem
          -98 callgsubr
          180 575 -91 callsubr
          endchar
        </CharString>
        <CharString name="oe">
          295 -12 80 -80 97 300 88 1 -42 callsubr
          675 40 callsubr
          -66 -62 -38 -59 -44 vhcurveto
          hintmask 10010000
          63 -16 -40 35 -66 hhcurveto
          -141 -106 -134 -173 -112 55 -67 89 70 58 34 56 41 hvcurveto
          -57 19 38 -33 57 hhcurveto
          74 82 57 77 36 hvcurveto
          -32 40 -18 2 rlineto
          hintmask 01100000
          -50 -28 -36 -29 -37 hhcurveto
          -40 -23 38 60 hvcurveto
          175 55 68 52 89 vvcurveto
          hintmask 10100000
          -465 -311 rmoveto
          -37 -23 49 82 110 34 76 49 40 21 -41 -81 -123 -32 -72 -52 hvcurveto
          324 317 -28 callsubr
        </CharString>
        <CharString name="ogonek">
          -3 -241 72 211 -20 hstem
          232 -145 -22 callsubr
          17 24 40 25 29 96 101 vhcurveto
          -54 hlineto
          -103 -94 -49 -51 -57 vvcurveto
          -51 -35 callsubr
          endchar
        </CharString>
        <CharString name="ograve">
          -23 callgsubr
          262 -20 hstem
          -98 callgsubr
          -45 663 -81 callsubr
          endchar
        </CharString>
        <CharString name="ohungarumlaut">
          -23 callgsubr
          253 -20 hstem
          -98 callgsubr
          149 689 -71 callsubr
        </CharString>
        <CharString name="omacron">
          -23 callgsubr
          107 85 27 callgsubr
          -98 callgsubr
          250 684 rmoveto
          hintmask 11100000
          -59 callgsubr
        </CharString>
        <CharString name="one">
          -35 0 65 445 -20 hstem
          271 402 rmoveto
          11 41 11 18 25 19 -7 30 rcurveline
          -1 -40 -7 -13 -95 hvcurveto
          -46 -7 -50 -6 -23 -2 -13 -57 rcurveline
          5 -7 rlineto
          0 30 5 18 35 13 -9 -48 -6 vhcurveto
          -27 -215 -7 -66 -24 -20 -66 -6 rlinecurve
          -14 -63 rlineto
          -1 -1 93 12 61 hhcurveto
          49 90 -4 0 hvcurveto
          19 67 -2 5 rlineto
          0 -24 -3 -23 -25 -11 13 33 78 26 122 19 91 vhcurveto
          endchar
        </CharString>
        <CharString name="one.dnom">
          -131 0 48 -34 -21 396 -28 callgsubr
          205 316 -67 callgsubr
        </CharString>
        <CharString name="one.lf">
          -35 0 65 -55 -21 515 -20 114 -20 hstemhm
          hintmask 01110000
          283 490 rmoveto
          10 41 12 18 25 20 -8 29 rcurveline
          -1 -41 -7 -13 -95 hvcurveto
          -45 -7 -51 -6 -22 -1 -13 -58 rcurveline
          5 -7 rlineto
          0 30 5 19 35 12 -8 -49 -6 vhcurveto
          -39 -318 -6 -53 -29 -19 -60 -5 rlinecurve
          -16 -63 rlineto
          hintmask 10110000
          0 93 11 62 49 90 -4 0 vhcurveto
          19 67 -2 5 rlineto
          0 -24 -3 -23 -26 -10 13 33 39 38 259 18 81 vhcurveto
          endchar
        </CharString>
        <CharString name="one.numr">
          -131 275 -21 395 -20 hstem
          205 577 -83 callgsubr
          endchar
        </CharString>
        <CharString name="one.sinf">
          -131 -120 48 -34 -21 396 -28 callgsubr
          205 196 -67 callgsubr
        </CharString>
        <CharString name="one.sups">
          -131 339 40 -26 -21 396 -42 callsubr
          205 656 rmoveto
          8 25 9 12 15 12 -6 23 rcurveline
          0 -39 -6 -62 -7 vhcurveto
          -29 -4 -32 -4 -21 -2 -9 -43 rcurveline
          4 -4 rlineto
          0 19 2 13 23 7 -6 -12 callsubr
          -32 -19 -12 -40 -3 rlinecurve
          hintmask 01100000
          -11 -47 rlineto
          hintmask 10100000
          0 67 7 44 34 61 -2 0 vhcurveto
          15 49 -2 3 rlineto
          0 -15 -1 -15 -16 -6 9 21 28 25 168 10 42 vhcurveto
          endchar
        </CharString>
        <CharString name="one.tf">
          67 0 52 -42 -21 515 -20 114 -20 hstemhm
          hintmask 10110000
          331 490 rmoveto
          10 41 14 18 28 20 -7 29 rcurveline
          -2 -34 -7 -13 -111 hvcurveto
          -54 -7 -61 -6 -19 -1 -12 -58 rcurveline
          5 -7 rlineto
          0 35 5 23 39 17 -8 -49 -5 vhcurveto
          -41 -318 -7 -53 -34 -19 -69 -5 rlinecurve
          hintmask 01110000
          -16 -63 rlineto
          hintmask 10110000
          0 102 11 67 57 101 -4 0 vhcurveto
          19 67 -2 5 rlineto
          0 -30 -3 -26 -32 -13 14 33 42 38 256 20 80 vhcurveto
          endchar
        </CharString>
        <CharString name="one.tosf">
          57 0 52 458 -20 hstem
          314 402 rmoveto
          12 41 10 18 30 19 -7 30 rcurveline
          -3 -32 -7 -13 -110 hvcurveto
          -54 -7 -60 -6 -19 -2 -13 -57 rcurveline
          5 -7 rlineto
          0 35 5 22 39 17 -9 -48 -6 vhcurveto
          -27 -215 -8 -66 -26 -20 -77 -6 rlinecurve
          -14 -63 rlineto
          -1 -1 101 12 66 hhcurveto
          56 100 -4 0 hvcurveto
          19 67 -2 5 rlineto
          0 -29 -3 -27 -31 -12 14 38 76 26 119 20 90 vhcurveto
          endchar
        </CharString>
        <CharString name="onedotenleader">
          -158 -11 158 hstem
          82 -11 rmoveto
          -77 callsubr
          endchar
        </CharString>
        <CharString name="onehalf">
          404 -72 -21 114 -21 71 230 377 -20 hstem
          598 653 -86 callgsubr
          -400 -57 -83 callgsubr
          242 -583 rmoveto
          55 6 rlineto
          -80 callgsubr
        </CharString>
        <CharString name="onequarter">
          374 -72 -21 90 163 -65 65 518 -20 hstem
          598 653 -86 callgsubr
          -400 -57 -83 callgsubr
          221 -481 -64 callgsubr
          -66 callgsubr
          endchar
        </CharString>
        <CharString name="ordfeminine">
          -75 callgsubr
        </CharString>
        <CharString name="ordmasculine">
          -48 callgsubr
        </CharString>
        <CharString name="oslash">
          56 -96 -21 105 80 317 89 98 -51 callsubr
          84 165 -33 callsubr
        </CharString>
        <CharString name="oslashacute">
          56 -96 -21 105 80 317 89 263 -51 callsubr
          344 632 -95 callgsubr
          -259 -453 -33 callsubr
        </CharString>
        <CharString name="otilde">
          -23 callgsubr
          87 7 callgsubr
          hintmask 11011000
          -98 callgsubr
          -28 551 -79 callsubr
          endchar
        </CharString>
        <CharString name="p">
          113 -229 61 -47 -21 232 87 311 59 21 42 callgsubr
          -41 -236 rmoveto
          hintmask 10111000
          0 128 7 121 vhcurveto
          11 55 -1 6 rlineto
          -44 hlineto
          -38 -9 11 38 5 hvcurveto
          19 131 96 -16 rlineto
          109 123 163 157 96 -50 62 -80 hvcurveto
          -48 -39 -44 -60 -60 -119 -6 1 rcurveline
          12 67 15 60 21 63 -12 15 rcurveline
          -61 callsubr
          -74 vhcurveto
          -10 -13 callsubr
          -26 -39 -54 -356 -18 -74 hvcurveto
          -12 -49 -11 -13 -34 -4 rrcurveto
          hintmask 01111000
          356 543 rmoveto
          16 14 -43 -51 -86 -38 -102 -39 -32 -44 19 9 -20 hvcurveto
          151 56 63 103 24 hhcurveto
          endchar
        </CharString>
        <CharString name="p.sups">
          -26 191 46 -30 -21 152 66 187 -20 79 42 callgsubr
          -25 186 rmoveto
          hintmask 10111000
          0 97 5 83 vhcurveto
          8 42 rlineto
          4 -30 vlineto
          -25 -6 6 26 3 hvcurveto
          12 81 64 -12 rlineto
          75 84 106 103 63 -35 40 -60 hvcurveto
          -30 -23 -28 -37 -36 -68 rrcurveto
          -4 hlineto
          6 37 9 37 12 35 -9 11 rcurveline
          0 -83 -6 -52 vhcurveto
          -8 -45 rlineto
          22 hlineto
          17 7 -7 -16 -27 -34 -213 -12 -55 hvcurveto
          -7 -31 -9 -9 -23 -3 rrcurveto
          hintmask 01111000
          244 341 rmoveto
          9 7 -23 -30 -50 -20 -64 -21 -23 -27 14 4 -8 hvcurveto
          89 31 39 60 13 hhcurveto
          endchar
        </CharString>
        <CharString name="paragraph">
          160 -100 76 601 69 -4 -42 callsubr
          304 121 rmoveto
          -106 -12 -24 -39 -67 hhcurveto
          -52 -32 46 83 6 hvcurveto
          -16 hlineto
          -28 -31 -27 -52 -33 vvcurveto
          -54 58 -35 66 148 94 115 156 19 vhcurveto
          11 84 32 227 14 51 7 34 10 8 47 4 3 4 rcurveline
          13 62 rlineto
          0 -107 -3 -33 vhcurveto
          hintmask 11000000
          -36 -56 4 -49 hhcurveto
          -142 -106 -104 -134 -127 96 -71 135 -5 hvcurveto
          3 24 rlineto
          -28 47 -13 48 61 vvcurveto
          111 33 81 63 24 2 -2 -13 -1 vhcurveto
          endchar
        </CharString>
        <CharString name="parenleft">
          -90 -125 -21 795 -20 hstem
          58 163 rmoveto
          -30 -242 161 -67 0 vvcurveto
          8 hlineto
          46 42 1 -7 callsubr
          -100 65 26 209 vhcurveto
          21 173 rlineto
          23 192 111 54 0 vvcurveto
          2 6 -27 46 rlineto
          -11 hlineto
          0 -180 -68 -30 -245 vhcurveto
          endchar
        </CharString>
        <CharString name="parenright">
          -86 -125 -21 795 -20 hstem
          246 340 rmoveto
          29 242 -160 67 0 vvcurveto
          -8 hlineto
          -46 -42 -1 -8 rlineto
          0 100 -65 -26 -209 vhcurveto
          -21 -173 rlineto
          -24 -192 -110 -54 0 vvcurveto
          -1 -6 26 -46 rlineto
          11 hlineto
          0 179 68 30 245 vhcurveto
          endchar
        </CharString>
        <CharString name="partialdiff">
          104 -13 77 310 88 279 -20 hstem
          302 438 rmoveto
          0 -33 20 -21 4 vhcurveto
          -121 -105 -128 -156 -110 61 -81 123 154 110 127 179 197 -132 162 -195 89 hvcurveto
          -14 -6 -39 -56 108 -67 73 -72 34 -97 rlinecurve
          27 -164 rmoveto
          -122 -44 -93 -51 -53 -28 47 74 116 41 73 63 42 19 -20 -9 9 vhcurveto
          1 -16 1 -30 -20 vvcurveto
          endchar
        </CharString>
        <CharString name="percent">
          304 -74 callgsubr
          94 -39 callgsubr
        </CharString>
        <CharString name="period">
          -158 -11 158 hstem
          82 -11 rmoveto
          -77 callsubr
          endchar
        </CharString>
        <CharString name="periodcentered">
          -158 161 158 hstem
          103 161 -30 callsubr
        </CharString>
        <CharString name="perthousand">
          627 -74 callgsubr
          344 100 rmoveto
          -45 -34 19 48 47 30 29 56 53 26 -27 -41 -59 -38 -16 -48 hvcurveto
          -20 -100 rmoveto
          105 68 88 121 80 -44 56 -79 -100 -73 -81 -126 -86 48 -52 75 hvcurveto
          -230 -39 callgsubr
        </CharString>
        <CharString name="pi">
          213 -77 -21 86 104 329 74 10 -20 hstemhm
          hintmask 11100000
          452 155 rmoveto
          36 18 89 18 86 vhcurveto
          46 10 16 9 74 hhcurveto
          7 7 22 70 rlineto
          hintmask 11010000
          -5 7 rlineto
          hintmask 11100000
          0 -103 -10 -69 vhcurveto
          hintmask 11010000
          -57 -164 10 -109 hhcurveto
          -16 -7 -84 -87 -1 -8 25 -42 8 1 rlineto
          0 42 50 27 19 7 -7 -25 -45 -63 -403 -8 -16 vhcurveto
          6 -14 120 22 9 10 rlineto
          0 3 51 6 48 vhcurveto
          9 73 28 193 12 75 rrcurveto
          40 7 5 4 45 hhcurveto
          50 4 -6 -43 -5 hvcurveto
          -34 -250 rlineto
          -90 -12 34 -41 85 hhcurveto
          16 75 72 17 2 hvcurveto
          -8 15 rlineto
          -52 -19 16 47 hvcurveto
          endchar
        </CharString>
        <CharString name="plus">
          100 45 -21 183 99 191 -20 hstem
          317 497 rmoveto
          -92 -11 -22 -180 rlineto
          -77 -86 1 0 hvcurveto
          18 callsubr
          90 1 79 vhcurveto
          -10 -82 -12 -93 0 vvcurveto
          9 -8 91 15 rlineto
          0 9 88 10 80 vhcurveto
          172 1 22 92 -5 12 rlineto
          0 -101 -5 -75 -1 vhcurveto
          10 78 18 106 -31 callgsubr
        </CharString>
        <CharString name="plusminus">
          100 -97 88 -69 -21 323 100 185 -20 hstemhm
          hintmask 10110000
          318 509 rmoveto
          -91 -11 -22 -174 rlineto
          -78 -85 1 0 hvcurveto
          -25 -91 6 -11 rlineto
          0 90 1 79 vhcurveto
          -10 -81 -12 -89 0 vvcurveto
          10 -7 91 14 rlineto
          0 9 85 10 78 vhcurveto
          57 57 1 57 hhcurveto
          22 92 -5 13 rlineto
          0 -101 -5 -75 -1 vhcurveto
          10 77 18 101 0 vvcurveto
          97 -507 rmoveto
          -1 -27 -1 -53 -1 vhcurveto
          -1 -38 -44 0 -37 hhcurveto
          -223 hlineto
          -19 -76 rlineto
          hintmask 01110000
          6 -14 rlineto
          hintmask 10110000
          89 188 2 144 hhcurveto
          20 77 rlineto
          endchar
        </CharString>
        <CharString name="product">
          300 0 65 -53 -21 576 75 7 -20 hstemhm
          hintmask 10010000
          625 525 rmoveto
          7 37 12 10 50 7 14 70 rcurveline
          hintmask 01100000
          -2 -2 -118 -5 -39 hhcurveto
          -317 hlineto
          -39 -96 4 0 hvcurveto
          -16 -65 -40 callgsubr
          0 21 1 12 22 8 -7 -26 -36 -33 -238 -16 -127 vhcurveto
          -7 -57 -17 -15 -56 -12 -15 -65 rcurveline
          hintmask 10100000
          3 1 100 6 56 hhcurveto
          40 81 -4 1 hvcurveto
          17 64 -5 7 rlineto
          0 -14 -2 -14 -1 vhcurveto
          -8 -6 1 2 -8 hvcurveto
          -12 2 -5 11 24 vvcurveto
          36 35 220 27 157 vhcurveto
          40 7 16 9 68 hhcurveto
          79 23 1 -39 -72 -33 -192 -15 -125 hvcurveto
          -7 -57 -15 -15 -53 -12 rrcurveto
          hintmask 01100000
          -14 -65 rlineto
          hintmask 10100000
          0 79 9 54 43 101 -19 callgsubr
          16 64 -3 7 rlineto
          0 -20 -3 -21 -23 -8 9 32 37 37 235 25 147 vhcurveto
          endchar
        </CharString>
        <CharString name="q">
          85 -228 61 -52 -21 249 -21 399 79 39 42 callgsubr
          247 -111 rmoveto
          -10 -55 -11 -10 -58 -5 -11 -59 rcurveline
          hintmask 10111000
          0 100 12 147 vhcurveto
          10 56 -2 5 rlineto
          -34 hlineto
          -20 -7 9 26 107 97 469 17 31 hvcurveto
          -7 17 -80 13 -13 -7 -18 -50 -85 18 rlineto
          -116 -124 -167 -157 -94 47 -60 74 hvcurveto
          49 38 45 62 59 106 8 -1 rcurveline
          -28 -144 rlineto
          -104 56 rmoveto
          -15 -12 40 51 94 44 97 42 31 38 -18 -11 18 hvcurveto
          -146 -58 -61 -107 -27 hhcurveto
          endchar
        </CharString>
        <CharString name="q.sups">
          -46 204 -21 402 58 26 -20 hstem
          174 271 rmoveto
          -6 -34 -8 -6 -40 -3 -9 -45 rcurveline
          0 66 8 110 vhcurveto
          8 43 -1 3 rlineto
          -20 hlineto
          -13 -4 5 16 71 64 307 7 12 hvcurveto
          -4 13 -67 8 -11 -6 -11 -31 -53 11 rlineto
          -79 -84 -108 -102 -63 35 -39 55 hvcurveto
          30 23 28 37 37 65 6 -1 rcurveline
          -17 -85 rlineto
          -61 48 rmoveto
          -8 -6 23 29 56 22 59 22 22 25 -14 -4 8 hvcurveto
          -81 -30 -39 -68 -16 hhcurveto
          endchar
        </CharString>
        <CharString name="question">
          -30 -11 158 453 105 hstem
          96 221 rmoveto
          11 -6 90 18 7 11 -3 83 3 7 rlineto
          114 73 70 40 97 vvcurveto
          89 -98 68 -134 4 vhcurveto
          -16 -7 -46 -84 6 -14 rlineto
          102 -6 61 -31 -59 vvcurveto
          -34 -24 -26 -35 -20 vhcurveto
          -111 -63 -5 -14 rlineto
          30 -358 rmoveto
          54 37 40 53 39 -23 26 -42 -55 -36 -39 -54 -38 22 -27 43 hvcurveto
          endchar
        </CharString>
        <CharString name="questiondown">
          -30 -242 105 453 158 hstem
          263 242 rmoveto
          -11 6 -90 -18 -7 -11 3 -83 -3 -7 rlineto
          -114 -73 -70 -41 -96 vvcurveto
          -89 98 -68 134 -4 vhcurveto
          16 7 46 84 -6 14 rlineto
          -102 6 -62 31 58 vvcurveto
          35 25 26 35 20 vhcurveto
          111 63 5 14 rlineto
          -30 358 5 callgsubr
          endchar
        </CharString>
        <CharString name="quotedbl">
          -77 429 -21 246 -20 hstem
          192 654 -65 callgsubr
          106 28 110 0 vvcurveto
          136 10 rmoveto
          -102 -14 rlineto
          0 -4 -113 -16 -115 vhcurveto
          14 -4 51 20 rlineto
          35 106 28 110 -31 callgsubr
        </CharString>
        <CharString name="quotedblbase">
          20 -104 29 callgsubr
          15 94 -27 callgsubr
          179 -14 -27 callgsubr
          endchar
        </CharString>
        <CharString name="quotedblleft">
          6 408 29 callgsubr
          451 436 -55 callsubr
          -9 callgsubr
          -176 14 -55 callsubr
          -9 callgsubr
          endchar
        </CharString>
        <CharString name="quotedblright">
          6 408 29 callgsubr
          317 605 -54 callgsubr
          -182 -14 -54 callgsubr
          endchar
        </CharString>
        <CharString name="quoteleft">
          -174 408 29 callgsubr
          212 436 -55 callsubr
          -9 callgsubr
          endchar
        </CharString>
        <CharString name="quoteright">
          -174 408 29 callgsubr
          74 605 -54 callgsubr
          endchar
        </CharString>
        <CharString name="quotesinglbase">
          41 callgsubr
          -20 hstem
          17 -56 callsubr
          endchar
        </CharString>
        <CharString name="quotesingle">
          -218 429 -21 246 -20 hstem
          192 654 -65 callgsubr
          106 28 110 -31 callgsubr
        </CharString>
        <CharString name="r">
          -8 13 -21 402 59 19 -42 callsubr
          -84 callsubr
          hintmask 11000000
          -61 callsubr
          -74 30 callgsubr
          35 hlineto
          28 10 -11 -28 -37 -54 -310 0 hvcurveto
          endchar
        </CharString>
        <CharString name="r.sups">
          -107 355 -21 257 -20 78 -20 hstem
          35 347 rmoveto
          11 -22 callgsubr
          6 53 rlineto
          83 31 35 44 35 hhcurveto
          19 11 -10 0 hvcurveto
          10 5 rlineto
          6 16 3 13 10 vvcurveto
          32 -11 24 -23 16 vhcurveto
          -24 -44 -55 -62 -25 hvcurveto
          -4 -1 rlineto
          8 48 16 51 0 vvcurveto
          -9 12 39 callgsubr
          18 6 -7 -17 -23 -35 -197 0 hvcurveto
          endchar
        </CharString>
        <CharString name="racute">
          -8 13 -21 402 59 19 -20 285 -20 hstemhm
          hintmask 10110000
          -84 callsubr
          hintmask 11010000
          -61 callsubr
          -74 30 callgsubr
          35 hlineto
          28 10 -11 -28 -37 -54 -310 0 hvcurveto
          283 658 -95 callgsubr
          endchar
        </CharString>
        <CharString name="radical">
          99 9 -21 754 -20 hstem
          82 344 rmoveto
          15 -78 47 -278 0 vvcurveto
          140 16 302 738 rlineto
          -80 hlineto
          -23 -16 -238 -611 rlineto
          -11 hlineto
          0 -37 283 2 62 vhcurveto
          -6 8 -67 -7 rlineto
          -35 -3 -61 -4 0 vvcurveto
          -15 -59 3 -4 36 1 20 -9 8 -39 rlinecurve
          endchar
        </CharString>
        <CharString name="rcaron">
          -8 13 -21 402 59 19 -20 272 -20 hstemhm
          hintmask 10110000
          -84 callsubr
          hintmask 11010000
          -61 callsubr
          -74 30 callgsubr
          35 hlineto
          28 10 -11 -28 -37 -54 -310 0 hvcurveto
          -6 671 -87 callgsubr
        </CharString>
        <CharString name="rcommaaccent">
          -8 -297 -21 331 -21 402 59 19 -32 callsubr
          -84 callsubr
          hintmask 11100000
          -61 callsubr
          -74 30 callgsubr
          35 hlineto
          28 10 -11 -28 -37 -54 -310 0 hvcurveto
          -18 -108 -99 callsubr
        </CharString>
        <CharString name="registered">
          63 324 -21 112 204 -31 123 -117 -42 callsubr
          62 485 rmoveto
          -101 73 -81 100 117 106 102 124 101 -73 81 -100 -117 -106 -102 -124 vhcurveto
          37 4 rmoveto
          100 87 84 95 81 59 -66 -82 -100 -87 -84 -95 -80 -60 66 82 vhcurveto
          56 -77 rmoveto
          hintmask 11000000
          0 26 2 18 1 vhcurveto
          11 hlineto
          13 25 -2 0 hvcurveto
          5 22 rlineto
          1 0 1 -1 1 vhcurveto
          -16 -5 2 12 6 4 22 2 10 hvcurveto
          20 hlineto
          16 -51 rlineto
          -24 8 9 -6 20 hhcurveto
          38 2 0 2 3 18 -3 3 rcurveline
          -10 1 -12 12 -8 17 -18 38 rcurveline
          28 14 20 20 34 vvcurveto
          33 -27 16 -50 -4 -20 -1 -1 -11 vhcurveto
          -10 hlineto
          -13 -22 1 -7 hhcurveto
          -5 -21 rlineto
          hintmask 10010000
          2 -3 rlineto
          11 hlineto
          7 2 -3 -15 -2 hvcurveto
          -13 -107 -3 -23 -5 -7 -18 -3 rlinecurve
          91 144 rmoveto
          hintmask 10100000
          7 1 1 1 4 hhcurveto
          24 14 -8 -19 -26 -16 -11 -13 -4 hvcurveto
          -8 -11 2 -6 hhcurveto
          endchar
        </CharString>
        <CharString name="ring">
          -4 543 186 -133 -20 98 55 -4 callgsubr
          239 596 -27 callsubr
          hintmask 10000000
          -13 -53 rmoveto
          66 42 -57 callsubr
        </CharString>
        <CharString name="ring.cap">
          -4 678 186 -133 -20 98 55 -4 callgsubr
          256 731 -26 callgsubr
          hintmask 10000000
          -13 -53 rmoveto
          67 41 -57 callsubr
        </CharString>
        <CharString name="s">
          -19 -12 81 321 84 -96 callsubr
          endchar
        </CharString>
        <CharString name="s.sups">
          -115 331 64 190 65 hstem
          42 448 rmoveto
          -15 -17 -16 -36 -4 -23 rrcurveto
          -24 8 41 -17 49 hhcurveto
          80 63 49 63 52 -54 20 -31 20 hvcurveto
          -12 8 -8 8 11 vvcurveto
          13 12 10 15 19 17 -13 -23 9 vhcurveto
          15 hlineto
          11 19 13 26 12 29 rrcurveto
          16 -20 -34 11 -36 hhcurveto
          -76 -59 -47 -64 -43 34 -20 29 -17 hvcurveto
          23 -13 20 -11 -17 vvcurveto
          -14 -12 -9 -21 -31 -24 21 31 -2 vhcurveto
          endchar
        </CharString>
        <CharString name="sacute">
          -19 -12 81 321 84 263 -20 -96 callsubr
          325 509 -95 callgsubr
          endchar
        </CharString>
        <CharString name="scaron">
          -19 -12 81 321 84 250 -20 -96 callsubr
          31 522 -87 callgsubr
        </CharString>
        <CharString name="scedilla">
          -19 20 callsubr
          139 80 321 84 hstem
          88 -88 callgsubr
          13 34 rlineto
          95 12 74 68 82 vvcurveto
          79 -81 34 -46 37 vhcurveto
          -18 14 -12 14 18 vvcurveto
          24 21 18 25 32 28 -23 -36 14 vhcurveto
          20 hlineto
          14 25 19 38 15 39 rrcurveto
          25 -27 -48 16 -51 hhcurveto
          -105 -84 -71 -90 -64 51 -34 44 -30 hvcurveto
          34 -23 30 -20 -28 vvcurveto
          -26 -23 -19 -33 -52 -35 34 54 -2 vhcurveto
          -20 1 -18 -24 -23 -52 -7 -34 rlinecurve
          11 -33 46 -22 60 -4 rrcurveto
          endchar
        </CharString>
        <CharString name="scircumflex">
          -19 -12 81 321 84 256 -20 -96 callsubr
          44 378 -106 callsubr
        </CharString>
        <CharString name="scommaaccent">
          -19 -297 -21 306 81 321 84 -96 callsubr
          10 -257 -99 callsubr
        </CharString>
        <CharString name="section">
          92 -100 81 520 -20 88 85 hstem
          355 54 rmoveto
          2 18 -2 16 -5 15 rrcurveto
          62 38 47 58 62 131 -195 42 85 vvcurveto
          29 22 21 25 32 30 -28 -40 10 vhcurveto
          19 hlineto
          15 13 28 67 25 vvcurveto
          25 -53 23 -61 -103 -88 -75 -88 -15 3 -13 5 -13 vhcurveto
          -62 -37 -50 -54 -66 -138 196 -31 -88 vvcurveto
          -32 -25 -23 -32 -50 -36 42 59 -3 vhcurveto
          -20 1 rlineto
          -23 -27 -18 -53 -29 vvcurveto
          -41 56 -33 68 107 91 78 76 8 vhcurveto
          -210 288 rmoveto
          25 9 21 20 18 vhcurveto
          59 -71 113 -45 -75 vvcurveto
          -24 -9 -19 -17 -18 vhcurveto
          -60 70 -115 42 76 vvcurveto
          endchar
        </CharString>
        <CharString name="semicolon">
          41 callgsubr
          120 0 158 hstemhm
          hintmask 11000000
          17 -56 callsubr
          96 154 rmoveto
          54 37 40 53 hvcurveto
          hintmask 10100000
          39 -23 26 -42 -54 -37 -39 -54 -38 21 -27 44 vhcurveto
          endchar
        </CharString>
        <CharString name="seven">
          25 -79 -10 callsubr
          156 -100 rmoveto
          45 113 63 119 59 115 118 203 rlinecurve
          -33 31 callsubr
          -7 -5 rlineto
          -16 -91 -27 -114 0 vvcurveto
          60 6 20 68 13 15 62 5 rlinecurve
          126 8 -267 -442 8 -25 86 -27 rlineto
          endchar
        </CharString>
        <CharString name="seven.dnom">
          -93 14 -21 391 -20 hstem
          129 -7 -47 callgsubr
        </CharString>
        <CharString name="seven.lf">
          24 9 -10 callsubr
          167 -12 rmoveto
          45 114 63 119 60 115 116 202 rlinecurve
          -32 31 callsubr
          -6 -5 rlineto
          -16 -90 -29 -114 0 vvcurveto
          61 6 20 68 13 15 61 5 rlinecurve
          128 7 -268 -441 7 -25 87 -28 rlineto
          endchar
        </CharString>
        <CharString name="seven.numr">
          -93 275 -21 390 -20 hstem
          129 254 rmoveto
          32 82 46 86 32 60 71 122 rlinecurve
          -26 37 rlineto
          -141 hlineto
          -40 -38 3 0 hvcurveto
          -4 -3 rlineto
          -11 -63 -19 -79 0 vvcurveto
          46 4 13 43 8 8 40 4 rlinecurve
          73 6 -168 -273 6 -17 67 -20 rlineto
          endchar
        </CharString>
        <CharString name="seven.sinf">
          -93 -106 -21 391 -20 hstem
          129 -127 -47 callgsubr
        </CharString>
        <CharString name="seven.sups">
          -93 353 -21 307 81 3 -20 hstemhm
          hintmask 11000000
          129 332 rmoveto
          32 82 46 86 32 60 71 123 rlinecurve
          -26 37 rlineto
          -141 hlineto
          hintmask 10100000
          -40 -38 3 0 hvcurveto
          hintmask 11000000
          -4 -3 rlineto
          -11 -63 -19 -80 0 vvcurveto
          46 4 13 44 8 8 40 4 rlinecurve
          73 5 -168 -272 6 -17 67 -21 rlineto
          endchar
        </CharString>
        <CharString name="seven.tf">
          67 9 -10 callsubr
          182 -12 rmoveto
          45 114 65 119 66 115 125 202 rlinecurve
          -33 48 rlineto
          -221 hlineto
          hintmask 10100000
          -64 -61 4 0 hvcurveto
          -7 -5 rlineto
          -16 -90 -29 -114 0 vvcurveto
          62 6 21 68 13 15 66 5 rlinecurve
          141 7 -286 -441 8 -25 89 -28 rlineto
          endchar
        </CharString>
        <CharString name="seven.tosf">
          57 -79 -10 callsubr
          167 -100 rmoveto
          45 113 64 119 65 115 124 203 rlinecurve
          -34 48 rlineto
          -219 hlineto
          hintmask 10100000
          -62 -60 4 0 hvcurveto
          -7 -5 rlineto
          -16 -91 -28 -114 0 vvcurveto
          60 6 21 68 13 15 66 5 rlinecurve
          136 8 -281 -442 9 -25 88 -27 rlineto
          endchar
        </CharString>
        <CharString name="six">
          -41 callsubr
          -52 -30 -10 -3 -3 6 rcurveline
          78 150 161 -18 callsubr
          -46 -25 40 64 26 5 20 5 26 hvcurveto
          10 15 31 18 33 hhcurveto
          endchar
        </CharString>
        <CharString name="six.dnom">
          -68 -8 63 -63 247 150 -28 callgsubr
          297 342 -60 callsubr
        </CharString>
        <CharString name="six.lf">
          -41 callsubr
          -38 -20 -24 -13 -3 7 rcurveline
          78 149 161 -18 callsubr
          -46 -25 40 64 24 5 21 5 27 hvcurveto
          10 15 31 18 33 hhcurveto
          endchar
        </CharString>
        <CharString name="six.numr">
          -68 253 63 -63 247 149 -28 callgsubr
          297 603 rmoveto
          -10 42 -7 4 rlineto
          0 -261 -62 -212 vvcurveto
          -73 43 -49 72 97 65 62 88 55 -34 42 -60 vhcurveto
          -15 -3 -20 -10 -14 -7 -2 6 rcurveline
          52 84 94 33 0 vvcurveto
          -134 -169 rmoveto
          25 13 -20 -30 hvcurveto
          hintmask 10100000
          -43 -15 -25 -36 -25 -14 21 38 15 3 13 3 16 vhcurveto
          6 9 18 9 19 hhcurveto
          endchar
        </CharString>
        <CharString name="six.sinf">
          -68 -128 63 -63 247 150 -28 callgsubr
          297 222 -60 callsubr
        </CharString>
        <CharString name="six.sups">
          -68 331 64 -64 248 149 -28 callgsubr
          297 682 rmoveto
          -10 42 -7 4 rlineto
          0 -261 -63 -211 vvcurveto
          -73 43 -50 72 97 65 63 87 56 -34 42 -60 vhcurveto
          -15 -3 -20 -10 -14 -7 -2 6 rcurveline
          52 83 94 34 0 vvcurveto
          -134 -169 rmoveto
          25 13 -20 -30 hvcurveto
          hintmask 10100000
          -43 -15 -25 -36 -25 -14 21 37 16 3 13 3 16 vhcurveto
          6 9 18 9 19 hhcurveto
          endchar
        </CharString>
        <CharString name="six.tf">
          67 -3 callsubr
          435 538 rmoveto
          -14 55 -8 5 rlineto
          0 -390 -100 -325 vvcurveto
          -109 60 -76 106 140 98 97 127 81 -50 68 -94 vhcurveto
          -25 -4 -37 -20 -25 -13 -3 7 rcurveline
          78 149 164 58 0 vvcurveto
          -202 -265 rmoveto
          46 26 -38 -51 -70 -31 -45 -59 -47 -25 40 64 24 4 21 6 27 hvcurveto
          10 15 32 18 33 hhcurveto
          endchar
        </CharString>
        <CharString name="six.tosf">
          57 -3 callsubr
          428 538 rmoveto
          -14 55 -8 5 rlineto
          0 -386 -100 -325 vvcurveto
          -109 60 -76 104 139 97 97 127 81 -49 68 -93 vhcurveto
          -24 -4 -51 -30 -10 -3 -3 6 rcurveline
          78 150 160 -18 callsubr
          -45 -25 40 64 26 4 20 6 26 hvcurveto
          10 15 31 18 32 hhcurveto
          endchar
        </CharString>
        <CharString name="slash">
          -71 -89 -21 785 -20 hstem
          352 675 rmoveto
          -81 hlineto
          -166 -449 rlineto
          -56 -152 -71 -173 0 vvcurveto
          7 -11 rlineto
          85 hlineto
          0 60 160 61 165 vhcurveto
          61 162 111 283 -31 callgsubr
        </CharString>
        <CharString name="space">
          -222 endchar
        </CharString>
        <CharString name="square1">
          58 21 -21 462 -20 hstem
          -27 hmoveto
          447 hlineto
          56 462 rlineto
          -446 hlineto
          endchar
        </CharString>
        <CharString name="square2">
          232 21 -21 642 -20 hstem
          -27 hmoveto
          620 hlineto
          78 642 rlineto
          -619 hlineto
          endchar
        </CharString>
        <CharString name="sterling">
          112 -12 115 -66 66 -66 85 159 67 163 87 hstemhm
          hintmask 01011000
          422 178 rmoveto
          -49 -8 -27 -26 -36 hhcurveto
          hintmask 00111000
          -38 -54 19 -38 hhcurveto
          -57 -12 29 24 22 44 7 43 rlinecurve
          9 60 rlineto
          75 64 -3 0 hvcurveto
          19 68 -3 5 rlineto
          0 -70 -3 -75 vhcurveto
          11 68 rlineto
          66 10 23 29 44 hhcurveto
          28 30 -11 -27 43 hvcurveto
          19 3 44 96 -4 11 rlineto
          9 -21 -45 6 -41 hhcurveto
          -119 -117 -101 -124 -15 hvcurveto
          -3 -21 -60 -10 -14 -52 3 -6 49 -3 11 -6 -2 -31 rlinecurve
          -5 -41 -7 -54 -34 -44 -64 -38 rlinecurve
          12 -61 11 -5 rlineto
          25 41 34 11 37 hhcurveto
          hintmask 10011000
          68 76 -49 65 hhcurveto
          60 49 51 70 24 -4 28 -9 15 hvcurveto
          endchar
        </CharString>
</ttFont>
